<svg width="393" height="409" viewBox="0 0 393 409" fill="none" xmlns="http://www.w3.org/2000/svg">
<path d="M732.59 -623.533C743.948 -613.324 755 -602.779 765.685 -591.874C761.533 -596.116 757.366 -600.363 753.22 -604.618C796.099 -560.577 832.034 -510.833 862.437 -457.494L853.758 -472.792C871.879 -440.816 888.196 -407.857 903.682 -374.534C911.76 -357.169 919.612 -339.7 927.403 -322.206C934.729 -305.736 942.463 -289.526 947.137 -272.063L942.597 -289.056C948.352 -266.585 950.448 -243.445 950.519 -220.292L950.469 -238.119C950.331 -201.19 945.201 -164.282 935.721 -128.618L940.514 -146.419C936.466 -131.502 931.081 -117.427 923.329 -104.029L932.659 -119.929C925.035 -107.19 915.872 -95.6419 905.343 -85.1802L918.087 -97.6457C906.813 -86.7507 894.347 -77.3986 880.773 -69.5543L896.071 -78.233C882.378 -70.5381 867.947 -64.5604 852.805 -60.4043C858.476 -61.9204 864.127 -63.4283 869.797 -64.9444C855.363 -61.1712 840.667 -59.1472 825.733 -59.0449C831.669 -59.0587 837.618 -59.0664 843.56 -59.0942C827.934 -59.199 812.54 -61.2776 797.422 -65.1618C803.362 -63.5668 809.297 -61.9576 815.223 -60.3685C797.874 -65.0551 781.401 -71.9915 765.809 -80.9109C771.112 -77.7942 776.42 -74.6916 781.709 -71.5808C764.767 -81.5465 749.354 -93.6207 735.578 -107.626C739.731 -103.385 743.897 -99.1373 748.044 -94.882C735.489 -107.928 724.619 -122.306 715.613 -138.006L724.291 -122.708C712.399 -143.974 704.208 -166.919 697.899 -190.4C699.415 -184.73 700.923 -179.079 702.439 -173.408C685.931 -236.03 681.211 -301.448 658.091 -362.402C632.015 -431.204 579.701 -486.884 510.959 -514.151C445.115 -540.27 365.667 -542.226 301.225 -510.546C235.656 -478.311 184.533 -418.888 164.971 -348.059C153.678 -307.158 148.437 -264.732 157.109 -222.62C161.695 -200.324 168.358 -178.633 178.631 -158.327C190.197 -135.491 203.976 -113.866 216.598 -91.6146L207.92 -106.913C216.783 -91.1066 224.648 -74.9736 229.537 -57.4706L224.997 -74.4629C227.719 -64.0797 229.4 -53.5859 229.667 -42.8401L229.618 -60.6668C229.63 -52.5949 228.815 -44.7208 226.945 -36.8583L231.738 -54.6599C229.833 -47.6236 227.158 -41.0425 223.548 -34.7206L232.878 -50.6211C229.383 -44.93 225.316 -39.81 220.542 -35.1358L233.285 -47.6013C228.515 -43.1738 223.344 -39.411 217.715 -36.1381L233.013 -44.8168C226.045 -40.9954 218.746 -38.1243 211.107 -35.9424C216.778 -37.4585 222.428 -38.9664 228.099 -40.4824C216.755 -37.4844 205.17 -36.1614 193.447 -36.0549C199.383 -36.0686 205.333 -36.0764 211.274 -36.1042C195.815 -36.1723 180.547 -38.314 165.614 -42.2859C171.555 -40.6909 177.49 -39.0818 183.416 -37.4927C157.969 -44.5955 133.982 -55.9728 109.574 -65.8704C80.126 -77.8136 48.8161 -88.3174 16.993 -90.8374C-0.807317 -92.2346 -18.5924 -88.4906 -33.104 -77.5775C-46.7483 -67.3113 -58.52 -48.7073 -59.9773 -31.396C-61.4346 -14.0846 -58.1371 4.8053 -46.7175 18.701C-35.2978 32.5968 -19.0388 44.1146 -0.535895 45.5743C10.5603 46.4478 21.4003 48.4067 32.1706 51.1644C26.2301 49.5694 20.2954 47.9602 14.369 46.371C48.7178 55.6308 80.3041 72.3129 113.758 84.0633C150.312 96.9142 187.364 103.48 226.153 99.4948C267.379 95.2712 304.224 76.7561 332.117 46.3234C362.352 13.3441 371.764 -37.455 364.052 -80.4734C360.063 -102.734 353.044 -124.641 342.808 -144.799C331.617 -166.831 318.386 -187.747 306.133 -209.18L314.812 -193.882C305.13 -210.976 296.541 -228.505 291.305 -247.512L295.845 -230.519C291.723 -246.177 289.729 -262.169 289.633 -278.342L289.682 -260.515C289.78 -278.181 292.125 -295.634 296.589 -312.729L291.796 -294.927C296.799 -313.386 304.145 -330.996 313.775 -347.532L304.445 -331.632C313.476 -346.78 324.271 -360.642 336.866 -372.988L324.122 -360.522C334.817 -370.749 346.539 -379.667 359.353 -387.084L344.056 -378.406C357.391 -385.919 371.514 -391.596 386.306 -395.55L369.314 -391.01C384.73 -394.952 400.469 -396.936 416.383 -397.124L398.556 -397.075C417.316 -397.098 435.859 -394.627 453.966 -389.772C448.026 -391.367 442.091 -392.976 436.165 -394.566C453.551 -389.731 470.14 -382.795 485.756 -373.734C480.453 -376.85 475.144 -379.953 469.855 -383.064C484.104 -374.575 497.18 -364.474 508.844 -352.662C504.691 -356.903 500.525 -361.151 496.378 -365.406C507.173 -354.207 516.287 -341.808 524.043 -328.338L515.364 -343.636C527.101 -322.75 535.213 -300.252 541.441 -277.169L536.901 -294.161C547.459 -254.058 552.607 -212.826 561.861 -172.458C573.54 -121.434 590.05 -71.7803 622.669 -29.9354C655.708 12.4498 702.531 48.1884 754.224 64.203C769.648 68.9774 785.498 73.3672 801.534 75.6152C817.341 77.8168 833.495 77.7288 849.392 77.1855C875.037 76.305 901.26 69.6205 924.989 60.1517C948.791 50.6642 972.175 37.1582 991.711 20.4996C1003.49 10.447 1014.81 -0.560772 1024.81 -12.4244C1034.8 -24.288 1042.84 -38.0957 1050.68 -51.8358C1063.48 -74.2474 1069.63 -99.4179 1075.45 -124.375C1080.23 -144.915 1083.55 -165.816 1085.36 -186.841C1089.83 -238.816 1087.35 -292.777 1068.7 -342.02C1060.55 -363.523 1050.21 -384.42 1040.69 -405.352C1031.32 -425.993 1021.73 -446.543 1011.66 -466.863C990.158 -510.294 966.624 -553.068 939.511 -593.268C911.569 -634.694 879.016 -671.955 843.604 -707.136C835.139 -715.553 826.424 -723.728 817.543 -731.706C804.801 -743.158 782.56 -747.99 766 -745.786C749.441 -743.583 730.754 -733.773 720.986 -720.11C710.493 -705.426 703.647 -686.878 706.906 -668.567C710.151 -650.263 718.696 -636.031 732.582 -623.553L732.59 -623.533Z" fill="#6966FF"/>
</svg>
