<svg width="393" height="221" viewBox="0 0 393 221" fill="none" xmlns="http://www.w3.org/2000/svg">
<g clip-path="url(#clip0_1_1523)">
<path d="M-27 334.32C-26.624 332.62 -22.9983 329.838 -21.0117 329.81L-3.1034 329.539C-2.97569 312.101 -3.67102 303.55 -3.86259 285.92L-3.97611 275.119L-3.66393 254.508C-3.51493 244.719 -3.77745 234.808 -4.64306 224.862C-5.59382 213.848 -5.01201 203.688 -4.94106 192.896L-4.85592 180.011C-4.76368 166.272 -4.05416 152.968 -5.30292 139.187L-6.63681 124.545C-2.53579 122.809 2.65079 121.799 8.69589 121.237C9.95174 111.084 9.05775 100.12 6.41124 88.7157L22.9359 85.4928C25.1567 82.0848 25.1354 75.0271 25.0645 70.5093L24.8445 56.529L24.0286 41.1187C31.3366 39.2547 37.4101 38.9345 44.3492 41.3819L44.4131 83.7497C49.4365 86.3465 61.775 82.4975 62.8747 85.2224C63.3785 86.4746 63.7404 89.6619 63.8184 91.4406L65.1239 120.582C65.9895 121.137 70.3531 121.265 72.8009 120.767C84.3803 118.419 81.5493 135.046 81.5351 145.932L81.3932 220.899C88.2542 215.001 92.1211 210.312 96.2292 204.507L104.708 192.526C106.993 189.303 111.775 182.302 116.876 184.956C123.893 188.612 128.207 195.578 134.224 201.604C136.118 191.956 135.373 182.658 134.834 173.124L133.564 150.741C133.224 144.722 136.09 140.005 142.405 138.846L142.22 113.318L147.109 105.819C167.124 100.569 185.643 102.354 207.248 102.532L207.95 137.43C212.505 137.643 218.848 138.703 219.586 141.385C221.977 150.108 222.815 158.276 223.113 167.148L224.184 199.128C226 200.658 231.584 200.779 234.273 200.017C233.493 177.471 235.401 161.328 233.663 137.778C236.678 137.857 241.305 138.596 244.065 138.497L261.888 137.842C265.563 137.707 270.515 138.205 273.46 139.009C273.098 147.106 273.325 152.399 273.474 159.606L274.318 200.473L291.368 199.847L292.532 143.783C292.688 136.199 290.85 129.155 289.098 121.614L295.178 119.344C294.582 118.782 292.61 114.841 293.497 113.709L302.316 102.461C316.968 83.7852 314.08 69.3069 342.808 72.9567L349.662 84.0556L366.826 111.881C369.564 95.4319 366.861 80.1354 365.392 64.8389C369.217 60.6271 372.629 56.6429 376.191 52.2887L417.748 1.56836C421.203 2.57152 425.347 4.86244 427.291 7.37391L449.775 36.5155C455.927 44.491 459.148 55.1346 462.823 64.5899L460.737 79.8508C462.738 82.7252 464.015 85.4928 464.101 88.5734L464.917 117.445C465.243 129.084 467.386 141.08 466.506 152.705L463.639 190.64L462.802 221.02L483.655 219.59L485.414 198.246C486.238 188.25 483.818 168.058 491.495 167.752L503.876 167.254L503.081 138.219C502.947 133.182 510.446 136.476 513.355 136.298C526.219 135.53 540.558 134.413 553.684 134.982C555.948 135.082 558.658 140.624 558.729 142.787L559.481 165.191C559.524 166.479 561.298 168.933 562.433 168.691C563.568 168.45 565.782 166.102 565.789 164.793L566.073 113.368L565.193 77.9299L566.016 49.4073C566.25 41.2681 566.633 33.8546 568.116 25.9431C576.595 25.0752 583.498 23.8728 590.87 24.2854L613.029 25.5163L649.164 28.4048C657.04 29.0309 660.141 36.174 659.928 42.3922L658.97 69.7552L657.139 147.248L656.061 167.368L653.996 210.753H659.8C661.247 200.914 661.233 192.234 660.126 181.882C670.031 181.441 679.014 181.107 688.337 181.476C692.679 181.647 695.375 189.729 694.971 193.273C694.226 199.811 693.963 205.986 693.992 212.496C702.109 212.731 707.884 218.594 706.898 226.028C705.344 237.832 703.961 249.073 703.762 260.94L703.003 306.403L702.612 321.322C702.499 325.619 703.031 330.977 704.422 334.683L728.893 335.139C731.696 335.188 734.321 343.093 732.171 344.608C728.794 347.006 723.33 344.9 719.222 344.864L601.541 343.904L577.503 342.104L543.262 339.792L466.974 335.309L442.56 333.943C430.391 333.26 418.436 333.659 406.346 334.185L336.423 337.237C322.466 337.849 308.283 336.341 294.526 338.148C258.51 342.872 250.528 337.33 214.669 339.685C201.486 340.553 189.034 340.446 175.851 339.656C160.781 338.746 145.761 339.137 130.641 339.685L92.7384 341.058C72.8293 341.777 53.1827 340.069 33.1459 339.592L-15.4845 338.447C-19.8906 338.34 -24.4315 338.959 -26.9858 334.328L-27 334.32ZM589.685 51.9543C588.642 50.5812 584.25 50.1685 582.228 50.7448C582.228 54.8357 582.356 60.2429 582.711 63.8571C582.902 65.8065 587.983 67.7204 589.288 66.5038C592.985 63.0531 591.956 54.9353 589.678 51.9543H589.685ZM604.167 50.9583C602.599 50.2539 598.157 50.631 597.206 51.8334C597.568 55.6255 598.434 61.7939 599.569 64.5615C600.101 65.8634 605.039 66.1836 605.451 64.8603C606.182 62.5124 609.339 53.2847 604.167 50.9511V50.9583ZM620.918 52.0468C619.343 51.2144 613.944 51.6982 613.738 53.4626C613.426 56.1804 613.468 61.182 614.043 63.8215C614.589 66.2974 618.662 68.4816 620.244 67.3575C624.92 64.0208 623.835 53.5907 620.911 52.0539L620.918 52.0468ZM639.189 54.5654C638.479 53.0998 634.307 51.9258 632.618 52.4879C631.001 55.5116 631.043 61.68 631.802 65.2089C632.157 66.8595 635.627 69.0295 637.039 68.4532C641.565 66.5962 641.303 58.9053 639.189 54.5725V54.5654ZM591.19 90.0959C590.721 88.794 586.166 87.9829 585.102 88.8722C582.328 91.1845 582.377 101.828 584.825 103.72C586.031 104.653 589.324 105.236 590.501 104.354C594.936 101.045 592.46 93.6319 591.19 90.0959ZM609.985 102.134C611.73 96.3426 611.801 90.9497 607.466 88.4382C606.473 87.8619 602.783 89.1141 602.663 90.2525L601.541 100.953C601.407 102.262 603.556 105.072 604.862 105.328C606.168 105.585 609.552 103.571 609.985 102.134ZM639.444 106.132L641.97 97.8082C642.431 96.2928 640.693 92.956 639.394 92.0169C638.096 91.0778 633.527 91.711 633.207 93.2406C632.54 96.4066 629.702 110.209 635.769 109.113C636.705 108.943 639.111 107.207 639.437 106.132H639.444ZM620.408 104.902C623.203 105.649 626.268 100.54 625.764 98.0501C625.232 95.4106 621.458 92.2374 618.676 93.7031C614.873 95.7023 614.866 103.415 620.408 104.902ZM445.852 103.215C444.752 102.966 441.006 104.176 441.098 105.293C441.843 114.35 441.793 120.198 447.136 123.051C451.833 125.562 452.883 104.795 445.852 103.208V103.215ZM594.879 135.672C594.737 132.748 593.843 129.525 592.701 128.401C591.608 127.32 587.585 127.142 586.741 128.501C584.357 132.357 583.881 141.763 587.855 144.068C592.098 146.529 595.092 140.105 594.879 135.672ZM610.872 137.053C611.049 134.214 610.332 130.301 608.864 129.682C607.395 129.07 604.16 128.963 602.244 129.241C600.988 133.417 600.64 140.048 604.621 142.88C606.891 144.495 610.68 140.133 610.872 137.046V137.053ZM638.266 140.681C638.805 138.86 637.656 134.513 636.329 133.517C635.002 132.521 630.859 132.4 629.738 133.41C629.617 137.6 629.795 144.608 630.22 147.988C630.39 149.375 635.861 148.849 636.258 147.497L638.273 140.681H638.266ZM622.948 140.475C623.671 138.525 622.515 134.285 620.89 133.794C619.265 133.303 614.483 133.815 614.001 135.167L615.491 144.061C615.711 145.377 620.514 147.02 620.982 145.761L622.955 140.468L622.948 140.475ZM443.581 161.947L443.39 147.732C443.354 144.95 439.069 142.552 436.876 143.876C435.401 144.765 434.755 147.76 435.024 150.129L436.16 160.31C436.302 161.584 438.033 163.839 438.984 164.43C439.934 165.02 443.595 163.078 443.581 161.954V161.947ZM525.864 151.595C524.8 151.36 522.054 151.751 521.898 152.826L521.103 158.247C520.94 159.371 521.813 162.132 522.444 163.071C523.076 164.01 526.545 164.195 526.886 163.106C527.461 161.264 530.1 152.534 525.871 151.595H525.864ZM604.401 178.723C604.571 177.193 603.408 173.679 602.492 172.661C601.577 171.637 597.561 171.829 596.873 173.017C595.205 175.891 595.347 183.554 597.504 186.393C598.412 187.588 603.493 187.005 603.656 185.518L604.401 178.73V178.723ZM616.761 173.444C615.718 172.149 610.673 171.872 610.268 173.487C609.651 175.963 609.41 181.491 609.637 184.038C609.736 185.169 613.497 186.243 614.483 185.667C617.499 183.903 620.067 177.549 616.761 173.444ZM632.186 174.518C631.469 173.039 626.034 172.661 625.317 174.134C624.033 176.759 624.211 190.156 630.44 189.758C635.357 189.445 634.981 180.331 632.186 174.518ZM442.077 207.395C443.73 203.112 445.376 191.046 441.701 188.1C441.07 187.595 437.593 188.484 437.465 189.288L435.237 202.941C434.741 205.994 440.764 210.789 442.077 207.402V207.395ZM514.299 210.796L515.626 193.258C515.782 191.216 508.963 189.459 508.41 191.387C506.955 196.446 504.274 209.9 508.772 212.617C510.198 213.478 514.171 212.546 514.299 210.796ZM535.634 194.005C535.024 190.96 527.844 192.319 527.673 194.816L526.808 207.402C526.673 209.387 529.405 212.731 531.271 212.795C537.926 213.03 536.585 198.744 535.634 193.998V194.005ZM560.035 216.552L562.149 200.117C562.369 198.438 560.46 195.037 559.261 193.941C558.062 192.839 552.961 193.735 552.861 195.393L551.79 213.379C551.705 214.866 553.762 217.349 554.805 218.281C555.636 219.013 559.871 217.775 560.028 216.559L560.035 216.552ZM601.414 211.571C600.541 210.497 595.759 210.952 595.362 212.276C594.162 216.239 594.283 225.73 596.341 228.824C603.606 229.799 606.217 217.462 601.414 211.571ZM613.192 229.771C616.179 230.162 618.307 225.139 618.229 222.734C618.158 220.536 615.398 216.395 612.958 217.22C607.927 218.921 607.367 229.009 613.192 229.771ZM632.427 232.382L632.725 222.087C632.767 220.728 630.412 218.501 629.184 218.053C628.198 217.69 624.728 218.885 624.629 219.931C624.317 223.218 624.345 230.582 624.672 233.869C624.778 234.922 628.056 236.06 629.099 235.911C630.142 235.761 632.398 233.47 632.427 232.382ZM391.964 245.864L392.255 229.564C390.921 228.533 385.543 228.874 385.394 230.432L384.507 244.043C384.422 245.402 386.082 247.913 387.38 248.276C388.416 248.561 391.942 246.938 391.964 245.864ZM408.623 246.327L408.708 235.541C408.723 234.04 406.466 231.443 405.132 231.471C403.799 231.5 401.266 234.104 401.315 235.619L401.705 247.685C401.748 249.087 405.338 251.421 406.36 250.588C407.176 249.927 408.616 247.429 408.623 246.334V246.327ZM330.214 248.61L330.612 232.972L307.127 232.944L305.743 244.477C305.551 246.085 306.304 249.407 307.418 250.353C308.347 251.143 311.185 251.734 312.59 251.499L330.214 248.61ZM362.199 249.272C364.839 245.323 363.867 237.305 362.554 235.327L345.966 233.52C344.114 236.53 342.851 246.099 345.746 249.806C348.399 253.199 359.638 253.114 362.199 249.272ZM425.645 234.545C425.276 232.702 418.805 232.816 418.521 234.658C417.024 244.292 419.174 255.312 422.721 251.862C426.645 248.055 426.78 240.258 425.645 234.545ZM446.966 246.526L446.235 235.861C446.121 234.153 439.941 233.762 439.303 235.462C436.018 244.256 440.027 253.626 444.007 251.627C445.121 251.065 447.058 247.885 446.966 246.526ZM685.705 248.93L685.776 235.633C682.498 234.466 680 234.246 677.077 234.886L677.162 249.087C677.169 250.631 680.575 253.47 681.98 253.064C683.15 252.723 685.697 250.325 685.705 248.93ZM668.392 250.154C669.393 246.511 669.549 241.304 669.3 238.5C669.144 236.715 664.738 234.758 663.128 235.341C660.311 236.359 659.339 243.865 661.482 249.137C662.212 250.93 667.846 252.168 668.392 250.154ZM560.141 265.031C561.049 259.674 561.901 246.554 554.479 245.764C553.11 245.622 550.336 247.821 550.414 249.187L551.222 262.939C551.3 264.312 553.521 266.625 554.805 267.023C556.09 267.421 559.921 266.319 560.141 265.031ZM483.577 263.829L485.918 249.606C478.589 249.08 472.047 249.258 467.215 250.866C469.103 254.935 468.038 258.229 467.584 260.833C469.592 265.579 478.844 267.315 483.577 263.829ZM517.307 269.734L516.839 251.072C509.375 250.225 503.848 251.029 496.802 253.519L498.803 270.182C504.905 271.448 512.071 271.847 517.307 269.727V269.734ZM593.453 272.651C600.825 273.504 602.67 267.991 602.79 262.783C602.826 261.111 601.215 257.575 599.839 257.119C598.462 256.664 595.794 257.212 594.652 258.101C593.701 258.841 593.751 261.63 593.708 263.16L593.453 272.651ZM617.967 263.181C618.364 261.324 616.009 257.055 614.412 257.141C607.792 257.489 609.155 268.51 610.112 272.459C612.518 272.43 616.129 271.768 616.413 270.424L617.967 263.181ZM632.242 266.838C632.356 264.448 631.76 261.388 630.951 260.008C630.192 258.713 625.75 259.311 625.147 260.705C623.6 264.27 623.189 271.42 625.168 273.832C628.822 275.788 632.044 271.071 632.249 266.838H632.242ZM394.603 269.392C393.695 268.446 390.495 268.119 389.771 269.214C387.813 272.188 386.252 278.044 387.834 281.416C388.48 282.789 392.162 283.28 393.248 282.22C395.745 279.801 397.044 271.953 394.596 269.392H394.603ZM411.66 273.554C411.632 271.961 410.042 269.108 409.014 268.183C407.992 267.258 403.302 268.802 403.394 270.175C403.579 272.9 404.536 278.371 405.246 281.124C405.665 282.746 411.809 282.327 411.781 280.676L411.66 273.561V273.554ZM666.987 283.045L667.598 270.908C667.732 268.282 659.282 266.817 658.92 269.833C658.367 274.436 658.303 281.629 658.672 285.429C658.821 286.98 663.319 288.595 664.398 287.62C665.256 286.844 666.924 284.319 666.987 283.052V283.045ZM682.923 271.776C682.029 269.513 675.566 267.051 674.515 269.307L673.813 281.665C673.714 283.387 676.509 286.275 677.914 285.791C682.207 284.319 685.584 278.513 682.93 271.776H682.923ZM423.729 269.741L417.918 269.976L418.301 282.576C420.479 282.611 423.126 282.312 423.722 281.231C426.872 275.518 424.964 269.698 423.736 269.748L423.729 269.741ZM441.346 283.778C446.788 283.543 447.377 277.019 445.972 273.021C445.376 271.32 442.006 269.165 440.516 269.819C436.11 271.754 438.21 284.845 441.339 283.778H441.346ZM313.846 300.853L328.959 298.406C329.782 292.223 329.902 285.194 328.689 279.075L307.637 278.776C304.679 282.263 303.934 301.6 307.843 301.614C309.135 301.614 311.639 301.216 313.846 300.86V300.853ZM363.356 280.434C356.055 280.925 351.202 281.153 343.759 280.69C343.142 283.472 343.156 290.758 344.447 294.279C349.506 296.656 357.105 297.509 362.107 295.154C366.265 293.191 365.995 282.668 363.356 280.441V280.434ZM486.869 307.441C487.266 302.44 487.039 296.2 486.493 291.142L467.4 293.44C466.832 298.996 466.619 305.399 468.124 310.572C474.963 311.219 480.888 310.031 486.876 307.441H486.869ZM555.685 291.604C554.138 290.878 549.2 291.554 548.775 293.169C547.888 296.527 548.399 303.45 549.626 306.46C550.293 308.096 555.891 308.523 556.842 307.036C558.793 303.998 559.176 293.233 555.685 291.604ZM515.974 312.379C517.13 308.38 517.371 302.66 516.584 298.271C516.229 296.286 511.028 296.492 508.999 296.492L497.441 296.463C496.589 300.768 495.099 309.597 499.094 311.888C503.323 314.307 510.631 313.603 515.981 312.386L515.974 312.379ZM602.315 296.705C601.421 295.773 598.505 295.688 597.682 296.684C594.907 300.014 595.22 312.244 597.66 314.705C604.45 315.033 605.408 299.935 602.322 296.705H602.315ZM612.475 308.75C616.37 309.747 618.222 305.222 618.158 303.016C618.087 300.661 616.569 296.307 613.781 297.054C609.566 298.185 609.268 307.932 612.475 308.75ZM396.398 314.357L395.965 301.38C395.916 299.836 390.715 299.352 390.048 300.654C389.488 301.735 388.806 303.92 388.735 305.193L388.189 314.833C388.09 316.626 391.119 319.095 392.808 318.932C394.135 318.803 396.455 315.972 396.398 314.357ZM631.469 312.841C634.768 309.177 632.356 301.074 628.815 299.964C627.56 299.573 624.147 301.97 624.402 303.251L625.58 309.206L626.609 314.428C626.815 315.46 630.688 313.702 631.462 312.841H631.469ZM411.951 300.789C410.652 300.206 406.913 301.785 406.544 303.215C405.494 307.328 404.969 316.84 409.567 318.227C415.044 319.323 415.569 302.433 411.951 300.789ZM443.879 318.69L443.276 302.98C443.219 301.458 438.792 300.227 437.728 301.06C436.663 301.892 435.663 304.581 435.826 306.118L437.487 322.112C438.622 323.698 443.972 320.909 443.886 318.697L443.879 318.69ZM427.454 306.893C427.135 304.432 424.41 301.6 422.771 301.935C420.728 302.347 418.968 305.271 418.989 307.705C419.011 310.138 420.415 314.777 422.459 315.218C425.41 315.858 428.036 311.383 427.454 306.893ZM663.355 313.226C662.709 311.746 657.317 311.554 656.735 313.076C655.756 315.63 656.707 321.749 657.955 324.438C658.551 325.719 661.815 327 663.149 326.722C667.222 325.883 665.185 317.437 663.355 313.226ZM679.603 312.884C678.56 311.675 674.459 311.888 672.522 312.749C672.933 316.456 673.359 321.35 673.948 325.1C674.217 326.843 679.149 328.607 680.632 327.597C684.108 325.228 682.718 316.505 679.603 312.884Z" fill="#F77646"/>
<g clip-path="url(#clip1_1_1523)">
<path d="M89.7706 40.866L90.7338 39.5789C91.2592 38.8831 91.5219 38.0308 91.5044 37.1612C91.5044 36.6046 91.5044 36.0828 91.5394 35.5262C91.5919 34.6217 91.3292 33.6998 90.7688 32.9867L89.8406 31.7691C89.3327 31.1082 89.0701 30.308 89.0701 29.4731C89.0525 26.4988 92.3625 24.5681 94.9019 26.1509C95.3748 26.4466 95.8301 26.7771 96.2855 27.1424C96.4431 27.2641 96.5832 27.4033 96.7058 27.5424C97.4764 28.3599 98.1944 29.1601 98.9124 30.0471C99.6305 30.9342 100.751 31.4734 101.925 31.4734H108.457C111.242 31.4734 113.116 28.6209 111.995 26.0814L105.112 10.6358C104.026 8.21804 105.673 5.46983 108.335 5.26111L111.574 5.0002C113.448 4.84366 114.884 6.87872 116.075 8.65288C116.776 9.6965 117.967 10.3227 119.228 10.3401H119.683C121.785 10.3749 123.483 12.062 123.501 14.1493V15.1755C123.501 15.6973 123.116 16.1322 122.59 16.167C121.855 16.2191 121.434 17.0366 121.82 17.6802L122.398 18.6021C123.098 19.7327 124.342 20.411 125.673 20.411H126.636C128.755 20.411 130.489 22.133 130.489 24.2376V25.1595C130.489 25.6813 130.086 26.1162 129.543 26.1509L128.877 26.1857C128.124 26.2205 127.687 27.0554 128.089 27.699L129.333 29.6993C130.033 30.8125 131.259 31.5082 132.59 31.5082C137.091 31.5082 141.434 31.3517 145.9 31.6647C148.037 31.8213 149.018 34.726 148.982 36.535C148.93 38.4483 148.089 40.953 145.988 41.2835C143.483 41.6835 140.786 41.527 138.212 41.5444H132.555C131.207 41.5444 129.963 42.2401 129.263 43.3881L128.037 45.371C127.634 46.0146 128.089 46.8495 128.842 46.8668L129.525 46.9016C130.051 46.919 130.471 47.3539 130.471 47.8931V48.8323C130.471 50.937 128.772 52.6416 126.653 52.6763H125.532C124.201 52.7111 122.975 53.4069 122.275 54.5375L121.732 55.4246C121.347 56.0507 121.767 56.8682 122.52 56.9204C123.046 56.9552 123.448 57.39 123.448 57.8945V58.8337C123.466 60.9384 121.767 62.6603 119.648 62.6951H119.158C117.932 62.7125 116.776 63.3039 116.058 64.3127L115.06 65.7042C114.061 67.0957 111.837 68.1394 110.121 68.035L108.335 67.9132C105.655 67.7393 103.974 64.9737 105.042 62.5386L111.942 46.919C113.063 44.3969 111.207 41.5618 108.422 41.5444H106.356L101.942 41.6139C100.716 41.6313 99.5604 42.2575 98.8424 43.249C97.5464 45.0753 96.1979 46.432 94.4991 47.3017C92.0298 48.554 89.035 46.6755 89 43.8577V43.2142C89 42.3793 89.2627 41.5444 89.7706 40.8834V40.866Z" fill="#6966FF"/>
</g>
</g>
<defs>
<clipPath id="clip0_1_1523">
<rect width="501" height="227" fill="white" transform="translate(-27)"/>
</clipPath>
<clipPath id="clip1_1_1523">
<rect width="60" height="63" fill="white" transform="translate(89 5)"/>
</clipPath>
</defs>
</svg>
