<svg width="617" height="616" viewBox="0 0 617 616" fill="none" xmlns="http://www.w3.org/2000/svg">
<path d="M177.85 363.908C177.525 358.263 177.367 352.61 177.401 346.957C177.387 349.155 177.375 351.358 177.356 353.557C177.562 330.801 181.08 308.355 186.99 286.406L185.284 292.69C188.855 279.56 193.156 266.64 197.771 253.842C200.173 247.171 202.662 240.532 205.174 233.901C207.541 227.661 209.733 221.383 213.056 215.573L209.82 221.224C214.164 213.816 219.645 207.186 225.662 201.08L221.028 205.78C230.69 196.106 241.66 187.74 253.449 180.834L247.548 184.265C252.501 181.398 257.586 179.101 263.116 177.599L256.518 179.347C261.844 177.985 267.263 177.338 272.758 177.332L266.158 177.287C271.963 177.361 277.678 178.152 283.291 179.628L277.007 177.922C282.613 179.468 287.966 181.658 293.03 184.512C291.144 183.433 289.265 182.356 287.379 181.277C292.158 184.047 296.549 187.346 300.502 191.211C298.938 189.668 297.372 188.119 295.802 186.578C299.883 190.678 303.389 195.237 306.352 200.199C305.205 198.232 304.064 196.262 302.921 194.299C306.26 200.054 308.783 206.171 310.558 212.581C309.976 210.379 309.389 208.179 308.809 205.983C310.666 213.019 311.572 220.212 311.543 227.485C311.557 225.287 311.568 223.084 311.587 220.885C311.487 227.587 310.598 234.201 308.873 240.677L310.579 234.392C308.162 243.084 304.335 251.251 299.873 259.07C300.953 257.184 302.029 255.305 303.109 253.419C291.126 274.187 275.315 292.617 265.505 314.67C254.427 339.556 253.667 367.832 264.634 392.92C275.137 416.951 295.517 438.174 320.718 446.643C346.36 455.259 375.291 452.961 398.897 439.437C412.527 431.627 424.964 421.838 433.661 408.506C438.267 401.448 442.17 394.008 444.761 385.991C447.673 376.973 449.687 367.695 452.169 358.555L450.463 364.839C452.252 358.373 454.39 352.081 457.667 346.205L454.431 351.856C456.422 348.416 458.715 345.219 461.446 342.324L456.812 347.024C458.913 344.898 461.18 343.041 463.721 341.461L457.821 344.892C460.156 343.538 462.575 342.505 465.172 341.784L458.574 343.533C460.976 342.947 463.38 342.661 465.854 342.677L459.254 342.633C461.662 342.712 464.003 343.071 466.336 343.677L460.051 341.972C462.879 342.783 465.547 343.931 468.124 345.348C466.238 344.269 464.359 343.192 462.473 342.113C466.237 344.281 469.628 346.954 472.738 349.981C471.174 348.438 469.607 346.889 468.038 345.347C472.085 349.395 475.541 353.938 478.432 358.875C477.286 356.907 476.145 354.937 475.001 352.974C479.84 361.475 483.181 370.719 487.018 379.683C491.648 390.499 497.142 401.422 504.852 410.38C509.168 415.388 514.82 419.039 521.48 419.952C527.744 420.81 535.688 418.987 540.584 414.815C545.479 410.643 549.536 404.817 550.156 398.187C550.776 391.557 549.503 384.29 545.019 379.083C542.329 375.961 539.989 372.621 537.876 369.088C539.023 371.056 540.163 373.026 541.307 374.989C534.69 363.601 530.734 350.981 525.001 339.171C518.739 326.264 510.709 314.88 499.472 305.817C487.532 296.181 473.018 291.445 457.752 292.176C441.205 292.966 425.489 303.868 416.304 317.189C411.55 324.082 407.685 331.671 405.122 339.64C402.321 348.349 400.348 357.298 397.982 366.127L399.688 359.842C397.778 366.86 395.467 373.708 391.889 380.07L395.125 374.419C392.127 379.61 388.483 384.335 384.293 388.612L388.927 383.912C384.296 388.531 379.13 392.509 373.5 395.84L379.401 392.409C373.274 395.958 366.752 398.673 359.91 400.511L366.508 398.762C360.184 400.391 353.733 401.222 347.203 401.185L353.803 401.229C348.326 401.13 342.919 400.42 337.616 399.029L343.901 400.735C338.436 399.235 333.243 397.046 328.323 394.23L333.974 397.465C328.893 394.483 324.238 390.902 320.005 386.804L324.705 391.437C319.766 386.553 315.535 381.07 312.04 375.074C313.186 377.042 314.327 379.012 315.471 380.974C312.16 375.171 309.606 369.023 307.862 362.571C308.444 364.772 309.031 366.972 309.611 369.168C308.077 363.222 307.272 357.158 307.284 351.012C307.271 353.21 307.259 355.412 307.24 357.612C307.321 351.854 308.157 346.218 309.629 340.655L307.923 346.939C310.281 338.389 314.013 330.359 318.392 322.666L315.157 328.317C322.834 315.021 332.228 302.838 340.318 289.813C350.547 273.353 359.149 255.994 361.48 236.489C363.842 216.733 360.847 195.132 351.43 177.447C348.619 172.171 345.596 166.885 341.966 162.114C338.384 157.415 334.114 153.227 329.792 149.226C322.82 142.773 314.183 137.695 305.476 133.999C296.745 130.289 287.076 127.745 277.597 127.033C271.879 126.604 266.033 126.548 260.314 127.063C254.594 127.578 248.882 129.113 243.237 130.68C234.029 133.235 225.853 138.252 217.817 143.297C211.206 147.451 204.883 152.079 198.928 157.137C184.204 169.636 170.791 184.471 162.859 202.28C159.397 210.058 156.669 218.248 153.714 226.231C150.798 234.101 147.963 242.004 145.314 249.972C139.646 266.996 134.684 284.377 131.334 302.014C127.883 320.189 126.729 338.471 126.869 356.952C126.901 361.371 127.061 365.792 127.317 370.205C127.682 376.537 132.27 383.605 137.198 387.342C142.127 391.079 149.597 393.371 155.726 392.325C162.313 391.199 168.948 388.107 172.864 382.443C176.782 376.785 178.245 370.815 177.847 363.915L177.85 363.908Z" fill="#98FB82"/>
</svg>
