<svg width="333" height="161" viewBox="0 0 333 161" fill="none" xmlns="http://www.w3.org/2000/svg">
<path d="M-40.6148 250.592C-41.8822 245.081 -42.9854 239.534 -43.901 233.957C-43.5459 236.125 -43.1879 238.299 -42.8376 240.471C-46.452 218.002 -46.7487 195.284 -44.6044 172.654L-45.2318 179.136C-43.9144 165.592 -41.8414 152.135 -39.4391 138.744C-38.1895 131.764 -36.8494 124.801 -35.4859 117.843C-34.1992 111.295 -33.0911 104.738 -30.7898 98.4533L-33.0316 104.567C-29.9919 96.5349 -25.7011 89.079 -20.7939 82.0506L-24.5737 87.4613C-16.6709 76.3039 -7.2603 66.216 3.20317 57.4303L-2.03821 61.8025C2.36345 58.1455 6.99085 55.0281 12.191 52.6195L5.98003 55.45C11.0014 53.214 16.2352 51.6662 21.6517 50.7385L15.1378 51.8018C20.8722 50.9013 26.6392 50.722 32.4207 51.2351L25.9392 50.6077C31.7252 51.1915 37.3691 52.4526 42.8406 54.4168C40.8001 53.669 38.7674 52.9229 36.7268 52.175C41.9027 54.1047 46.7851 56.6198 51.3307 59.7677C49.5297 58.5084 47.7258 57.2442 45.9201 55.9879C50.6311 59.3458 54.852 63.2525 58.6049 67.6473C57.1449 65.8995 55.6897 64.1488 54.2327 62.4059C58.4906 67.5187 62.0041 73.1264 64.8287 79.1473C63.8858 77.0744 62.938 75.0045 61.9981 72.9364C65.0091 79.5617 67.1078 86.5002 68.2996 93.6751C67.9445 91.5063 67.5865 89.3328 67.2362 87.1611C68.2621 93.7855 68.4943 100.455 67.8806 107.128L68.508 100.646C67.5837 109.62 65.1807 118.314 62.0935 126.77C62.8414 124.729 63.5875 122.697 64.3353 120.656C56.0059 143.14 43.5103 163.961 37.5389 187.347C30.7924 213.74 34.7869 241.742 49.8062 264.635C64.1921 286.563 87.8426 304.068 114.107 308.188C140.831 312.381 168.967 305.263 189.97 287.971C202.097 277.985 212.716 266.249 219.053 251.646C222.41 243.916 225.009 235.927 226.219 227.589C227.577 218.21 228.006 208.726 228.919 199.298L228.292 205.78C228.971 199.105 230.023 192.544 232.268 186.201L230.026 192.315C231.412 188.59 233.136 185.054 235.343 181.742L231.563 187.152C233.277 184.704 235.2 182.493 237.441 180.509L232.199 184.881C234.274 183.155 236.485 181.731 238.925 180.584L232.714 183.415C234.984 182.435 237.306 181.75 239.747 181.35L233.233 182.414C235.621 182.088 237.988 182.049 240.39 182.255L233.908 181.628C236.833 181.954 239.655 182.638 242.433 183.603C240.393 182.855 238.36 182.109 236.32 181.361C240.394 182.868 244.185 184.933 247.759 187.396C245.958 186.137 244.154 184.873 242.348 183.616C247.017 186.928 251.186 190.827 254.864 195.208C253.404 193.461 251.949 191.71 250.492 189.967C256.688 197.535 261.532 206.088 266.819 214.282C273.198 224.168 280.446 234.015 289.55 241.552C294.644 245.765 300.829 248.416 307.548 248.199C313.866 247.994 321.392 244.864 325.519 239.93C329.645 234.997 332.667 228.572 332.166 221.932C331.665 215.292 329.191 208.342 323.897 203.961C320.722 201.335 317.855 198.434 315.179 195.306C316.639 197.053 318.095 198.804 319.552 200.547C311.118 190.43 305.101 178.653 297.468 167.973C289.13 156.299 279.304 146.423 266.705 139.373C253.318 131.877 238.216 129.642 223.288 132.924C207.109 136.478 193.444 149.862 186.624 164.535C183.093 172.128 180.556 180.258 179.366 188.543C178.066 197.599 177.622 206.752 176.771 215.853L177.398 209.371C176.693 216.61 175.563 223.748 173.103 230.621L175.345 224.507C173.261 230.127 170.461 235.396 167.047 240.316L170.827 234.905C167.037 240.236 162.611 245.023 157.62 249.252L162.861 244.879C157.417 249.406 151.443 253.177 145.006 256.136L151.217 253.306C145.256 255.972 139.035 257.873 132.592 258.932L139.106 257.869C133.689 258.69 128.24 258.896 122.779 258.415L129.261 259.043C123.622 258.48 118.136 257.193 112.813 255.243L118.927 257.484C113.418 255.397 108.228 252.647 103.367 249.317L108.777 253.097C103.09 249.11 97.9985 244.415 93.5469 239.09C95.0069 240.837 96.4621 242.588 97.9191 244.331C93.6814 239.165 90.1325 233.533 87.3312 227.464C88.2741 229.537 89.2217 231.607 90.1617 233.675C87.6524 228.071 85.8415 222.227 84.8226 216.166C85.1777 218.335 85.5357 220.509 85.886 222.68C85 216.99 84.8784 211.294 85.3965 205.563L84.769 212.044C85.6596 203.219 87.9911 194.677 91.0181 186.359L88.7763 192.473C94.1147 178.077 101.332 164.491 107.122 150.293C114.446 132.35 120.014 113.795 119.04 94.1753C118.054 74.303 111.478 53.5099 99.228 37.655C95.5719 32.9254 91.7049 28.2216 87.3257 24.1271C83.0061 20.0954 78.0941 16.6836 73.1629 13.4642C65.2068 8.27185 55.8405 4.71483 46.6369 2.5321C37.4069 0.33924 27.4486 -0.546982 17.9844 0.340625C12.2754 0.877715 6.50268 1.80228 0.95095 3.26939C-4.6008 4.73652 -9.97524 7.20796 -15.2765 9.70017C-23.9259 13.7636 -31.1445 20.0809 -38.2203 26.4019C-44.0409 31.6061 -49.4976 37.2295 -54.5198 43.2144C-66.9382 58.0069 -77.6732 74.8811 -82.505 93.7686C-84.6137 102.017 -85.9296 110.548 -87.5032 118.915C-89.0579 127.162 -90.5268 135.429 -91.802 143.728C-94.5333 161.461 -96.5097 179.428 -96.8536 197.377C-97.2073 215.874 -95.2782 234.091 -92.0398 252.286C-91.2673 256.637 -90.3672 260.969 -89.3754 265.276C-87.9533 271.457 -82.2445 277.656 -76.7591 280.513C-71.2737 283.371 -63.5249 284.377 -57.6577 282.317C-51.3532 280.103 -45.3312 275.941 -42.4207 269.701C-39.5072 263.465 -39.0664 257.335 -40.6166 250.599L-40.6148 250.592Z" fill="#F77646"/>
</svg>
