<svg width="333" height="161" viewBox="0 0 333 161" fill="none" xmlns="http://www.w3.org/2000/svg">
<path d="M-40.6143 250.592C-41.8817 245.081 -42.9849 239.534 -43.9005 233.957C-43.5455 236.125 -43.1874 238.299 -42.8372 240.471C-46.4515 218.002 -46.7482 195.284 -44.6039 172.654L-45.2313 179.136C-43.9139 165.592 -41.8409 152.135 -39.4386 138.744C-38.189 131.764 -36.8489 124.801 -35.4854 117.843C-34.1987 111.295 -33.0906 104.738 -30.7894 98.4533L-33.0312 104.567C-29.9914 96.5349 -25.7006 89.079 -20.7934 82.0506L-24.5732 87.4613C-16.6704 76.3039 -7.25982 66.216 3.20366 57.4303L-2.03772 61.8025C2.36393 58.1455 6.99134 55.0281 12.1915 52.6195L5.98051 55.45C11.0019 53.214 16.2357 51.6662 21.6522 50.7385L15.1383 51.8018C20.8727 50.9013 26.6397 50.722 32.4212 51.2351L25.9397 50.6077C31.7257 51.1915 37.3696 52.4526 42.8411 54.4168C40.8006 53.669 38.7679 52.9229 36.7273 52.175C41.9032 54.1047 46.7856 56.6198 51.3312 59.7677C49.5302 58.5084 47.7263 57.2442 45.9205 55.9879C50.6316 59.3458 54.8525 63.2525 58.6054 67.6473C57.1454 65.8995 55.6902 64.1488 54.2332 62.4059C58.4911 67.5187 62.0046 73.1264 64.8291 79.1473C63.8862 77.0744 62.9385 75.0045 61.9986 72.9364C65.0096 79.5617 67.1083 86.5002 68.3 93.6751C67.945 91.5063 67.5869 89.3328 67.2367 87.1611C68.2626 93.7855 68.4948 100.455 67.8811 107.128L68.5085 100.646C67.5842 109.62 65.1812 118.314 62.094 126.77C62.8419 124.729 63.588 122.697 64.3358 120.656C56.0063 143.14 43.5108 163.961 37.5394 187.347C30.7929 213.74 34.7874 241.742 49.8067 264.635C64.1926 286.563 87.8431 304.068 114.108 308.188C140.832 312.381 168.968 305.263 189.97 287.971C202.098 277.985 212.716 266.249 219.054 251.646C222.41 243.916 225.01 235.927 226.22 227.589C227.577 218.21 228.007 208.726 228.92 199.298L228.292 205.78C228.972 199.105 230.023 192.544 232.268 186.201L230.026 192.315C231.412 188.59 233.137 185.054 235.343 181.742L231.563 187.152C233.278 184.704 235.201 182.493 237.441 180.509L232.2 184.881C234.275 183.155 236.486 181.731 238.925 180.584L232.714 183.415C234.984 182.435 237.306 181.75 239.748 181.35L233.234 182.414C235.621 182.088 237.989 182.049 240.39 182.255L233.909 181.628C236.833 181.954 239.655 182.638 242.434 183.603C240.393 182.855 238.361 182.109 236.32 181.361C240.394 182.868 244.186 184.933 247.759 187.396C245.958 186.137 244.154 184.873 242.349 183.616C247.017 186.928 251.186 190.827 254.864 195.208C253.404 193.461 251.949 191.71 250.492 189.967C256.689 197.535 261.533 206.088 266.82 214.282C273.198 224.168 280.447 234.015 289.55 241.552C294.645 245.765 300.829 248.416 307.548 248.199C313.867 247.994 321.393 244.864 325.519 239.93C329.646 234.997 332.668 228.572 332.167 221.932C331.665 215.292 329.192 208.342 323.898 203.961C320.722 201.335 317.855 198.434 315.18 195.306C316.64 197.053 318.095 198.804 319.552 200.547C311.118 190.43 305.101 178.653 297.468 167.973C289.131 156.299 279.305 146.423 266.706 139.373C253.319 131.877 238.216 129.642 223.289 132.924C207.11 136.478 193.445 149.862 186.624 164.535C183.094 172.128 180.557 180.258 179.367 188.543C178.067 197.599 177.622 206.752 176.771 215.853L177.399 209.371C176.693 216.61 175.563 223.748 173.104 230.621L175.346 224.507C173.261 230.127 170.461 235.396 167.048 240.316L170.827 234.905C167.037 240.236 162.612 245.023 157.621 249.252L162.862 244.879C157.417 249.406 151.443 253.177 145.006 256.136L151.217 253.306C145.257 255.972 139.036 257.873 132.593 258.932L139.107 257.869C133.69 258.69 128.241 258.896 122.78 258.415L129.261 259.043C123.622 258.48 118.136 257.193 112.813 255.243L118.927 257.484C113.418 255.397 108.228 252.647 103.367 249.317L108.778 253.097C103.09 249.11 97.9989 244.415 93.5474 239.09C95.0074 240.837 96.4626 242.588 97.9196 244.331C93.6819 239.165 90.133 233.533 87.3316 227.464C88.2746 229.537 89.2222 231.607 90.1621 233.675C87.6529 228.071 85.842 222.227 84.8231 216.166C85.1782 218.335 85.5362 220.509 85.8865 222.68C85.0005 216.99 84.8789 211.294 85.397 205.563L84.7695 212.044C85.6601 203.219 87.9916 194.677 91.0186 186.359L88.7768 192.473C94.1152 178.077 101.332 164.491 107.122 150.293C114.446 132.35 120.014 113.795 119.041 94.1753C118.055 74.303 111.479 53.5099 99.2285 37.655C95.5724 32.9254 91.7054 28.2216 87.3262 24.1271C83.0066 20.0954 78.0946 16.6836 73.1634 13.4642C65.2073 8.27185 55.841 4.71483 46.6374 2.5321C37.4074 0.33924 27.449 -0.546982 17.9849 0.340625C12.2759 0.877715 6.50317 1.80228 0.951438 3.26939C-4.60031 4.73652 -9.97475 7.20796 -15.276 9.70017C-23.9254 13.7636 -31.144 20.0809 -38.2198 26.4019C-44.0404 31.6061 -49.4971 37.2295 -54.5193 43.2144C-66.9377 58.0069 -77.6728 74.8811 -82.5045 93.7686C-84.6132 102.017 -85.9291 110.548 -87.5027 118.915C-89.0574 127.162 -90.5264 135.429 -91.8016 143.728C-94.5328 161.461 -96.5092 179.428 -96.8531 197.377C-97.2068 215.874 -95.2777 234.091 -92.0393 252.286C-91.2669 256.637 -90.3667 260.969 -89.375 265.276C-87.9528 271.457 -82.244 277.656 -76.7586 280.513C-71.2732 283.371 -63.5244 284.377 -57.6572 282.317C-51.3527 280.103 -45.3308 275.941 -42.4202 269.701C-39.5067 263.465 -39.0659 257.335 -40.6161 250.599L-40.6143 250.592Z" fill="#F7CE46"/>
</svg>
