<svg width="452" height="313" viewBox="0 0 452 313" fill="none" xmlns="http://www.w3.org/2000/svg">
<path d="M65.7805 269.217C63.8535 263.607 62.0938 257.94 60.5264 252.221C61.1348 254.445 61.7469 256.673 62.3507 258.901C56.1139 235.853 53.3115 212.182 53.0657 188.335L53.1223 195.167C53.0107 180.891 53.697 166.622 54.7342 152.386C55.2721 144.966 55.9063 137.554 56.5655 130.144C57.1895 123.17 57.6261 116.207 59.3377 109.397L57.6694 116.022C59.9598 107.308 63.6187 99.0578 67.9676 91.1859L64.6175 97.2462C71.639 84.7373 80.3511 73.1789 90.3046 62.8637L85.3155 68.0008C89.5069 63.7021 93.9931 59.9416 99.1547 56.8578L92.9847 60.4928C97.9787 57.6087 103.27 55.4194 108.82 53.8571L102.14 55.6813C108.024 54.1125 114.022 53.2926 120.111 53.1935L113.279 53.2501C119.38 53.2244 125.407 53.9209 131.332 55.37C129.121 54.8136 126.918 54.2582 124.707 53.7018C130.319 55.1473 135.689 57.2357 140.778 60.0215C138.76 58.9051 136.739 57.7841 134.717 56.6714C140.001 59.6581 144.834 63.2711 149.232 67.4449C147.517 65.7815 145.806 64.1144 144.095 62.4557C149.099 67.3232 153.38 72.7888 156.988 78.7612C155.777 76.7017 154.561 74.646 153.353 72.5912C157.222 79.1737 160.173 86.183 162.204 93.5386C161.595 91.3147 160.983 89.0861 160.379 86.8586C162.177 93.6579 163.151 100.591 163.243 107.621L163.186 100.79C163.206 110.254 161.653 119.589 159.36 128.751C159.916 126.54 160.472 124.337 161.028 122.126C154.804 146.5 144.051 169.595 140.387 194.652C136.243 222.93 143.484 251.71 161.667 273.948C179.084 295.249 205.682 310.918 233.538 312.336C261.882 313.778 290.458 303.264 310.475 282.917C322.033 271.167 331.825 257.756 336.835 241.824C339.489 233.39 341.324 224.769 341.672 215.936C342.059 206.001 341.467 196.058 341.385 186.121L341.441 192.953C341.418 185.914 341.796 178.953 343.442 172.088L341.773 178.713C342.811 174.675 344.222 170.796 346.161 167.098L342.811 173.158C344.331 170.416 346.095 167.897 348.215 165.581L343.225 170.718C345.201 168.69 347.352 166.961 349.771 165.497L343.601 169.132C345.862 167.861 348.21 166.891 350.713 166.206L344.033 168.03C346.489 167.428 348.955 167.128 351.483 167.08L344.652 167.137C347.739 167.156 350.758 167.559 353.763 168.262C351.552 167.705 349.349 167.15 347.138 166.593C351.555 167.718 355.737 169.457 359.736 171.635C357.719 170.519 355.698 169.398 353.676 168.285C358.91 171.228 363.689 174.838 368.007 179.007C366.292 177.344 364.581 175.677 362.87 174.018C370.166 181.235 376.159 189.627 382.574 197.596C390.314 207.212 398.958 216.691 409.284 223.556C415.062 227.392 421.806 229.481 428.792 228.517C435.363 227.609 442.872 223.518 446.636 217.917C450.4 212.316 452.849 205.282 451.597 198.408C450.345 191.535 447.002 184.555 440.997 180.565C437.396 178.172 434.086 175.46 430.951 172.49C432.666 174.153 434.377 175.82 436.088 177.479C426.178 167.849 418.608 156.221 409.471 145.914C399.491 134.648 388.155 125.422 374.236 119.448C359.445 113.096 343.442 112.422 328.226 117.484C311.735 122.967 298.946 138.432 293.439 154.491C290.589 162.8 288.834 171.562 288.501 180.337C288.138 189.929 288.679 199.527 288.79 209.117L288.733 202.285C288.791 209.915 288.396 217.488 286.583 224.928L288.252 218.303C286.694 224.396 284.35 230.201 281.328 235.709L284.678 229.648C281.309 235.626 277.216 241.107 272.473 246.067L277.462 240.929C272.277 246.25 266.458 250.84 260.066 254.634L266.236 250.999C260.31 254.435 254.027 257.102 247.421 258.913L254.101 257.089C248.539 258.54 242.876 259.354 237.125 259.451L243.957 259.395C238.012 259.426 232.146 258.686 226.378 257.234L233.003 258.902C227.026 257.329 221.309 255.03 215.872 252.088L221.932 255.438C215.56 251.903 209.732 247.562 204.503 242.494C206.218 244.158 207.929 245.825 209.64 247.483C204.652 242.559 200.331 237.071 196.742 231.046C197.953 233.106 199.169 235.162 200.377 237.216C197.144 231.644 194.613 225.746 192.885 219.534C193.493 221.757 194.106 223.986 194.709 226.214C193.161 220.374 192.409 214.443 192.32 208.407L192.377 215.238C192.338 205.932 193.833 196.764 196.079 187.752L194.41 194.377C198.401 178.771 204.441 163.804 208.924 148.354C214.596 128.829 218.37 108.857 215.201 88.4927C211.992 67.866 202.849 46.8921 188.327 31.6932C183.994 27.1595 179.443 22.6758 174.424 18.8842C169.475 15.1515 163.975 12.1305 158.476 9.31253C149.605 4.76788 139.442 2.08424 129.6 0.816685C119.728 -0.458537 109.24 -0.290482 99.4629 1.67416C93.565 2.86101 87.6432 4.45916 82.0115 6.59915C76.3798 8.73915 71.0433 11.9076 65.7854 15.0897C57.2065 20.2786 50.3678 27.6622 43.6784 35.034C38.1763 41.1027 33.0998 47.569 28.5163 54.3648C17.1821 71.162 7.83274 89.9466 4.86381 110.184C3.5687 119.022 3.13184 128.068 2.40799 136.97C1.69077 145.746 1.06521 154.533 0.645294 163.332C-0.258589 182.135 -0.349215 201.098 1.26154 219.864C2.9221 239.202 6.93386 257.998 12.3094 276.628C13.5929 281.084 15.0074 285.504 16.5149 289.89C18.677 296.183 25.3138 302.024 31.3508 304.403C37.3878 306.783 45.5834 306.983 51.4793 304.19C57.8143 301.188 63.6411 296.185 65.9932 289.354C68.3489 282.528 68.1361 276.083 65.7795 269.225L65.7805 269.217Z" fill="#F7CE46"/>
</svg>
