<svg width="335" height="150" viewBox="0 0 335 150" fill="none" xmlns="http://www.w3.org/2000/svg">
<path d="M-51.2949 269.217C-53.2219 263.607 -54.9816 257.941 -56.5491 252.221C-55.9406 254.445 -55.3286 256.673 -54.7248 258.901C-60.9616 235.854 -63.7639 212.182 -64.0097 188.335L-63.9532 195.167C-64.0648 180.891 -63.3785 166.622 -62.3412 152.386C-61.8034 144.967 -61.1691 137.554 -60.5099 130.145C-59.886 123.17 -59.4493 116.208 -57.7378 109.398L-59.406 116.023C-57.1157 107.308 -53.4567 99.058 -49.1078 91.1861L-52.458 97.2464C-45.4365 84.7375 -36.7244 73.1791 -26.7708 62.864L-31.7599 68.0011C-27.5685 63.7024 -23.0823 59.9418 -17.9207 56.8581L-24.0907 60.493C-19.0967 57.6089 -13.8057 55.4197 -8.25579 53.8573L-14.9358 55.6816C-9.05129 54.1128 -3.05366 53.2928 3.03514 53.1938L-3.79655 53.2504C2.3046 53.2246 8.3319 53.9211 14.2564 55.3702C12.0453 54.8138 9.84243 54.2584 7.63128 53.702C13.2435 55.1475 18.6139 57.236 23.7021 60.0218C21.6848 58.9054 19.6639 57.7843 17.6419 56.6716C22.9259 59.6583 27.7587 63.2714 32.1567 67.4451C30.4415 65.7817 28.7311 64.1147 27.0196 62.456C32.0233 67.3235 36.3047 72.7891 39.9125 78.7614C38.7012 76.702 37.4853 74.6462 36.2776 72.5914C40.1463 79.174 43.0975 86.1833 45.1282 93.5388C44.5198 91.3149 43.9077 89.0864 43.3039 86.8588C45.1012 93.6581 46.0754 100.591 46.1673 107.622L46.1107 100.79C46.1309 110.254 44.5776 119.589 42.2844 128.751C42.8408 126.54 43.3962 124.337 43.9526 122.126C37.7288 146.5 26.9756 169.596 23.3112 194.652C19.1679 222.93 26.4085 251.71 44.5918 273.948C62.0082 295.25 88.6061 310.919 116.463 312.336C144.807 313.779 173.383 303.264 193.4 282.917C204.958 271.167 214.75 257.756 219.76 241.824C222.414 233.39 224.249 224.769 224.597 215.936C224.984 206.001 224.391 196.058 224.309 186.122L224.366 192.953C224.343 185.914 224.72 178.953 226.366 172.088L224.698 178.714C225.735 174.675 227.146 170.796 229.085 167.098L225.735 173.158C227.255 170.416 229.019 167.897 231.139 165.582L226.15 170.719C228.126 168.69 230.277 166.962 232.696 165.498L226.526 169.132C228.787 167.861 231.134 166.891 233.638 166.206L226.958 168.031C229.413 167.429 231.879 167.128 234.408 167.08L227.576 167.137C230.663 167.156 233.683 167.56 236.688 168.262C234.477 167.706 232.274 167.15 230.063 166.594C234.479 167.719 238.662 169.458 242.661 171.635C240.644 170.519 238.623 169.398 236.601 168.285C241.835 171.228 246.613 174.839 250.931 179.007C249.216 177.344 247.506 175.677 245.794 174.018C253.09 181.235 259.083 189.627 265.499 197.597C273.239 207.212 281.882 216.691 292.208 223.556C297.986 227.393 304.73 229.481 311.717 228.517C318.287 227.61 325.797 223.518 329.561 217.917C333.325 212.317 335.773 205.282 334.522 198.409C333.27 191.535 329.926 184.555 323.922 180.565C320.32 178.173 317.011 175.46 313.876 172.49C315.591 174.154 317.301 175.821 319.013 177.479C309.103 167.849 301.532 156.221 292.396 145.914C282.415 134.648 271.079 125.422 257.16 119.449C242.369 113.096 226.366 112.422 211.151 117.484C194.659 122.968 181.87 138.433 176.364 154.491C173.513 162.8 171.758 171.562 171.426 180.337C171.063 189.929 171.604 199.528 171.714 209.117L171.658 202.285C171.716 209.916 171.32 217.488 169.508 224.928L171.176 218.303C169.618 224.396 167.275 230.201 164.253 235.709L167.603 229.649C164.233 235.626 160.141 241.107 155.397 246.067L160.386 240.93C155.202 246.25 149.382 250.84 142.991 254.634L149.161 251C143.234 254.435 136.952 257.102 130.345 258.914L137.025 257.089C131.463 258.541 125.8 259.354 120.05 259.451L126.882 259.395C120.936 259.426 115.07 258.686 109.303 257.234L115.928 258.903C109.95 257.329 104.233 255.03 98.7962 252.088L104.856 255.438C98.4845 251.903 92.657 247.562 87.4279 242.495C89.143 244.158 90.8535 245.825 92.565 247.484C87.5766 242.559 83.2556 237.072 79.6667 231.047C80.878 233.106 82.0939 235.162 83.3016 237.217C80.0684 231.644 77.5378 225.746 75.8096 219.534C76.418 221.758 77.0301 223.986 77.6339 226.214C76.0851 220.374 75.3331 214.444 75.2448 208.407L75.3013 215.238C75.2622 205.932 76.7575 196.764 79.0031 187.752L77.3349 194.378C81.3254 178.772 87.3651 163.804 91.8483 148.354C97.521 128.829 101.295 108.857 98.126 88.493C94.9167 67.8663 85.7734 46.8923 71.252 31.6934C66.9182 27.1597 62.3672 22.6761 57.3487 18.8844C52.3991 15.1518 46.8996 12.1308 41.401 9.31277C32.5299 4.76812 22.3667 2.08449 12.5241 0.81693C2.65285 -0.458293 -7.83498 -0.290238 -17.6125 1.6744C-23.5104 2.86126 -29.4322 4.4594 -35.0639 6.5994C-40.6956 8.73939 -46.0322 11.9078 -51.29 15.0899C-59.869 20.2789 -66.7077 27.6624 -73.397 35.0342C-78.8992 41.103 -83.9756 47.5693 -88.5591 54.365C-99.8933 71.1623 -109.243 89.9468 -112.212 110.184C-113.507 119.022 -113.944 128.068 -114.667 136.97C-115.385 145.746 -116.01 154.533 -116.43 163.332C-117.334 182.135 -117.425 201.098 -115.814 219.864C-114.153 239.203 -110.142 257.999 -104.766 276.628C-103.483 281.084 -102.068 285.504 -100.561 289.89C-98.3984 296.183 -91.7617 302.024 -85.7246 304.404C-79.6876 306.783 -71.4921 306.983 -65.5962 304.19C-59.2611 301.188 -53.4344 296.185 -51.0823 289.354C-48.7265 282.528 -48.9393 276.084 -51.2959 269.226L-51.2949 269.217Z" fill="#98FB82"/>
</svg>
