<svg width="76" height="28" viewBox="0 0 76 28" fill="none" xmlns="http://www.w3.org/2000/svg">
<path d="M3.69021 14.1356C1.2321 12.9724 0 11.7298 0 10.4135C0 9.67585 0.341573 9.06306 1.03082 8.58077C1.72007 8.09848 2.5862 7.8545 3.62922 7.8545C4.75763 7.8545 5.86164 8.16657 6.94736 8.78503C6.61188 7.96798 6.4472 7.17362 6.4472 6.39629C6.4472 4.56926 7.44752 3.58199 9.44816 3.42312C10.4058 3.3834 11.1926 3.78058 11.7965 4.61465C12.4003 5.44873 12.7053 6.31118 12.7053 7.20767C12.7053 7.55945 12.6443 7.84883 12.5162 8.08146C12.8944 7.463 13.5592 6.8956 14.5169 6.39061C15.4745 5.88563 16.4138 5.63597 17.3348 5.63597C18.7499 5.63597 19.7137 6.1977 20.2138 7.32682C20.4212 7.71265 20.5249 8.14387 20.5249 8.60914C20.5249 9.49996 20.0552 10.2659 19.1159 10.9071C18.1766 11.5483 17.0421 12.0419 15.7063 12.3937C17.6276 12.7455 19.1586 13.449 20.3053 14.5214C21.452 15.5881 22.0254 16.6662 22.0254 17.7499C22.0254 18.4081 21.7753 18.9528 21.2751 19.3784C20.775 19.8039 20.0247 20.0195 19.0244 20.0195C18.1095 20.0195 17.0421 19.8266 15.8344 19.4351C15.1268 19.2025 14.2668 18.7769 13.2665 18.1528C13.5165 19.0833 13.6446 19.9798 13.6446 20.8309C13.6446 23.0438 12.5162 24.1502 10.2655 24.1502C9.80803 24.1502 9.45426 24.1332 9.20418 24.0934C7.57561 23.8608 6.76437 22.6012 6.76437 20.3089C6.76437 19.7642 6.80707 19.2422 6.89246 18.7372C5.64206 19.9401 4.39166 20.5415 3.13515 20.5415C2.25682 20.5415 1.51878 20.2692 0.914928 19.7245C0.311076 19.1798 0.00609952 18.5386 0.00609952 17.801C0.00609952 17.0634 0.311076 16.3768 0.914928 15.7357C1.51878 15.0945 2.44591 14.5611 3.70241 14.1356H3.69021Z" fill="#6966FF"/>
<path d="M32.8224 17.357C30.1032 17.3186 28.4666 16.6993 27.9204 15.5016C27.6143 14.8305 27.6709 14.1312 28.0979 13.4064C28.5249 12.6816 29.2117 12.1002 30.1607 11.6674C31.1874 11.1992 32.3214 11.0251 33.5658 11.1373C32.9216 10.5331 32.4421 9.87868 32.1196 9.17142C31.3615 7.50909 31.862 6.19576 33.6164 5.22108C34.4712 4.7876 35.3519 4.8225 36.2474 5.33083C37.1429 5.83916 37.7782 6.49732 38.1502 7.313C38.2962 7.63307 38.3608 7.92167 38.3407 8.18648C38.4282 7.46685 38.7977 6.67474 39.4595 5.81793C40.1212 4.96113 40.8723 4.34422 41.7103 3.96206C42.9978 3.37491 44.1077 3.48612 45.0313 4.30593C45.3801 4.57093 45.6534 4.92025 45.8464 5.34358C46.216 6.15409 46.1065 7.0459 45.5179 8.01902C44.9293 8.99213 44.1019 9.91201 43.0325 10.7863C44.9266 10.3092 46.6115 10.3141 48.0998 10.814C49.5857 11.3088 50.5547 12.0517 51.0044 13.0378C51.2775 13.6366 51.276 14.236 50.9975 14.8307C50.719 15.4254 50.1258 15.9329 49.2157 16.348C48.3832 16.7276 47.332 16.995 46.0707 17.1399C45.3304 17.2218 44.3713 17.1914 43.2022 17.0386C43.8158 17.7815 44.3044 18.544 44.6575 19.3184C45.5757 21.3318 45.0081 22.8067 42.9602 23.7406C42.544 23.9304 42.2151 24.0617 41.9711 24.1293C40.3928 24.5934 39.132 23.7839 38.1809 21.6983C37.9549 21.2027 37.7771 20.71 37.6453 20.2151C37.0067 21.8284 36.1186 22.8944 34.9753 23.4158C34.1762 23.7802 33.3917 23.8387 32.6162 23.5936C31.8408 23.3486 31.2973 22.8918 30.9912 22.2206C30.6852 21.5495 30.6778 20.7983 30.9612 19.9644C31.2446 19.1305 31.8668 18.2605 32.8335 17.352L32.8224 17.357Z" fill="#6966FF"/>
<path d="M56.9864 14.1356C54.5282 12.9724 53.2961 11.7298 53.2961 10.4135C53.2961 9.67585 53.6377 9.06306 54.327 8.58077C55.0162 8.09848 55.8823 7.8545 56.9254 7.8545C58.0538 7.8545 59.1578 8.16657 60.2435 8.78503C59.908 7.96798 59.7433 7.17362 59.7433 6.39629C59.7433 4.56926 60.7437 3.58199 62.7443 3.42312C63.7019 3.3834 64.4888 3.78058 65.0926 4.61465C65.6965 5.44873 66.0014 6.31118 66.0014 7.20767C66.0014 7.55945 65.9405 7.84883 65.8124 8.08146C66.1905 7.463 66.8554 6.8956 67.813 6.39061C68.7706 5.88563 69.71 5.63597 70.631 5.63597C72.0461 5.63597 73.0098 6.1977 73.51 7.32682C73.7173 7.71265 73.821 8.14387 73.821 8.60914C73.821 9.49996 73.3514 10.2659 72.412 10.9071C71.4727 11.5483 70.3382 12.0419 69.0024 12.3937C70.9238 12.7455 72.4547 13.449 73.6015 14.5214C74.7482 15.5881 75.3215 16.6662 75.3215 17.7499C75.3215 18.4081 75.0714 18.9528 74.5713 19.3784C74.0711 19.8039 73.3209 20.0195 72.3206 20.0195C71.4056 20.0195 70.3382 19.8266 69.1305 19.4351C68.423 19.2025 67.5629 18.7769 66.5626 18.1528C66.8127 19.0833 66.9408 19.9798 66.9408 20.8309C66.9408 23.0438 65.8124 24.1502 63.5616 24.1502C63.1042 24.1502 62.7504 24.1332 62.5003 24.0934C60.8718 23.8608 60.0605 22.6012 60.0605 20.3089C60.0605 19.7642 60.1032 19.2422 60.1886 18.7372C58.9382 19.9401 57.6878 20.5415 56.4313 20.5415C55.553 20.5415 54.8149 20.2692 54.2111 19.7245C53.6072 19.1798 53.3022 18.5386 53.3022 17.801C53.3022 17.0634 53.6072 16.3768 54.2111 15.7357C54.8149 15.0945 55.7421 14.5611 56.9986 14.1356H56.9864Z" fill="#6966FF"/>
</svg>
