<svg width="96" height="205" viewBox="0 0 96 205" fill="none" xmlns="http://www.w3.org/2000/svg">
<path d="M157.456 158.183C157.983 164.025 161.491 174.251 169.056 174.415C188.14 174.824 192.986 145.125 183.024 125.298C178.613 116.519 173.201 108.938 167.974 100.755C163.872 94.3362 153.28 77.9909 158.505 71.0566C160.269 68.7149 165.516 69.2751 168.125 70.6843C182.548 78.4759 191.665 96.7775 197.097 111.697C205.133 133.768 199.228 153.341 203.061 156.015C203.947 156.631 206.636 156.71 207.683 156.257C219.811 151.042 229.31 143.112 237.684 133.316C245.618 124.037 249.288 112.991 247.724 100.57C246.184 88.3298 241.018 76.8197 232.657 67.9653C214.726 48.9806 197.771 46.5773 188.893 37.881C185.003 34.069 173.502 20.7966 181.09 16.7791C192.82 10.5676 213.143 26.9784 221.411 35.1388C237.11 50.6321 250.744 77.6794 256.523 83.6092C259.636 86.8018 264.116 84.4249 266.131 81.3011C270.963 73.8116 273.1 65.2563 273.722 56.402C276.09 22.6844 242.647 8.70134 215.163 2.77254C206.551 0.914695 193.37 1.25156 192.421 -7.67314C191.008 -20.9762 218.203 -25.0553 242.473 -4.49511L263.404 13.2352C264.122 13.8428 265.927 14.5911 266.774 14.4953C271.469 13.9614 273.009 -11.8061 254.143 -29.232C229.24 -52.2357 192.631 -47.3753 168.607 -24.8378C163.128 -19.6978 150.932 -9.02607 151.985 -17.1227L154.803 -25.7649C160.506 -34.7261 165.493 -43.8779 166.751 -54.6139C168.265 -67.5166 164.874 -76.1726 152.345 -80.8733C139.943 -85.5277 127.497 -86.128 114.341 -84.9352C85.7091 -82.3359 73.4735 -72.5075 54.2477 -52.6805C53.346 -51.7487 52.5892 -49.2288 52.7895 -48.09C52.9898 -46.9511 55.0072 -45.038 56.2117 -44.9419C76.8411 -43.2867 83.3479 -49.0734 101.108 -40.3885C107.449 -37.2869 113.819 -33.6824 116.891 -27.0025C118.332 -23.8712 118.898 -20.2006 116.956 -17.4868C108.831 -6.15237 84.3771 -27.2423 66.822 -32.4822C39.4867 -40.6392 30.1723 -17.4556 20.0111 2.19109C18.9502 4.24285 18.5179 8.33826 19.953 10.0658C20.6631 10.9218 23.6233 9.61317 24.4523 8.78286C50.9939 -17.7713 87.1198 -12.7552 87.8084 -0.516997C88.1474 5.50419 82.6874 9.04365 77.3366 9.52733C67.1421 10.4495 48.9971 12.5449 40.322 16.4456C29.6711 21.2312 20.1454 28.2435 15.727 39.3799C13.3845 45.2873 10.1783 61.9193 13.4931 66.2337C15.7672 69.1924 22.0244 59.2659 25.5983 55.9352C30.5787 51.2954 48.4212 37.7008 53.9835 41.2721C56.7121 43.0234 58.131 49.8438 53.5127 53.3083C38.76 64.3718 28.4399 65.1085 19.0521 80.7785C10.5691 94.9399 20.0611 108.883 28.6427 119.838C29.9765 121.537 32.6342 123.295 34.7021 122.87C42.8423 121.188 38.6145 98.0271 61.242 75.9566C66.7281 70.6069 74.2942 68.7521 81.5272 70.6922C84.6164 71.5193 88.1729 74.2246 87.8603 77.5224C87.4112 82.2706 85.1288 86.5581 81.5924 89.5462L60.8309 107.091C52.2056 114.38 44.8302 124.07 43.326 135.445C42.2653 143.464 43.3243 153.281 48.5955 159.436C54.6311 166.482 62.3894 172.253 70.1762 177.118C87.2616 187.793 81.1467 197.863 87.2211 198.808C92.7392 199.666 91.0932 188.653 100.898 184.424C116.877 177.529 128.06 181.271 134.396 170.513C137.163 165.816 138.632 160.844 138.807 155.164C139.196 142.559 137.179 130.279 133.714 118.058C132.327 113.158 128.775 100.14 133.137 97.3943C138.69 93.9042 144.244 101.737 145.623 105.172C153.863 125.672 155.438 135.809 157.452 158.183L157.456 158.183ZM124.792 -47.6553C120.5 -49.6743 95.8159 -60.6151 97.4937 -64.462C107.175 -76.1895 129.821 -70.145 138.118 -59.589C147.077 -48.1896 142.803 -40.3598 140.286 -41.0038C134.595 -42.464 130.213 -45.1025 124.792 -47.6553ZM66.6729 36.5727C66.6574 34.3353 68.0637 31.6863 70.1275 30.1829C84.974 19.3688 103.341 26.2594 103.946 33.9325C104.074 35.5561 102.691 38.8136 101.137 40.1155C88.5225 50.6968 66.7382 45.7932 66.6695 36.573L66.6729 36.5727ZM152.919 35.7922C158.857 27.6376 184.085 46.7421 177.863 54.888C171.871 62.7387 147.363 43.4174 152.919 35.7888L152.919 35.7922ZM210.617 100.485C205.851 92.8098 198.92 83.5193 201.898 75.4522C202.903 72.7271 206.299 71.7629 208.826 72.7792C227.126 80.1506 239.94 102.383 230.919 120.185C230.189 121.624 228.606 123.244 227.425 123.641C218.764 126.553 215.419 108.218 210.617 100.482L210.617 100.485ZM68.9832 151.842C61.5136 145.222 74.078 112.128 84.6506 115.257C85.802 115.598 87.2455 118.031 87.3831 119.575C89.0488 138.226 74.7584 156.961 68.9832 151.842Z" fill="#98FB82"/>
</svg>
