<svg width="116" height="342" viewBox="0 0 116 342" fill="none" xmlns="http://www.w3.org/2000/svg">
<path d="M-24.3931 277.582C-22.4105 283.102 -21.2838 293.855 -28.0761 297.19C-45.2115 305.601 -62.1177 280.708 -61.4358 258.529C-61.1334 248.709 -59.4187 239.554 -58.1257 229.929C-57.1094 222.38 -54.389 203.094 -62.0496 199.007C-64.6361 197.626 -69.158 200.344 -70.9311 202.722C-80.7292 215.864 -81.2878 236.303 -79.9293 252.122C-77.9188 275.525 -64.3178 290.788 -66.6677 294.828C-67.2118 295.76 -69.6169 296.965 -70.7569 296.995C-83.9542 297.374 -95.909 294.185 -107.631 288.828C-118.735 283.755 -126.717 275.283 -130.532 263.359C-134.291 251.609 -134.455 238.994 -130.603 227.442C-122.338 202.67 -107.974 193.347 -103.586 181.72C-101.663 176.624 -96.8245 159.742 -105.399 159.295C-118.654 158.603 -130.171 182.048 -134.232 192.932C-141.943 213.597 -142.914 243.871 -145.657 251.684C-147.135 255.89 -152.2 255.622 -155.343 253.638C-162.88 248.881 -168.423 242.022 -172.717 234.254C-189.069 204.672 -164.63 177.902 -142.201 160.946C-135.173 155.633 -123.077 150.386 -125.976 141.892C-130.298 129.232 -156.681 136.989 -170.031 165.86L-181.544 190.758C-181.94 191.612 -183.261 193.05 -184.07 193.32C-188.553 194.814 -200.805 172.094 -191.036 148.342C-178.141 116.988 -142.892 105.973 -111.61 116.293C-104.475 118.646 -88.9182 123.187 -93.2845 116.287L-99.4807 109.636C-108.428 103.912 -116.806 97.7125 -122.47 88.5056C-129.279 77.4419 -129.85 68.1626 -120.467 58.6212C-111.18 49.1754 -100.145 43.3876 -87.7119 38.9274C-60.6493 29.2227 -45.4119 32.9818 -19.6227 42.8641C-18.4124 43.3293 -16.6645 45.2958 -16.3664 46.4131C-16.0683 47.5303 -17.092 50.1152 -18.1439 50.7099C-36.156 60.9017 -44.4951 58.3947 -56.9434 73.7532C-61.3881 79.2377 -65.6462 85.19 -65.6187 92.5425C-65.6064 95.9895 -64.573 99.5568 -61.6683 101.2C-49.5245 108.056 -36.2315 78.6276 -22.5177 66.4798C-1.16285 47.5662 17.0515 64.6682 34.5437 78.2057C36.3702 79.6196 38.4876 83.1517 37.9138 85.3231C37.6304 86.3985 34.3944 86.4588 33.2928 86.055C-1.96536 73.1536 -32.6158 92.9219 -28.0847 104.311C-25.8556 109.915 -19.4126 110.825 -14.356 109.009C-4.72186 105.551 12.6172 99.8071 22.1282 99.6901C33.8039 99.5434 45.3971 101.89 54.0958 110.129C58.709 114.499 68.6235 128.233 67.4347 133.542C66.6187 137.183 56.7621 130.817 52.1176 129.302C45.6461 127.192 23.7371 122.379 20.197 127.961C18.4601 130.699 20.0466 137.483 25.6946 138.679C43.7351 142.498 53.405 138.818 68.5206 149.075C82.1799 158.345 79.4453 174.989 76.2773 188.54C75.7835 190.643 74.1137 193.356 72.0591 193.842C63.9679 195.746 58.0452 172.96 28.2259 162.476C20.9966 159.935 13.3533 161.44 7.61079 166.247C5.15746 168.298 3.07166 172.25 4.74446 175.109C7.15208 179.227 11.0283 182.153 15.4943 183.374L41.715 190.54C52.608 193.516 63.3793 199.197 69.5357 208.88C73.8756 215.706 77.0509 225.055 74.8632 232.858C72.358 241.791 67.7526 250.293 62.7402 257.986C51.7421 274.865 61.5301 281.422 56.4189 284.837C51.7759 287.94 48.6292 277.259 37.9559 277.554C20.5587 278.032 11.9932 286.137 1.71448 279.05C-2.77399 275.956 -6.20009 272.066 -8.752 266.988C-14.4156 255.72 -17.7586 243.733 -19.7654 231.19C-20.5714 226.161 -22.8338 212.859 -27.9468 212.206C-34.4533 211.38 -36.1904 220.823 -35.9943 224.52C-34.8311 246.583 -31.9886 256.44 -24.3899 277.581L-24.3931 277.582ZM-81.4849 77.1404C-78.4423 73.5009 -60.665 53.1797 -63.8072 50.3976C-77.5279 43.84 -95.5198 58.8622 -98.5979 71.9313C-101.92 86.0438 -94.7461 91.3445 -92.7342 89.6999C-88.188 85.9781 -85.3254 81.7391 -81.4849 77.1404ZM6.70884 129.045C5.78027 127.009 3.38891 125.199 0.883844 124.705C-17.1366 121.152 -30.891 135.139 -28.2077 142.353C-27.6395 143.879 -25.0132 146.251 -23.0557 146.777C-7.15713 151.059 10.534 137.435 6.71204 129.044L6.70884 129.045ZM-71.8396 164.671C-80.6603 159.777 -95.4915 187.731 -86.4172 192.498C-77.6751 197.093 -63.5884 169.246 -71.8407 164.668L-71.8396 164.671ZM-96.9138 247.65C-95.8247 238.681 -93.453 227.335 -99.5523 221.274C-101.611 219.225 -105.098 219.782 -106.961 221.768C-120.453 236.163 -122.708 261.724 -107.028 274.069C-105.759 275.066 -103.641 275.868 -102.402 275.731C-93.3204 274.723 -98.011 256.686 -96.915 247.647L-96.9138 247.65ZM53.1739 234.56C57.1593 225.409 31.8228 200.689 23.5521 207.98C22.6517 208.775 22.3673 211.589 22.8932 213.048C29.2395 230.664 50.0929 241.636 53.1739 234.56Z" fill="#98FB82"/>
</svg>
