<svg width="588" height="574" viewBox="0 0 588 574" fill="none" xmlns="http://www.w3.org/2000/svg">
<path d="M418.257 418.293C417.964 408.703 418.934 363.474 408.631 365.258C401.462 366.528 406.421 377.559 397.417 389.38C393.879 394.035 386.48 394.257 381.927 390.961C370.675 382.79 366.173 370.576 362.553 357.471C356.427 335.23 339.377 317.157 316.671 311.231C310.362 309.599 294.409 311.979 290.577 324.711C285.29 342.346 291.335 359.707 301.468 374.486C304.962 379.607 311.818 393.887 307.218 399.481C300.762 407.353 291.869 399.742 286.739 403.383C287.932 417.519 302.328 424.526 315.881 439.428C323.766 448.07 330.381 466.708 317.771 473.312C313.007 475.824 306.536 476.309 301.911 473.246L288.346 464.252C284.833 484.242 307.604 491.029 319.566 528.285C321.724 534.947 319.989 543.88 315.677 549.108C311.684 553.942 303.5 558.723 296.146 557.263C273.523 552.849 258.571 531.922 251.474 511.512C231.806 455.108 246.572 373.154 275.585 321.597C276.18 320.57 275.866 317.064 274.964 316.359C269.192 311.776 258.078 326.657 255.572 338.496C252.323 353.746 247.65 380.075 230.819 378.501C226.031 378.057 223.13 374.332 218.327 369.366C216.61 370.855 213.811 374.552 213.21 377.085C206.376 406.353 223.528 423.723 216.635 444.389C215.004 449.252 209.185 453.529 205.323 453.881C199.884 454.401 193.975 451.553 190.629 447.387L180.316 434.547C172.619 462.934 217.818 507.803 189.013 531.189C179.619 538.82 168.563 542.272 157.022 536.86C120.623 519.716 121.34 467.587 131.785 433.462C144.737 391.279 170.167 354.655 205.417 327.857C223.925 313.788 245.57 306.325 267.558 298.558C268.689 297.003 265.926 293.435 263.639 292.673C251.543 288.585 238.829 290.664 227.703 296.681L206.673 308.052C204.104 309.459 197.439 309.755 194.49 308.716C191.541 307.676 188.43 303.052 186.184 299.723L183.642 295.931C183.073 295.098 179.649 296.009 178.755 296.604C163.005 307.15 159.977 321.232 148.126 337.042C144.165 342.321 135.815 346.915 129.459 344.601C116.603 339.905 119.482 324.425 114.925 317.88C114.247 316.893 110.381 319.696 109.725 320.749C99.7975 336.501 103.252 358.96 94.2606 377.725C91.244 383.978 83.0638 389.173 76.8218 386.925C66.503 383.243 64.9342 373.752 61.191 363.593C57.1432 367.892 56.6037 373.265 55.906 378.806C54.0678 393.7 41.2521 420.794 25.0056 414.559C5.98847 407.266 8.61564 379.156 12.3864 363.112C16.6764 344.883 24.361 328.608 36.8514 314.876C49.2131 301.314 62.6046 290.68 79.1848 281.988C131.213 254.751 211.844 241.251 262.917 274.755C266.409 277.039 270.35 278.76 274.497 280.021C262.77 261.865 249.833 246.085 240.154 226.815C221.195 189.007 202.837 140.543 207.858 98.105C212.067 62.5891 232.512 32.0376 264.476 16.7937C273.76 12.3759 286.143 15.6539 288.275 26.0669C290.317 36.0312 283.332 44.816 275.899 50.3529C264.594 58.7815 242.675 74.9725 242.055 91.1827L261.066 77.5886C266.94 73.3733 275.851 75.4614 280.047 79.7391C284.824 84.6436 285.616 92.8465 281.503 99.1504C270.407 116.13 245.4 129.707 246.98 152.848L260.037 141.899C262.219 140.055 268.561 139.738 271.245 141.234C281.865 147.21 272.352 169.162 269.892 176.927C260.555 206.512 266.946 243.57 287.188 269.729C285.345 228.402 296.224 192.029 316.745 158.351C328.353 139.305 341.015 123.28 357.075 107.73C398.749 67.3559 459.748 37.8979 519.15 47.1013C538.347 50.0628 555.405 57.9732 570.981 69.3075C577.821 74.3102 582.538 82.5789 580.352 91.6314C579.314 95.9985 573.045 101.814 568.729 103.29C546.298 111.059 531.908 94.392 501.416 91.5878C499.831 91.4305 495.674 92.2366 495.559 93.618C494.94 101.704 508.725 103.326 512.48 118.537C513.97 124.537 512.797 131.082 508.73 135.203C490.984 153.189 460.757 121.301 434.675 123.142C431.886 123.324 427.427 125.677 426.937 127.863C425.077 135.96 439.505 140.074 439.226 150.781C439.091 156.297 435.743 161.703 431.229 164.939C416.703 175.295 402.063 166.973 380.841 166.663C377.388 166.597 373.975 171.615 375.036 174.517C379.05 185.548 374.504 195.991 364.7 201.647C359.798 204.475 354.643 206.135 348.907 207.641C319.328 215.381 301.836 240.236 306.028 273.2C351.494 221.686 420.685 184.936 489.295 198.107C525.557 205.051 555.815 228.816 569.246 262.854C574.558 276.3 573.468 290.561 564.401 301.491C552.042 316.443 531.851 302.341 521.749 290.873L497.594 263.498C495.137 260.716 490.809 259.532 486.613 259.538C486.931 274.92 503.416 293.047 490.115 305.547C481.426 313.724 468.478 313.365 458.798 306.059C440.846 292.539 424.379 252.168 411.367 250.476C410.019 250.304 408.14 254.885 408.768 256.194L417.986 275.732C419.736 279.444 419.147 285.139 417.221 288.092C410.537 298.225 396.063 290.091 388.447 285.217C374.321 276.218 354.947 262.285 336.668 270.755C327.085 275.213 319.111 282.814 311.418 291.112C369.777 283.293 424.119 305.034 464.361 344.071C472.806 352.246 479.158 360.35 485.954 369.87C534.873 438.16 515.438 518.701 484.761 516.506C467.761 515.276 468.115 480.94 466.865 468.218C466.225 461.856 462.802 419.811 454.548 421.427L445.805 439.527C444.078 443.084 439.34 446.601 435.787 446.736C423.381 447.178 418.526 430.157 418.148 418.139L418.257 418.293Z" fill="#F7CE46"/>
</svg>
