<svg width="342" height="353" viewBox="0 0 342 353" fill="none" xmlns="http://www.w3.org/2000/svg">
<path d="M201.607 277.582C203.589 283.102 204.716 293.855 197.924 297.19C180.789 305.601 163.882 280.708 164.564 258.529C164.867 248.709 166.581 239.554 167.874 229.929C168.891 222.38 171.611 203.094 163.95 199.007C161.364 197.626 156.842 200.344 155.069 202.722C145.271 215.864 144.712 236.303 146.071 252.122C148.081 275.525 161.682 290.788 159.332 294.828C158.788 295.76 156.383 296.965 155.243 296.995C142.046 297.374 130.091 294.185 118.369 288.828C107.265 283.755 99.283 275.283 95.4682 263.359C91.709 251.609 91.5451 238.994 95.3972 227.442C103.662 202.67 118.026 193.347 122.414 181.72C124.337 176.624 129.176 159.742 120.601 159.295C107.346 158.603 95.8285 182.048 91.768 192.932C84.0573 213.597 83.0861 243.871 80.3428 251.684C78.8648 255.89 73.8003 255.622 70.657 253.638C63.1196 248.881 57.5771 242.022 53.2833 234.254C36.9309 204.672 61.3704 177.902 83.7991 160.946C90.8273 155.633 102.923 150.386 100.024 141.892C95.7017 129.232 69.3189 136.989 55.9691 165.86L44.4558 190.758C44.06 191.612 42.7387 193.05 41.9304 193.32C37.447 194.814 25.1949 172.094 34.964 148.342C47.8589 116.988 83.1079 105.973 114.39 116.293C121.525 118.646 137.082 123.187 132.715 116.287L126.519 109.636C117.572 103.912 109.194 97.7125 103.53 88.5056C96.7208 77.4419 96.1503 68.1626 105.533 58.6212C114.82 49.1754 125.855 43.3876 138.288 38.9274C165.351 29.2227 180.588 32.9818 206.377 42.8641C207.588 43.3293 209.336 45.2958 209.634 46.4131C209.932 47.5303 208.908 50.1152 207.856 50.7099C189.844 60.9017 181.505 58.3947 169.057 73.7532C164.612 79.2377 160.354 85.19 160.381 92.5425C160.394 95.9895 161.427 99.5568 164.332 101.2C176.475 108.056 189.768 78.6276 203.482 66.4798C224.837 47.5662 243.051 64.6682 260.544 78.2057C262.37 79.6196 264.488 83.1517 263.914 85.3231C263.63 86.3985 260.394 86.4588 259.293 86.055C224.035 73.1536 193.384 92.9219 197.915 104.311C200.144 109.915 206.587 110.825 211.644 109.009C221.278 105.551 238.617 99.8071 248.128 99.6901C259.804 99.5434 271.397 101.89 280.096 110.129C284.709 114.499 294.624 128.233 293.435 133.542C292.619 137.183 282.762 130.817 278.118 129.302C271.646 127.192 249.737 122.379 246.197 127.961C244.46 130.699 246.047 137.483 251.695 138.679C269.735 142.498 279.405 138.818 294.521 149.075C308.18 158.345 305.445 174.989 302.277 188.54C301.784 190.643 300.114 193.356 298.059 193.842C289.968 195.746 284.045 172.96 254.226 162.476C246.997 159.935 239.353 161.44 233.611 166.247C231.157 168.298 229.072 172.25 230.744 175.109C233.152 179.227 237.028 182.153 241.494 183.374L267.715 190.54C278.608 193.516 289.379 199.197 295.536 208.88C299.876 215.706 303.051 225.055 300.863 232.858C298.358 241.791 293.753 250.293 288.74 257.986C277.742 274.865 287.53 281.422 282.419 284.837C277.776 287.94 274.629 277.259 263.956 277.554C246.559 278.032 237.993 286.137 227.714 279.05C223.226 275.956 219.8 272.066 217.248 266.988C211.584 255.72 208.241 243.733 206.235 231.19C205.429 226.161 203.166 212.859 198.053 212.206C191.547 211.38 189.81 220.823 190.006 224.52C191.169 246.583 194.011 256.44 201.61 277.581L201.607 277.582ZM144.515 77.1404C147.558 73.5009 165.335 53.1797 162.193 50.3976C148.472 43.84 130.48 58.8622 127.402 71.9313C124.08 86.0438 131.254 91.3445 133.266 89.6999C137.812 85.9781 140.675 81.7391 144.515 77.1404ZM232.709 129.045C231.78 127.009 229.389 125.199 226.884 124.705C208.863 121.152 195.109 135.139 197.792 142.353C198.361 143.879 200.987 146.251 202.944 146.777C218.843 151.059 236.534 137.435 232.712 129.044L232.709 129.045ZM154.16 164.671C145.34 159.777 130.509 187.731 139.583 192.498C148.325 197.093 162.412 169.246 154.159 164.668L154.16 164.671ZM129.086 247.65C130.175 238.681 132.547 227.335 126.448 221.274C124.389 219.225 120.902 219.782 119.039 221.768C105.547 236.163 103.292 261.724 118.972 274.069C120.241 275.066 122.359 275.868 123.598 275.731C132.68 274.723 127.989 256.686 129.085 247.647L129.086 247.65ZM279.174 234.56C283.159 225.409 257.823 200.689 249.552 207.98C248.652 208.775 248.367 211.589 248.893 213.048C255.24 230.664 276.093 241.636 279.174 234.56Z" fill="#E582FB"/>
</svg>
