<svg width="626" height="1188" viewBox="0 0 626 1188" fill="none" xmlns="http://www.w3.org/2000/svg">
<path d="M456.288 418.293C455.996 408.703 456.965 363.474 446.662 365.258C439.493 366.528 444.453 377.559 435.449 389.38C431.911 394.035 424.511 394.257 419.959 390.961C408.707 382.79 404.205 370.576 400.585 357.471C394.459 335.23 377.409 317.157 354.703 311.231C348.393 309.599 332.44 311.979 328.609 324.711C323.322 342.346 329.366 359.707 339.5 374.486C342.994 379.607 349.85 393.887 345.249 399.481C338.794 407.353 329.9 399.742 324.771 403.383C325.963 417.519 340.36 424.526 353.913 439.428C361.797 448.07 368.413 466.708 355.803 473.312C351.038 475.824 344.568 476.309 339.942 473.246L326.378 464.252C322.865 484.242 345.636 491.029 357.598 528.285C359.755 534.947 358.02 543.88 353.708 549.108C349.716 553.942 341.532 558.724 334.177 557.264C311.555 552.849 296.603 531.922 289.506 511.512C269.838 455.108 284.603 373.154 313.617 321.597C314.212 320.57 313.897 317.064 312.996 316.359C307.223 311.776 296.109 326.657 293.604 338.497C290.355 353.746 285.681 380.075 268.851 378.501C264.063 378.057 261.162 374.332 256.358 369.367C254.641 370.856 251.842 374.552 251.242 377.085C244.407 406.353 261.559 423.723 254.666 444.389C253.036 449.252 247.217 453.529 243.354 453.881C237.916 454.401 232.006 451.553 228.66 447.387L218.347 434.548C210.651 462.934 255.85 507.803 227.045 531.189C217.65 538.82 206.594 542.272 195.053 536.86C158.654 519.716 159.372 467.587 169.816 433.462C182.769 391.279 208.199 354.655 243.449 327.857C261.957 313.789 283.602 306.325 305.59 298.558C306.72 297.003 303.957 293.435 301.671 292.673C289.575 288.585 276.861 290.664 265.735 296.681L244.705 308.052C242.136 309.459 235.47 309.755 232.521 308.716C229.572 307.676 226.461 303.052 224.216 299.723L221.673 295.931C221.105 295.098 217.68 296.009 216.787 296.604C201.037 307.15 198.008 321.232 186.157 337.042C182.197 342.321 173.847 346.915 167.491 344.601C154.635 339.905 157.514 324.426 152.956 317.88C152.279 316.893 148.412 319.696 147.756 320.749C137.829 336.501 141.283 358.96 132.292 377.725C129.276 383.978 121.095 389.173 114.853 386.926C104.535 383.244 102.966 373.752 99.2225 363.594C95.1748 367.892 94.6353 373.265 93.9376 378.806C92.0994 393.7 79.2837 420.795 63.0372 414.559C44.0201 407.266 46.6472 379.156 50.4179 363.112C54.7079 344.883 62.3926 328.609 74.883 314.877C87.2447 301.314 100.636 290.681 117.216 281.988C169.244 254.751 249.876 241.251 300.949 274.755C304.441 277.039 308.382 278.76 312.528 280.021C300.802 261.865 287.864 246.085 278.186 226.815C259.227 189.007 240.869 140.543 245.89 98.1051C250.099 62.5892 270.544 32.0377 302.508 16.7938C311.792 12.376 324.174 15.654 326.306 26.067C328.348 36.0313 321.364 44.8161 313.931 50.353C302.625 58.7816 280.706 74.9726 280.086 91.1828L299.097 77.5887C304.971 73.3733 313.882 75.4614 318.078 79.7392C322.856 84.6437 323.648 92.8466 319.535 99.1504C308.439 116.13 283.432 129.707 285.012 152.848L298.069 141.899C300.251 140.055 306.593 139.739 309.277 141.234C319.897 147.21 310.383 169.162 307.923 176.927C298.587 206.512 304.977 243.57 325.219 269.729C323.377 228.402 334.256 192.029 354.777 158.351C366.385 139.306 379.047 123.28 395.106 107.73C436.78 67.356 497.779 37.898 557.181 47.1014C576.378 50.0629 593.437 57.9733 609.013 69.3076C615.853 74.3103 620.57 82.579 618.384 91.6315C617.345 95.9986 611.077 101.814 606.761 103.29C584.329 111.059 569.94 94.3921 539.448 91.5879C537.862 91.4306 533.706 92.2367 533.591 93.6181C532.972 101.704 546.757 103.326 550.512 118.537C552.002 124.538 550.828 131.083 546.762 135.203C529.015 153.189 498.788 121.301 472.706 123.142C469.918 123.324 465.459 125.677 464.969 127.863C463.109 135.96 477.537 140.074 477.258 150.781C477.123 156.297 473.775 161.703 469.261 164.939C454.734 175.295 440.094 166.973 418.872 166.663C415.42 166.597 412.007 171.615 413.068 174.517C417.082 185.548 412.536 195.991 402.732 201.647C397.83 204.475 392.675 206.135 386.939 207.641C357.36 215.381 339.867 240.236 344.059 273.2C389.526 221.686 458.716 184.936 527.327 198.108C563.589 205.051 593.846 228.816 607.278 262.854C612.59 276.3 611.5 290.561 602.433 301.491C590.074 316.443 569.883 302.341 559.78 290.873L535.626 263.498C533.169 260.716 528.84 259.532 524.645 259.538C524.962 274.92 541.447 293.047 528.147 305.547C519.457 313.724 506.51 313.365 496.829 306.059C478.877 292.54 462.411 252.169 449.399 250.476C448.05 250.304 446.171 254.885 446.799 256.194L456.018 275.732C457.767 279.444 457.178 285.139 455.252 288.093C448.569 298.225 434.094 290.091 426.478 285.217C412.353 276.218 392.979 262.285 374.699 270.755C365.117 275.213 357.142 282.814 349.45 291.112C407.808 283.293 462.15 305.034 502.393 344.071C510.838 352.246 517.19 360.35 523.986 369.87C572.904 438.16 553.47 518.702 522.793 516.506C505.793 515.276 506.147 480.94 504.896 468.218C504.256 461.856 500.833 419.811 492.58 421.427L483.836 439.527C482.109 443.084 477.372 446.601 473.818 446.736C461.412 447.179 456.558 430.157 456.179 418.139L456.288 418.293Z" fill="#F7CE46"/>
<path d="M450.019 1176.38C425.815 1181.15 400.343 1180.04 379.272 1169.77C367.297 1163.96 364.109 1153.81 366.921 1142.26C371.262 1124.64 375.984 1106.98 376.494 1088.67C377.004 1070.33 377.051 1052.27 374.499 1034.16L362.376 948.194C355.353 898.4 351.178 845.674 364.8 796.485C380.149 741.011 395.12 686.524 405.464 629.661C410.142 603.976 414.998 580.026 413.923 553.509C412.453 518.214 407.482 483.219 397.21 449.353C390.607 427.603 381.533 407.74 373.302 386.666C367.569 372.056 346.936 348.17 359.105 335.914C361.357 333.651 367.552 331.104 370.626 332.944C376.986 336.793 381.783 342.349 385.077 348.784C406.98 391.271 438.699 468.083 447.132 514.317C453.924 551.609 457.318 587.928 456.876 625.886C456.473 659.063 447.023 732.211 441.405 766.455C437.709 789.008 432.457 810.081 432.226 833.014C431.851 870.38 434.865 905.916 444.676 941.804L468.499 1029.04C473.305 1046.66 477.144 1063.64 480.837 1081.51C483.463 1094.17 484.479 1107.17 486.05 1120.04C488.081 1136.79 483.285 1152.33 471.229 1163.63C465.173 1169.3 459.22 1174.56 449.989 1176.36L450.019 1176.38Z" fill="#F7CE46"/>
</svg>
