<svg width="931" height="510" viewBox="0 0 931 510" fill="none" xmlns="http://www.w3.org/2000/svg">
<path d="M931 510H921.826C926.419 467.778 909.648 426.543 871.586 390.7C828.703 350.276 761.35 322.492 683.006 320.637C614.896 319.036 567.283 350.85 558.208 391.038L547.098 440.211C545.889 445.487 539.372 451.093 533.87 453.11C506.23 463.213 480.943 438.927 468.296 425.026C458.606 414.355 449.036 404.375 437.054 394.724C399.968 364.916 333.904 342.743 274.878 356.353C205.717 372.285 266.65 450.172 237.075 464.732C233.003 466.735 223.774 468.266 217.447 467.542C187.628 464.097 171.683 448.775 134.522 442.427C85.4101 434.032 36.0957 447.329 12.0654 474.95C11.0495 476.118 7.9231 488.747 3.21973 510H0V0H931V510Z" fill="#E582FB"/>
</svg>
