<svg width="393" height="409" viewBox="0 0 393 409" fill="none" xmlns="http://www.w3.org/2000/svg">
<path d="M732.59 -623.533C743.948 -613.324 755 -602.779 765.685 -591.874C761.533 -596.116 757.366 -600.363 753.22 -604.618C796.099 -560.577 832.034 -510.833 862.437 -457.494L853.758 -472.792C871.879 -440.816 888.196 -407.857 903.682 -374.534C911.76 -357.169 919.612 -339.7 927.403 -322.206C934.729 -305.736 942.463 -289.526 947.137 -272.063L942.597 -289.056C948.352 -266.585 950.448 -243.444 950.519 -220.292L950.469 -238.119C950.331 -201.189 945.201 -164.282 935.721 -128.618L940.514 -146.419C936.466 -131.502 931.081 -117.427 923.329 -104.029L932.659 -119.929C925.035 -107.19 915.872 -95.6419 905.343 -85.1801L918.087 -97.6456C906.813 -86.7506 894.346 -77.3986 880.773 -69.5542L896.071 -78.2329C882.378 -70.538 867.947 -64.5603 852.805 -60.4043C858.476 -61.9203 864.126 -63.4282 869.797 -64.9443C855.362 -61.1711 840.667 -59.1471 825.733 -59.0448C831.669 -59.0585 837.618 -59.0664 843.56 -59.0942C827.934 -59.199 812.54 -61.2776 797.422 -65.1618C803.362 -63.5667 809.297 -61.9575 815.223 -60.3684C797.874 -65.0551 781.401 -71.9915 765.809 -80.9109C771.112 -77.7942 776.42 -74.6915 781.709 -71.5807C764.767 -81.5464 749.354 -93.6207 735.578 -107.626C739.731 -103.385 743.897 -99.1373 748.044 -94.8819C735.489 -107.928 724.619 -122.306 715.613 -138.006L724.291 -122.708C712.399 -143.974 704.208 -166.919 697.899 -190.4C699.415 -184.729 700.923 -179.079 702.439 -173.408C685.931 -236.03 681.211 -301.448 658.091 -362.402C632.015 -431.204 579.701 -486.884 510.959 -514.151C445.115 -540.27 365.666 -542.226 301.225 -510.546C235.656 -478.311 184.532 -418.887 164.971 -348.059C153.678 -307.158 148.437 -264.732 157.109 -222.62C161.695 -200.324 168.358 -178.633 178.631 -158.327C190.197 -135.491 203.976 -113.866 216.598 -91.6145L207.92 -106.912C216.783 -91.1064 224.648 -74.9735 229.537 -57.4705L224.997 -74.4628C227.719 -64.0796 229.4 -53.5859 229.667 -42.84L229.618 -60.6667C229.63 -52.5948 228.815 -44.7207 226.945 -36.8582L231.738 -54.6598C229.833 -47.6235 227.158 -41.0424 223.548 -34.7205L232.878 -50.621C229.383 -44.9299 225.316 -39.8099 220.542 -35.1357L233.285 -47.6012C228.515 -43.1736 223.344 -39.4109 217.715 -36.138L233.013 -44.8167C226.045 -40.9953 218.746 -38.1242 211.107 -35.9423C216.778 -37.4584 222.428 -38.9662 228.099 -40.4823C216.755 -37.4842 205.169 -36.1613 193.447 -36.0548C199.383 -36.0685 205.333 -36.0763 211.274 -36.1041C195.815 -36.1721 180.547 -38.3139 165.614 -42.2858C171.555 -40.6908 177.489 -39.0817 183.416 -37.4926C157.969 -44.5954 133.982 -55.9728 109.574 -65.8703C80.1259 -77.8135 48.8161 -88.3173 16.9929 -90.8373C-0.807385 -92.2345 -18.5924 -88.4905 -33.1041 -77.5774C-46.7483 -67.3112 -58.52 -48.7072 -59.9774 -31.3959C-61.4347 -14.0845 -58.1372 4.80536 -46.7175 18.7011C-35.2978 32.5969 -19.0389 44.1146 -0.535942 45.5744C10.5602 46.4479 21.4003 48.4068 32.1706 51.1645C26.23 49.5695 20.2954 47.9603 14.369 46.3711C48.7178 55.6309 80.304 72.313 113.758 84.0634C150.312 96.9142 187.364 103.48 226.153 99.495C267.378 95.2713 304.224 76.7562 332.117 46.3235C362.352 13.3443 371.764 -37.4549 364.052 -80.4733C360.063 -102.734 353.044 -124.641 342.808 -144.799C331.617 -166.831 318.386 -187.747 306.133 -209.18L314.812 -193.882C305.13 -210.976 296.541 -228.505 291.305 -247.512L295.845 -230.519C291.723 -246.177 289.729 -262.169 289.633 -278.342L289.682 -260.515C289.78 -278.181 292.125 -295.634 296.589 -312.729L291.796 -294.927C296.799 -313.386 304.145 -330.996 313.775 -347.532L304.445 -331.632C313.476 -346.78 324.271 -360.642 336.866 -372.988L324.122 -360.522C334.817 -370.749 346.539 -379.667 359.353 -387.084L344.055 -378.406C357.391 -385.919 371.514 -391.595 386.306 -395.55L369.314 -391.01C384.73 -394.952 400.469 -396.936 416.383 -397.124L398.556 -397.075C417.316 -397.098 435.859 -394.627 453.966 -389.772C448.026 -391.367 442.091 -392.976 436.165 -394.565C453.551 -389.731 470.14 -382.795 485.756 -373.734C480.453 -376.85 475.144 -379.953 469.855 -383.064C484.104 -374.575 497.18 -364.474 508.844 -352.662C504.691 -356.903 500.525 -361.151 496.378 -365.406C507.173 -354.207 516.287 -341.808 524.043 -328.338L515.364 -343.636C527.101 -322.749 535.213 -300.252 541.441 -277.169L536.901 -294.161C547.459 -254.058 552.607 -212.826 561.861 -172.458C573.54 -121.434 590.05 -71.7802 622.669 -29.9353C655.708 12.4498 702.531 48.1884 754.224 64.2031C769.648 68.9775 785.498 73.3673 801.534 75.6152C817.341 77.8169 833.495 77.7289 849.392 77.1856C875.037 76.3051 901.26 69.6205 924.988 60.1517C948.791 50.6643 972.175 37.1582 991.711 20.4996C1003.49 10.447 1014.81 -0.560693 1024.81 -12.4243C1034.8 -24.2879 1042.84 -38.0957 1050.68 -51.8357C1063.48 -74.2474 1069.63 -99.4178 1075.45 -124.375C1080.23 -144.915 1083.55 -165.816 1085.36 -186.841C1089.83 -238.816 1087.35 -292.777 1068.7 -342.02C1060.55 -363.523 1050.21 -384.42 1040.69 -405.352C1031.32 -425.993 1021.73 -446.543 1011.66 -466.863C990.158 -510.294 966.624 -553.068 939.511 -593.268C911.569 -634.694 879.016 -671.955 843.604 -707.136C835.139 -715.553 826.424 -723.727 817.543 -731.706C804.801 -743.158 782.56 -747.99 766 -745.786C749.441 -743.583 730.754 -733.773 720.986 -720.11C710.493 -705.426 703.647 -686.878 706.906 -668.567C710.151 -650.263 718.696 -636.031 732.582 -623.553L732.59 -623.533Z" fill="#E582FB"/>
</svg>
