<svg width="43" height="54" viewBox="0 0 43 54" fill="none" xmlns="http://www.w3.org/2000/svg">
<g clip-path="url(#clip0_322_39)">
<path d="M3.2025 7.98101C6.8376 6.26128 6.71403 0.113541 10.0299 0.000266229C13.6959 -0.123305 11.8011 6.11712 17.6502 9.07257C22.6446 11.5955 14.0151 14.3759 11.8114 20.5854C11.348 21.8932 10.6272 22.8509 9.5356 22.9127C4.5824 23.1702 10.3491 16.2295 1.79171 12.79C1.00909 12.4811 -0.154555 10.9262 0.0102073 10.1744C0.236758 9.16524 1.8638 8.60917 3.2025 7.97071L3.2025 7.98101Z" fill="#F7CE46"/>
</g>
<g clip-path="url(#clip1_322_39)">
<path d="M24.8283 45.9884C21.2282 47.7147 21.3505 53.886 18.0666 53.9997C14.4359 54.1237 16.3124 47.8594 10.5196 44.8927C5.57329 42.3601 14.1197 39.5691 16.3022 33.3359C16.7612 32.023 17.4751 31.0617 18.5561 30.9997C23.4616 30.7412 17.7504 37.7084 26.2255 41.161C27.0006 41.4711 28.153 43.032 27.9898 43.7866C27.7655 44.7997 26.1541 45.3579 24.8283 45.9988V45.9884Z" fill="#6966FF"/>
</g>
<g clip-path="url(#clip2_322_39)">
<path d="M39.814 25.2737C37.0823 26.5103 37.1752 30.9312 34.6834 31.0126C31.9285 31.1015 33.3524 26.614 28.9569 24.4887C25.2038 22.6745 31.6886 20.6751 33.3447 16.2098C33.6929 15.2694 34.2346 14.5807 35.0549 14.5363C38.7771 14.3511 34.4435 19.3422 40.8742 21.8155C41.4623 22.0376 42.3368 23.1558 42.213 23.6964C42.0427 24.4221 40.82 24.822 39.814 25.2811V25.2737Z" fill="#E582FB"/>
</g>
<defs>
<clipPath id="clip0_322_39">
<rect width="19.1847" height="22.9124" fill="white" transform="translate(19.1846 22.9126) rotate(-180)"/>
</clipPath>
<clipPath id="clip1_322_39">
<rect width="19" height="23" fill="white" transform="translate(9 31)"/>
</clipPath>
<clipPath id="clip2_322_39">
<rect width="14.4168" height="16.4764" fill="white" transform="translate(27.804 14.5361)"/>
</clipPath>
</defs>
</svg>
