<svg width="393" height="852" viewBox="0 0 393 852" fill="none" xmlns="http://www.w3.org/2000/svg">
<path d="M77.6746 956.859C94.2194 958.936 107.87 949.539 115.728 937.614C128.46 918.324 107.771 951.441 118.74 944.595C129.648 937.794 143.545 942.374 150.894 952.305C173.784 983.274 183.92 969.613 215.336 974.4C239.008 977.991 262.413 981.077 286.283 983.512C318.758 986.857 310.831 1012.2 315.263 987.105L321.109 953.931C322.325 947.003 327.202 933.844 335.337 933.437C358.192 932.312 373.771 966.569 379.821 984.754C384.663 999.381 409.937 957.001 413.727 971.681C419.335 993.429 436.754 1006.86 459.936 1007.09C469.442 1007.17 476.039 1004.08 482.053 996.828C493.541 982.915 589.63 219.519 592.626 202.01C600.963 153.178 590.74 104.771 562.032 63.5103C533.935 23.0858 489.805 -4.69729 438.473 -6.55286C393.847 -8.15372 362.649 23.6601 356.704 63.8484L349.424 113.021C348.632 118.298 344.362 123.903 340.757 125.921C322.647 136.024 306.079 111.737 297.792 97.8363C291.443 87.165 285.173 77.1851 277.322 67.5337C253.024 37.7263 209.738 15.5537 171.063 29.1629C125.748 45.0948 165.673 122.983 146.295 137.542C143.627 139.545 137.579 141.076 133.434 140.352C113.896 136.907 103.449 121.585 79.101 115.237C46.9222 106.842 14.6111 120.139 -1.13378 147.76C-6.51016 157.188 -102.141 914.453 -103.439 925.146C-104.096 930.44 -99.6465 934.478 -94.3382 935.136L77.7018 956.862L77.6746 956.859Z" fill="#F7CE46"/>
</svg>
