<svg width="154" height="150" viewBox="0 0 154 150" fill="none" xmlns="http://www.w3.org/2000/svg">
<path d="M102.797 149.531C109.22 149.531 114.427 144.324 114.427 137.901C114.427 131.478 109.22 126.271 102.797 126.271C96.3739 126.271 91.167 131.478 91.167 137.901C91.167 144.324 96.3739 149.531 102.797 149.531Z" fill="#140D0A"/>
<path d="M102.797 149.531C109.22 149.531 114.427 144.324 114.427 137.901C114.427 131.478 109.22 126.271 102.797 126.271C96.3739 126.271 91.167 131.478 91.167 137.901C91.167 144.324 96.3739 149.531 102.797 149.531Z" fill="#140D0A"/>
<path d="M46.3867 149.531C52.8098 149.531 58.0167 144.324 58.0167 137.901C58.0167 131.478 52.8098 126.271 46.3867 126.271C39.9636 126.271 34.7567 131.478 34.7567 137.901C34.7567 144.324 39.9636 149.531 46.3867 149.531Z" fill="#140D0A"/>
<path d="M117.727 138.161C117.727 138.161 63.6367 137.721 38.2767 137.721C31.6767 137.721 13.5568 135.071 11.3568 113.001C9.65676 96.0507 10.4867 75.1307 10.8867 56.5407C11.1867 42.6007 22.8668 31.1907 36.8068 31.1907H120.857C135.317 31.1907 146.977 43.0107 146.777 57.4707C146.527 75.1707 145.977 96.8007 145.977 111.231C145.977 123.561 130.057 138.151 117.727 138.151V138.161Z" fill="#6966FF"/>
<path d="M55.0865 20.7807C54.0665 17.5507 51.7465 11.7607 55.5565 9.6007C58.0065 8.2107 62.7065 9.2507 65.3865 9.3107C72.2365 9.4707 79.1265 9.4907 85.9765 9.5307C90.3665 9.5607 94.8665 8.6507 99.2465 9.2207C104.997 9.9607 102.336 17.8707 100.686 21.4607C98.2765 26.6807 106.036 31.2607 108.456 26.0007C111.516 19.3607 114.016 9.4407 108.066 3.5407C102.646 -1.8393 93.4165 0.540703 86.6565 0.550703C81.4665 0.550703 76.2765 0.330703 71.0865 0.360703C65.8965 0.390703 60.9265 -0.359297 55.9865 0.220703C43.9065 1.6407 43.4865 13.9507 46.4065 23.1807C48.1465 28.6807 56.8365 26.3307 55.0865 20.7907V20.7807Z" fill="#140D0A"/>
<path d="M28.2167 95.3507C32.8767 99.0607 36.9767 103.571 39.3967 109.091C40.5967 111.831 41.6167 115.881 37.2167 114.881C34.5267 114.271 31.5667 111.181 29.5267 109.461C20.6767 102.001 13.6067 92.8807 8.3167 82.6207C5.6567 77.4707 -2.11326 82.0207 0.546738 87.1607C4.68674 95.1807 9.89675 102.611 16.1167 109.161C21.4767 114.811 29.1967 123.021 37.2767 124.231C45.3567 125.441 50.5667 118.521 49.3167 110.881C47.8967 102.241 41.2367 94.2807 34.5967 89.0007C30.1067 85.4307 23.6967 91.7607 28.2367 95.3607L28.2167 95.3507Z" fill="#140D0A"/>
<path d="M145.077 103.511C142.397 107.311 139.067 110.681 135.127 113.181C133.157 114.431 131.647 115.781 130.697 113.171C130.047 111.381 131.517 108.331 132.277 106.781C136.307 98.6407 144.437 91.8407 150.467 85.1907C154.347 80.9107 148.007 74.5207 144.107 78.8307C138.347 85.1807 131.987 91.3307 126.987 98.3107C123.267 103.501 120.367 110.351 122.257 116.811C127.437 134.561 147.697 115.361 152.847 108.061C156.197 103.321 148.397 98.8207 145.077 103.521V103.511Z" fill="#140D0A"/>
<path d="M101.177 67.7307C101.777 69.2807 102.607 70.5507 104.087 71.3907C105.467 72.1707 107.297 72.4707 108.837 72.0207C112.037 71.0807 113.927 67.7807 113.177 64.5407C112.517 61.6707 109.807 59.7007 106.887 59.8107C103.967 59.9207 101.737 61.7707 100.057 64.0007C99.3967 64.8707 99.3267 66.4707 99.6067 67.4707C99.8967 68.5107 100.697 69.6507 101.677 70.1607C102.717 70.7107 103.987 70.9907 105.147 70.6107C106.307 70.2307 107.087 69.5307 107.837 68.5407C107.377 69.1107 107.307 69.2307 107.617 68.8707C107.737 68.7507 107.867 68.6307 107.997 68.5107C107.417 68.9307 107.327 69.0107 107.717 68.7507C107.857 68.6607 108.007 68.5807 108.157 68.5007C107.487 68.7607 107.317 68.8407 107.647 68.7407C108.007 68.6407 107.787 68.6607 107.017 68.8007C107.497 68.8007 107.317 68.7707 106.467 68.7007C105.997 68.5707 105.587 68.3407 105.237 68.0007C103.927 66.7407 104.187 65.0607 105.197 64.0807C105.917 63.3807 106.997 63.0507 107.977 63.3307C109.007 63.6207 109.497 64.4007 109.867 65.3407C109.427 64.2107 108.877 63.2807 107.797 62.6507C106.837 62.0907 105.407 61.8507 104.327 62.2007C102.197 62.8907 100.267 65.3907 101.187 67.7407L101.177 67.7307Z" fill="#140D0A"/>
<path d="M49.4768 67.8507C51.1068 69.5507 53.1968 70.9707 55.6468 70.9807C58.4968 70.9907 61.2867 69.1107 62.0167 66.2907C62.7967 63.2807 60.9867 60.2607 58.0067 59.4307C55.0267 58.6007 51.9067 60.1907 51.1367 63.1907C50.5567 65.4707 51.8768 68.1807 54.2768 68.7307C56.6768 69.2807 59.1867 68.0307 59.8167 65.5907C59.3867 67.2707 57.2067 68.6107 55.5167 68.0907C56.3167 68.3407 54.0967 67.1807 54.1967 67.2707C52.9467 66.2207 52.9568 63.7607 54.0868 62.6507L54.6068 62.2607C55.2568 62.0307 55.4168 61.9607 55.0868 62.0607C54.8468 62.1207 54.9168 62.1107 55.2968 62.0407C55.6268 61.9607 55.9568 61.9607 56.2868 62.0607C56.7068 62.1807 57.0268 62.3607 56.4168 62.0907C55.9768 61.9007 57.0268 62.7107 56.4868 62.1407C56.2768 61.9207 56.0468 61.7107 55.8368 61.4907C54.2068 59.7907 51.0968 59.7207 49.4768 61.4907C47.8568 63.2607 47.7368 66.0407 49.4768 67.8507Z" fill="#140D0A"/>
<path d="M57.1267 84.4107C56.7167 99.1507 74.4867 104.031 82.8967 92.8307L75.8267 93.7407C80.8367 97.9607 87.3068 100.731 93.7268 97.7507C100.147 94.7707 102.037 87.9807 99.0767 81.9307C96.5267 76.7307 88.7668 81.2907 91.3068 86.4707C92.7268 89.3807 88.8967 90.1307 87.0767 89.8807C85.2567 89.6307 83.6267 88.5707 82.1967 87.3707C79.7867 85.3507 76.9667 85.8307 75.1267 88.2807C71.7267 92.8107 65.9967 89.3007 66.1267 84.4007C66.2867 78.6107 57.2867 78.6107 57.1267 84.4007V84.4107Z" fill="#140D0A"/>
</svg>
