<svg width="184" height="150" viewBox="0 0 184 150" fill="none" xmlns="http://www.w3.org/2000/svg">
<path d="M117.603 149.531C124.026 149.531 129.233 144.324 129.233 137.901C129.233 131.478 124.026 126.271 117.603 126.271C111.18 126.271 105.973 131.478 105.973 137.901C105.973 144.324 111.18 149.531 117.603 149.531Z" fill="#140D0A"/>
<path d="M61.1926 149.531C67.6157 149.531 72.8226 144.324 72.8226 137.901C72.8226 131.478 67.6157 126.271 61.1926 126.271C54.7696 126.271 49.5626 131.478 49.5626 137.901C49.5626 144.324 54.7696 149.531 61.1926 149.531Z" fill="#140D0A"/>
<path d="M132.533 138.161C132.533 138.161 78.4426 137.721 53.0826 137.721C46.4826 137.721 28.3626 135.071 26.1626 113.001C24.4626 96.0507 25.2926 75.1307 25.6926 56.5407C25.9926 42.6007 37.6726 31.1907 51.6126 31.1907H135.663C150.123 31.1907 161.783 43.0107 161.583 57.4707C161.333 75.1707 160.783 96.8007 160.783 111.231C160.783 123.561 144.863 138.151 132.533 138.151V138.161Z" fill="#98FB82"/>
<path d="M69.8824 20.7807C68.8624 17.5507 66.5424 11.7607 70.3524 9.6007C72.8024 8.2107 77.5024 9.2507 80.1824 9.3107C87.0324 9.4707 93.9224 9.4907 100.772 9.5307C105.162 9.5607 109.662 8.6507 114.042 9.2207C119.792 9.9607 117.132 17.8707 115.482 21.4607C113.072 26.6807 120.832 31.2607 123.252 26.0007C126.312 19.3607 128.812 9.4407 122.862 3.5407C117.442 -1.8393 108.212 0.540703 101.452 0.550703C96.2624 0.550703 91.0724 0.330703 85.8824 0.360703C80.6924 0.390703 75.7224 -0.359297 70.7824 0.220703C58.7024 1.6407 58.2824 13.9507 61.2024 23.1807C62.9424 28.6807 71.6324 26.3307 69.8824 20.7907V20.7807Z" fill="#140D0A"/>
<path d="M35.3726 76.5207C30.1926 70.0107 22.4826 63.5507 14.0926 61.8807C6.29261 60.3307 -1.12737 65.3407 0.142629 73.8407C1.32263 81.7207 9.15262 89.1507 14.6326 94.4407C21.3226 100.901 28.9626 106.311 37.2126 110.571C42.3526 113.221 46.9126 105.461 41.7526 102.801C31.4726 97.5007 22.3926 90.4307 14.9126 81.5907C13.2926 79.6807 10.7726 77.2007 9.88262 74.7907C8.31262 70.5207 10.9126 69.9907 14.4326 71.3207C20.2826 73.5207 25.1926 78.0907 29.0126 82.8907C32.6126 87.4207 38.9526 81.0207 35.3726 76.5307V76.5207Z" fill="#140D0A"/>
<path d="M160.553 86.7507C163.233 82.9507 166.563 79.5807 170.503 77.0807C172.473 75.8307 173.983 74.4807 174.933 77.0907C175.583 78.8807 174.113 81.9307 173.353 83.4807C169.323 91.6207 161.193 98.4207 155.163 105.071C151.283 109.351 157.623 115.741 161.523 111.431C167.283 105.081 173.643 98.9307 178.643 91.9507C182.363 86.7607 185.263 79.9107 183.373 73.4507C178.193 55.7007 157.933 74.9007 152.783 82.2007C149.433 86.9407 157.233 91.4407 160.553 86.7407V86.7507Z" fill="#140D0A"/>
<path d="M115.983 67.7307C116.583 69.2807 117.413 70.5507 118.893 71.3907C120.273 72.1707 122.103 72.4707 123.643 72.0207C126.843 71.0807 128.733 67.7807 127.983 64.5407C127.323 61.6707 124.613 59.7007 121.693 59.8107C118.773 59.9207 116.543 61.7707 114.863 64.0007C114.203 64.8707 114.133 66.4707 114.413 67.4707C114.703 68.5107 115.503 69.6507 116.483 70.1607C117.523 70.7107 118.793 70.9907 119.953 70.6107C121.113 70.2307 121.893 69.5307 122.643 68.5407C122.183 69.1107 122.113 69.2307 122.423 68.8707C122.543 68.7507 122.673 68.6307 122.803 68.5107C122.223 68.9307 122.133 69.0107 122.523 68.7507C122.663 68.6607 122.813 68.5807 122.963 68.5007C122.293 68.7607 122.123 68.8407 122.453 68.7407C122.813 68.6407 122.593 68.6607 121.823 68.8007C122.303 68.8007 122.123 68.7707 121.273 68.7007C120.803 68.5707 120.393 68.3407 120.043 68.0007C118.733 66.7407 118.993 65.0607 120.003 64.0807C120.723 63.3807 121.803 63.0507 122.783 63.3307C123.813 63.6207 124.303 64.4007 124.673 65.3407C124.233 64.2107 123.683 63.2807 122.603 62.6507C121.643 62.0907 120.213 61.8507 119.133 62.2007C117.003 62.8907 115.073 65.3907 115.993 67.7407L115.983 67.7307Z" fill="#140D0A"/>
<path d="M64.2829 67.8507C65.9129 69.5507 68.0029 70.9707 70.4529 70.9807C73.3029 70.9907 76.0929 69.1107 76.8229 66.2907C77.6029 63.2807 75.7929 60.2607 72.8129 59.4307C69.8329 58.6007 66.7129 60.1907 65.9429 63.1907C65.3629 65.4707 66.6829 68.1807 69.0829 68.7307C71.4829 69.2807 73.9929 68.0307 74.6229 65.5907C74.1929 67.2707 72.0129 68.6107 70.3229 68.0907C71.1229 68.3407 68.9029 67.1807 69.0029 67.2707C67.7529 66.2207 67.7629 63.7607 68.8929 62.6507L69.4129 62.2607C70.0629 62.0307 70.2229 61.9607 69.8929 62.0607C69.6529 62.1207 69.7229 62.1107 70.1029 62.0407C70.4329 61.9607 70.7629 61.9607 71.0929 62.0607C71.5129 62.1807 71.8329 62.3607 71.2229 62.0907C70.7829 61.9007 71.8328 62.7107 71.2928 62.1407C71.0828 61.9207 70.8529 61.7107 70.6429 61.4907C69.0129 59.7907 65.9029 59.7207 64.2829 61.4907C62.6629 63.2607 62.5429 66.0407 64.2829 67.8507Z" fill="#140D0A"/>
<path d="M75.6126 87.5507C86.6726 97.3107 102.193 96.3507 112.413 85.8307C116.453 81.6707 110.093 75.3007 106.053 79.4707C99.4126 86.3007 89.3926 87.7307 81.9826 81.1907C77.6526 77.3707 71.2626 83.7107 75.6226 87.5507H75.6126Z" fill="#140D0A"/>
</svg>
