<svg width="192" height="150" viewBox="0 0 192 150" fill="none" xmlns="http://www.w3.org/2000/svg">
<path d="M117.603 149.521C124.026 149.521 129.233 144.314 129.233 137.891C129.233 131.468 124.026 126.261 117.603 126.261C111.18 126.261 105.973 131.468 105.973 137.891C105.973 144.314 111.18 149.521 117.603 149.521Z" fill="#140D0A"/>
<path d="M61.1926 149.521C67.6157 149.521 72.8226 144.314 72.8226 137.891C72.8226 131.468 67.6157 126.261 61.1926 126.261C54.7696 126.261 49.5626 131.468 49.5626 137.891C49.5626 144.314 54.7696 149.521 61.1926 149.521Z" fill="#140D0A"/>
<path d="M117.603 149.521C124.026 149.521 129.233 144.314 129.233 137.891C129.233 131.468 124.026 126.261 117.603 126.261C111.18 126.261 105.973 131.468 105.973 137.891C105.973 144.314 111.18 149.521 117.603 149.521Z" fill="#140D0A"/>
<path d="M61.1926 149.521C67.6157 149.521 72.8226 144.314 72.8226 137.891C72.8226 131.468 67.6157 126.261 61.1926 126.261C54.7696 126.261 49.5626 131.468 49.5626 137.891C49.5626 144.314 54.7696 149.521 61.1926 149.521Z" fill="#140D0A"/>
<path d="M132.533 138.151C132.533 138.151 78.4429 137.711 53.0829 137.711C46.4829 137.711 28.3628 135.061 26.1628 112.991C24.4628 96.0407 25.2929 75.1207 25.6929 56.5307C25.9929 42.5907 37.6728 31.1807 51.6128 31.1807H135.663C150.123 31.1807 161.783 43.0007 161.583 57.4607C161.333 75.1607 160.783 96.7907 160.783 111.221C160.783 123.551 144.863 138.141 132.533 138.141V138.151Z" fill="#F77646"/>
<path d="M69.8926 20.7807C68.8726 17.5507 66.5526 11.7607 70.3626 9.6007C72.8126 8.2107 77.5126 9.2507 80.1926 9.3107C87.0426 9.4707 93.9326 9.4907 100.783 9.5307C105.173 9.5607 109.673 8.6507 114.053 9.2207C119.803 9.9607 117.143 17.8707 115.493 21.4607C113.083 26.6807 120.843 31.2607 123.263 26.0007C126.323 19.3607 128.823 9.4407 122.873 3.5407C117.453 -1.8393 108.223 0.540703 101.463 0.550703C96.2727 0.550703 91.0826 0.330703 85.8926 0.360703C80.7026 0.390703 75.7326 -0.359297 70.7926 0.220703C58.7126 1.6407 58.2927 13.9507 61.2127 23.1807C62.9527 28.6807 71.6426 26.3307 69.8926 20.7907V20.7807Z" fill="#140D0A"/>
<path d="M35.3726 76.5107C30.1926 70.0007 22.4827 63.5407 14.0927 61.8707C6.2927 60.3207 -1.12737 65.3307 0.142627 73.8307C1.32263 81.7107 9.15262 89.1407 14.6326 94.4307C21.3226 100.891 28.9627 106.301 37.2127 110.561C42.3527 113.211 46.9126 105.451 41.7526 102.791C31.4726 97.4907 22.3926 90.4207 14.9126 81.5807C13.2926 79.6707 10.7726 77.1907 9.88262 74.7807C8.31262 70.5107 10.9127 69.9807 14.4327 71.3107C20.2827 73.5107 25.1926 78.0807 29.0126 82.8807C32.6126 87.4107 38.9526 81.0107 35.3726 76.5207V76.5107Z" fill="#140D0A"/>
<path d="M164.733 82.2307C168.683 81.5607 176.493 80.4707 180.073 82.8007C181.683 82.8307 182.213 83.7607 181.673 85.5807C180.993 86.3507 180.203 87.0007 179.313 87.5107C177.833 88.4407 176.183 88.9707 174.503 89.4007C166.053 91.5407 156.573 90.9607 147.913 91.3807C142.143 91.6607 142.113 100.661 147.913 100.381C155.953 99.9907 164.143 100.001 172.133 98.9307C178.573 98.0707 185.403 95.8907 189.323 90.3307C193.213 84.8107 191.743 78.2807 185.663 75.2907C178.743 71.8807 169.703 72.3007 162.353 73.5507C156.653 74.5207 159.073 83.1907 164.743 82.2307H164.733Z" fill="#140D0A"/>
<path d="M115.983 67.7207C116.583 69.2707 117.413 70.5407 118.893 71.3807C120.273 72.1607 122.103 72.4607 123.643 72.0107C126.843 71.0707 128.733 67.7707 127.983 64.5307C127.323 61.6607 124.613 59.6907 121.693 59.8007C118.773 59.9107 116.543 61.7607 114.863 63.9907C114.203 64.8607 114.133 66.4607 114.413 67.4607C114.703 68.5007 115.503 69.6407 116.483 70.1507C117.523 70.7007 118.793 70.9807 119.953 70.6007C121.113 70.2207 121.893 69.5207 122.643 68.5307C122.183 69.1007 122.113 69.2207 122.423 68.8607C122.543 68.7407 122.673 68.6207 122.803 68.5007C122.223 68.9207 122.133 69.0007 122.523 68.7407C122.663 68.6507 122.813 68.5707 122.963 68.4907C122.293 68.7507 122.123 68.8307 122.453 68.7307C122.813 68.6307 122.593 68.6507 121.823 68.7907C122.303 68.7907 122.123 68.7607 121.273 68.6907C120.803 68.5607 120.393 68.3307 120.043 67.9907C118.733 66.7307 118.993 65.0507 120.003 64.0707C120.723 63.3707 121.803 63.0407 122.783 63.3207C123.813 63.6107 124.303 64.3907 124.673 65.3307C124.233 64.2007 123.683 63.2707 122.603 62.6407C121.643 62.0807 120.213 61.8407 119.133 62.1907C117.003 62.8807 115.073 65.3807 115.993 67.7307L115.983 67.7207Z" fill="#140D0A"/>
<path d="M80.3426 92.6407C92.9426 96.7807 106.353 95.2507 117.893 88.8407C122.963 86.0307 118.423 78.2607 113.353 81.0707C103.813 86.3607 93.0827 87.3607 82.7327 83.9607C77.2127 82.1507 74.8526 90.8407 80.3426 92.6407Z" fill="#140D0A"/>
<path d="M68.5025 70.3407C70.5025 68.0807 72.9525 65.4707 76.2525 65.7107C79.5525 65.9507 82.1026 69.0507 84.0526 71.4907C87.6726 76.0107 94.0025 69.6107 90.4125 65.1307C86.8225 60.6507 82.1726 56.8807 76.3126 56.7107C70.4526 56.5407 65.8025 59.8307 62.1325 63.9807C58.4625 68.1307 64.6525 74.6907 68.4925 70.3407H68.5025Z" fill="#140D0A"/>
<path d="M117.603 149.521C124.026 149.521 129.233 144.314 129.233 137.891C129.233 131.468 124.026 126.261 117.603 126.261C111.18 126.261 105.973 131.468 105.973 137.891C105.973 144.314 111.18 149.521 117.603 149.521Z" fill="#140D0A"/>
<path d="M61.1926 149.521C67.6157 149.521 72.8226 144.314 72.8226 137.891C72.8226 131.468 67.6157 126.261 61.1926 126.261C54.7696 126.261 49.5626 131.468 49.5626 137.891C49.5626 144.314 54.7696 149.521 61.1926 149.521Z" fill="#140D0A"/>
<path d="M132.533 138.151C132.533 138.151 78.4429 137.711 53.0829 137.711C46.4829 137.711 28.3628 135.061 26.1628 112.991C24.4628 96.0407 25.2929 75.1207 25.6929 56.5307C25.9929 42.5907 37.6728 31.1807 51.6128 31.1807H135.663C150.123 31.1807 161.783 43.0007 161.583 57.4607C161.333 75.1607 160.783 96.7907 160.783 111.221C160.783 123.551 144.863 138.141 132.533 138.141V138.151Z" fill="#F77646"/>
<path d="M69.8926 20.7807C68.8726 17.5507 66.5526 11.7607 70.3626 9.6007C72.8126 8.2107 77.5126 9.2507 80.1926 9.3107C87.0426 9.4707 93.9326 9.4907 100.783 9.5307C105.173 9.5607 109.673 8.6507 114.053 9.2207C119.803 9.9607 117.143 17.8707 115.493 21.4607C113.083 26.6807 120.843 31.2607 123.263 26.0007C126.323 19.3607 128.823 9.4407 122.873 3.5407C117.453 -1.8393 108.223 0.540703 101.463 0.550703C96.2727 0.550703 91.0826 0.330703 85.8926 0.360703C80.7026 0.390703 75.7326 -0.359297 70.7926 0.220703C58.7126 1.6407 58.2927 13.9507 61.2127 23.1807C62.9527 28.6807 71.6426 26.3307 69.8926 20.7907V20.7807Z" fill="#140D0A"/>
<path d="M35.3726 76.5107C30.1926 70.0007 22.4827 63.5407 14.0927 61.8707C6.2927 60.3207 -1.12737 65.3307 0.142627 73.8307C1.32263 81.7107 9.15262 89.1407 14.6326 94.4307C21.3226 100.891 28.9627 106.301 37.2127 110.561C42.3527 113.211 46.9126 105.451 41.7526 102.791C31.4726 97.4907 22.3926 90.4207 14.9126 81.5807C13.2926 79.6707 10.7726 77.1907 9.88262 74.7807C8.31262 70.5107 10.9127 69.9807 14.4327 71.3107C20.2827 73.5107 25.1926 78.0807 29.0126 82.8807C32.6126 87.4107 38.9526 81.0107 35.3726 76.5207V76.5107Z" fill="#140D0A"/>
<path d="M164.733 82.2307C168.683 81.5607 176.493 80.4707 180.073 82.8007C181.683 82.8307 182.213 83.7607 181.673 85.5807C180.993 86.3507 180.203 87.0007 179.313 87.5107C177.833 88.4407 176.183 88.9707 174.503 89.4007C166.053 91.5407 156.573 90.9607 147.913 91.3807C142.143 91.6607 142.113 100.661 147.913 100.381C155.953 99.9907 164.143 100.001 172.133 98.9307C178.573 98.0707 185.403 95.8907 189.323 90.3307C193.213 84.8107 191.743 78.2807 185.663 75.2907C178.743 71.8807 169.703 72.3007 162.353 73.5507C156.653 74.5207 159.073 83.1907 164.743 82.2307H164.733Z" fill="#140D0A"/>
<path d="M115.983 67.7207C116.583 69.2707 117.413 70.5407 118.893 71.3807C120.273 72.1607 122.103 72.4607 123.643 72.0107C126.843 71.0707 128.733 67.7707 127.983 64.5307C127.323 61.6607 124.613 59.6907 121.693 59.8007C118.773 59.9107 116.543 61.7607 114.863 63.9907C114.203 64.8607 114.133 66.4607 114.413 67.4607C114.703 68.5007 115.503 69.6407 116.483 70.1507C117.523 70.7007 118.793 70.9807 119.953 70.6007C121.113 70.2207 121.893 69.5207 122.643 68.5307C122.183 69.1007 122.113 69.2207 122.423 68.8607C122.543 68.7407 122.673 68.6207 122.803 68.5007C122.223 68.9207 122.133 69.0007 122.523 68.7407C122.663 68.6507 122.813 68.5707 122.963 68.4907C122.293 68.7507 122.123 68.8307 122.453 68.7307C122.813 68.6307 122.593 68.6507 121.823 68.7907C122.303 68.7907 122.123 68.7607 121.273 68.6907C120.803 68.5607 120.393 68.3307 120.043 67.9907C118.733 66.7307 118.993 65.0507 120.003 64.0707C120.723 63.3707 121.803 63.0407 122.783 63.3207C123.813 63.6107 124.303 64.3907 124.673 65.3307C124.233 64.2007 123.683 63.2707 122.603 62.6407C121.643 62.0807 120.213 61.8407 119.133 62.1907C117.003 62.8807 115.073 65.3807 115.993 67.7307L115.983 67.7207Z" fill="#140D0A"/>
<path d="M80.3426 92.6407C92.9426 96.7807 106.353 95.2507 117.893 88.8407C122.963 86.0307 118.423 78.2607 113.353 81.0707C103.813 86.3607 93.0827 87.3607 82.7327 83.9607C77.2127 82.1507 74.8526 90.8407 80.3426 92.6407Z" fill="#140D0A"/>
<path d="M68.5025 70.3407C70.5025 68.0807 72.9525 65.4707 76.2525 65.7107C79.5525 65.9507 82.1026 69.0507 84.0526 71.4907C87.6726 76.0107 94.0025 69.6107 90.4125 65.1307C86.8225 60.6507 82.1726 56.8807 76.3126 56.7107C70.4526 56.5407 65.8025 59.8307 62.1325 63.9807C58.4625 68.1307 64.6525 74.6907 68.4925 70.3407H68.5025Z" fill="#140D0A"/>
<path d="M117.603 149.521C124.026 149.521 129.233 144.314 129.233 137.891C129.233 131.468 124.026 126.261 117.603 126.261C111.18 126.261 105.973 131.468 105.973 137.891C105.973 144.314 111.18 149.521 117.603 149.521Z" fill="#140D0A"/>
<path d="M61.1926 149.521C67.6157 149.521 72.8226 144.314 72.8226 137.891C72.8226 131.468 67.6157 126.261 61.1926 126.261C54.7696 126.261 49.5626 131.468 49.5626 137.891C49.5626 144.314 54.7696 149.521 61.1926 149.521Z" fill="#140D0A"/>
<path d="M132.533 138.151C132.533 138.151 78.4429 137.711 53.0829 137.711C46.4829 137.711 28.3628 135.061 26.1628 112.991C24.4628 96.0407 25.2929 75.1207 25.6929 56.5307C25.9929 42.5907 37.6728 31.1807 51.6128 31.1807H135.663C150.123 31.1807 161.783 43.0007 161.583 57.4607C161.333 75.1607 160.783 96.7907 160.783 111.221C160.783 123.551 144.863 138.141 132.533 138.141V138.151Z" fill="#98FB82"/>
<path d="M69.8926 20.7807C68.8726 17.5507 66.5526 11.7607 70.3626 9.6007C72.8126 8.2107 77.5126 9.2507 80.1926 9.3107C87.0426 9.4707 93.9326 9.4907 100.783 9.5307C105.173 9.5607 109.673 8.6507 114.053 9.2207C119.803 9.9607 117.143 17.8707 115.493 21.4607C113.083 26.6807 120.843 31.2607 123.263 26.0007C126.323 19.3607 128.823 9.4407 122.873 3.5407C117.453 -1.8393 108.223 0.540703 101.463 0.550703C96.2727 0.550703 91.0826 0.330703 85.8926 0.360703C80.7026 0.390703 75.7326 -0.359297 70.7926 0.220703C58.7126 1.6407 58.2927 13.9507 61.2127 23.1807C62.9527 28.6807 71.6426 26.3307 69.8926 20.7907V20.7807Z" fill="#140D0A"/>
<path d="M35.3726 76.5107C30.1926 70.0007 22.4827 63.5407 14.0927 61.8707C6.2927 60.3207 -1.12737 65.3307 0.142627 73.8307C1.32263 81.7107 9.15262 89.1407 14.6326 94.4307C21.3226 100.891 28.9627 106.301 37.2127 110.561C42.3527 113.211 46.9126 105.451 41.7526 102.791C31.4726 97.4907 22.3926 90.4207 14.9126 81.5807C13.2926 79.6707 10.7726 77.1907 9.88262 74.7807C8.31262 70.5107 10.9127 69.9807 14.4327 71.3107C20.2827 73.5107 25.1926 78.0807 29.0126 82.8807C32.6126 87.4107 38.9526 81.0107 35.3726 76.5207V76.5107Z" fill="#140D0A"/>
<path d="M164.733 82.2307C168.683 81.5607 176.493 80.4707 180.073 82.8007C181.683 82.8307 182.213 83.7607 181.673 85.5807C180.993 86.3507 180.203 87.0007 179.313 87.5107C177.833 88.4407 176.183 88.9707 174.503 89.4007C166.053 91.5407 156.573 90.9607 147.913 91.3807C142.143 91.6607 142.113 100.661 147.913 100.381C155.953 99.9907 164.143 100.001 172.133 98.9307C178.573 98.0707 185.403 95.8907 189.323 90.3307C193.213 84.8107 191.743 78.2807 185.663 75.2907C178.743 71.8807 169.703 72.3007 162.353 73.5507C156.653 74.5207 159.073 83.1907 164.743 82.2307H164.733Z" fill="#140D0A"/>
<path d="M115.983 67.7207C116.583 69.2707 117.413 70.5407 118.893 71.3807C120.273 72.1607 122.103 72.4607 123.643 72.0107C126.843 71.0707 128.733 67.7707 127.983 64.5307C127.323 61.6607 124.613 59.6907 121.693 59.8007C118.773 59.9107 116.543 61.7607 114.863 63.9907C114.203 64.8607 114.133 66.4607 114.413 67.4607C114.703 68.5007 115.503 69.6407 116.483 70.1507C117.523 70.7007 118.793 70.9807 119.953 70.6007C121.113 70.2207 121.893 69.5207 122.643 68.5307C122.183 69.1007 122.113 69.2207 122.423 68.8607C122.543 68.7407 122.673 68.6207 122.803 68.5007C122.223 68.9207 122.133 69.0007 122.523 68.7407C122.663 68.6507 122.813 68.5707 122.963 68.4907C122.293 68.7507 122.123 68.8307 122.453 68.7307C122.813 68.6307 122.593 68.6507 121.823 68.7907C122.303 68.7907 122.123 68.7607 121.273 68.6907C120.803 68.5607 120.393 68.3307 120.043 67.9907C118.733 66.7307 118.993 65.0507 120.003 64.0707C120.723 63.3707 121.803 63.0407 122.783 63.3207C123.813 63.6107 124.303 64.3907 124.673 65.3307C124.233 64.2007 123.683 63.2707 122.603 62.6407C121.643 62.0807 120.213 61.8407 119.133 62.1907C117.003 62.8807 115.073 65.3807 115.993 67.7307L115.983 67.7207Z" fill="#140D0A"/>
<path d="M80.3426 92.6407C92.9426 96.7807 106.353 95.2507 117.893 88.8407C122.963 86.0307 118.423 78.2607 113.353 81.0707C103.813 86.3607 93.0827 87.3607 82.7327 83.9607C77.2127 82.1507 74.8526 90.8407 80.3426 92.6407Z" fill="#140D0A"/>
<path d="M68.5025 70.3407C70.5025 68.0807 72.9525 65.4707 76.2525 65.7107C79.5525 65.9507 82.1026 69.0507 84.0526 71.4907C87.6726 76.0107 94.0025 69.6107 90.4125 65.1307C86.8225 60.6507 82.1726 56.8807 76.3126 56.7107C70.4526 56.5407 65.8025 59.8307 62.1325 63.9807C58.4625 68.1307 64.6525 74.6907 68.4925 70.3407H68.5025Z" fill="#140D0A"/>
<path d="M69.8926 20.7807C68.8726 17.5507 66.5526 11.7607 70.3626 9.6007C72.8126 8.2107 77.5126 9.2507 80.1926 9.3107C87.0426 9.4707 93.9326 9.4907 100.783 9.5307C105.173 9.5607 109.673 8.6507 114.053 9.2207C119.803 9.9607 117.143 17.8707 115.493 21.4607C113.083 26.6807 120.843 31.2607 123.263 26.0007C126.323 19.3607 128.823 9.4407 122.873 3.5407C117.453 -1.8393 108.223 0.540703 101.463 0.550703C96.2727 0.550703 91.0826 0.330703 85.8926 0.360703C80.7026 0.390703 75.7326 -0.359297 70.7926 0.220703C58.7126 1.6407 58.2927 13.9507 61.2127 23.1807C62.9527 28.6807 71.6426 26.3307 69.8926 20.7907V20.7807Z" fill="#140D0A"/>
<path d="M35.3726 76.5107C30.1926 70.0007 22.4827 63.5407 14.0927 61.8707C6.2927 60.3207 -1.12737 65.3307 0.142627 73.8307C1.32263 81.7107 9.15262 89.1407 14.6326 94.4307C21.3226 100.891 28.9627 106.301 37.2127 110.561C42.3527 113.211 46.9126 105.451 41.7526 102.791C31.4726 97.4907 22.3926 90.4207 14.9126 81.5807C13.2926 79.6707 10.7726 77.1907 9.88262 74.7807C8.31262 70.5107 10.9127 69.9807 14.4327 71.3107C20.2827 73.5107 25.1926 78.0807 29.0126 82.8807C32.6126 87.4107 38.9526 81.0107 35.3726 76.5207V76.5107Z" fill="#140D0A"/>
<path d="M164.733 82.2307C168.683 81.5607 176.493 80.4707 180.073 82.8007C181.683 82.8307 182.213 83.7607 181.673 85.5807C180.993 86.3507 180.203 87.0007 179.313 87.5107C177.833 88.4407 176.183 88.9707 174.503 89.4007C166.053 91.5407 156.573 90.9607 147.913 91.3807C142.143 91.6607 142.113 100.661 147.913 100.381C155.953 99.9907 164.143 100.001 172.133 98.9307C178.573 98.0707 185.403 95.8907 189.323 90.3307C193.213 84.8107 191.743 78.2807 185.663 75.2907C178.743 71.8807 169.703 72.3007 162.353 73.5507C156.653 74.5207 159.073 83.1907 164.743 82.2307H164.733Z" fill="#140D0A"/>
<path d="M115.983 67.7207C116.583 69.2707 117.413 70.5407 118.893 71.3807C120.273 72.1607 122.103 72.4607 123.643 72.0107C126.843 71.0707 128.733 67.7707 127.983 64.5307C127.323 61.6607 124.613 59.6907 121.693 59.8007C118.773 59.9107 116.543 61.7607 114.863 63.9907C114.203 64.8607 114.133 66.4607 114.413 67.4607C114.703 68.5007 115.503 69.6407 116.483 70.1507C117.523 70.7007 118.793 70.9807 119.953 70.6007C121.113 70.2207 121.893 69.5207 122.643 68.5307C122.183 69.1007 122.113 69.2207 122.423 68.8607C122.543 68.7407 122.673 68.6207 122.803 68.5007C122.223 68.9207 122.133 69.0007 122.523 68.7407C122.663 68.6507 122.813 68.5707 122.963 68.4907C122.293 68.7507 122.123 68.8307 122.453 68.7307C122.813 68.6307 122.593 68.6507 121.823 68.7907C122.303 68.7907 122.123 68.7607 121.273 68.6907C120.803 68.5607 120.393 68.3307 120.043 67.9907C118.733 66.7307 118.993 65.0507 120.003 64.0707C120.723 63.3707 121.803 63.0407 122.783 63.3207C123.813 63.6107 124.303 64.3907 124.673 65.3307C124.233 64.2007 123.683 63.2707 122.603 62.6407C121.643 62.0807 120.213 61.8407 119.133 62.1907C117.003 62.8807 115.073 65.3807 115.993 67.7307L115.983 67.7207Z" fill="#140D0A"/>
<path d="M80.3426 92.6407C92.9426 96.7807 106.353 95.2507 117.893 88.8407C122.963 86.0307 118.423 78.2607 113.353 81.0707C103.813 86.3607 93.0827 87.3607 82.7327 83.9607C77.2127 82.1507 74.8526 90.8407 80.3426 92.6407Z" fill="#140D0A"/>
<path d="M68.5025 70.3407C70.5025 68.0807 72.9525 65.4707 76.2525 65.7107C79.5525 65.9507 82.1026 69.0507 84.0526 71.4907C87.6726 76.0107 94.0025 69.6107 90.4125 65.1307C86.8225 60.6507 82.1726 56.8807 76.3126 56.7107C70.4526 56.5407 65.8025 59.8307 62.1325 63.9807C58.4625 68.1307 64.6525 74.6907 68.4925 70.3407H68.5025Z" fill="#140D0A"/>
</svg>
