<svg width="52" height="51" viewBox="0 0 52 51" fill="none" xmlns="http://www.w3.org/2000/svg">
<path d="M34.7377 50.5306C36.9083 50.5306 38.6678 48.7711 38.6678 46.6005C38.6678 44.43 36.9083 42.6704 34.7377 42.6704C32.5672 42.6704 30.8076 44.43 30.8076 46.6005C30.8076 48.7711 32.5672 50.5306 34.7377 50.5306Z" fill="#140D0A"/>
<path d="M34.7377 50.5306C36.9083 50.5306 38.6678 48.7711 38.6678 46.6005C38.6678 44.43 36.9083 42.6704 34.7377 42.6704C32.5672 42.6704 30.8076 44.43 30.8076 46.6005C30.8076 48.7711 32.5672 50.5306 34.7377 50.5306Z" fill="#140D0A"/>
<path d="M15.6752 50.5306C17.8458 50.5306 19.6053 48.7711 19.6053 46.6005C19.6053 44.43 17.8458 42.6704 15.6752 42.6704C13.5047 42.6704 11.7451 44.43 11.7451 46.6005C11.7451 48.7711 13.5047 50.5306 15.6752 50.5306Z" fill="#140D0A"/>
<path d="M39.7831 46.6885C39.7831 46.6885 21.5046 46.5398 12.9347 46.5398C10.7044 46.5398 4.5811 45.6443 3.83765 38.1862C3.26318 32.4583 3.54365 25.3889 3.67882 19.1068C3.7802 14.396 7.72722 10.5403 12.4379 10.5403H40.8408C45.7273 10.5403 49.6675 14.5346 49.5999 19.421C49.5155 25.4024 49.3296 32.7118 49.3296 37.5881C49.3296 41.7547 43.9498 46.6851 39.7831 46.6851V46.6885Z" fill="#F77646"/>
<path d="M18.6157 7.02239C18.271 5.93088 17.487 3.97428 18.7745 3.24435C19.6024 2.77463 21.1907 3.12608 22.0963 3.14635C24.4111 3.20042 26.7395 3.20718 29.0543 3.2207C30.5378 3.23084 32.0585 2.92332 33.5386 3.11594C35.4817 3.36601 34.5828 6.03902 34.0252 7.25219C33.2108 9.01617 35.8331 10.5639 36.6509 8.78638C37.685 6.54254 38.5298 3.19028 36.5191 1.1965C34.6875 -0.621551 31.5685 0.182719 29.2841 0.186098C27.5302 0.186098 25.7764 0.111754 24.0225 0.121892C22.2687 0.13203 20.5892 -0.121417 18.9198 0.0745819C14.8376 0.55444 14.6957 4.71434 15.6825 7.83342C16.2704 9.69203 19.207 8.8979 18.6157 7.02577V7.02239Z" fill="#140D0A"/>
<path d="M9.53524 32.2216C11.11 33.4753 12.4955 34.9994 13.3133 36.8647C13.7188 37.7906 14.0635 39.1593 12.5766 38.8213C11.6676 38.6152 10.6673 37.571 9.97792 36.9897C6.98725 34.4688 4.59809 31.3869 2.81045 27.9197C1.91156 26.1794 -0.714132 27.717 0.184758 29.4539C1.58378 32.1641 3.34439 34.6749 5.44631 36.8884C7.25761 38.7977 9.86641 41.5721 12.5969 41.981C15.3273 42.3898 17.0879 40.0514 16.6655 37.4696C16.1857 34.5499 13.9351 31.86 11.6912 30.0757C10.1739 28.8693 8.00781 31.0084 9.542 32.225L9.53524 32.2216Z" fill="#140D0A"/>
<path d="M49.0256 34.9793C48.12 36.2634 46.9947 37.4022 45.6632 38.2471C44.9975 38.6695 44.4873 39.1257 44.1662 38.2437C43.9466 37.6388 44.4433 36.6081 44.7002 36.0843C46.062 33.3336 48.8094 31.0357 50.8471 28.7884C52.1582 27.3421 50.0158 25.1827 48.6979 26.6392C46.7514 28.7851 44.6022 30.8633 42.9125 33.2221C41.6554 34.9759 40.6754 37.2907 41.3141 39.4737C43.0646 45.472 49.911 38.9837 51.6514 36.5169C52.7834 34.9151 50.1476 33.3944 49.0256 34.9827V34.9793Z" fill="#140D0A"/>
<path d="M34.1904 22.8881C34.3932 23.4119 34.6736 23.841 35.1738 24.1249C35.6401 24.3885 36.2585 24.4899 36.7789 24.3378C37.8603 24.0201 38.499 22.905 38.2455 21.8101C38.0225 20.8402 37.1067 20.1745 36.12 20.2117C35.1332 20.2489 34.3796 20.874 33.8119 21.6276C33.5889 21.9216 33.5652 22.4623 33.6598 22.8002C33.7578 23.1517 34.0282 23.5369 34.3594 23.7092C34.7108 23.8951 35.14 23.9897 35.532 23.8613C35.924 23.7329 36.1875 23.4964 36.441 23.1618C36.2855 23.3544 36.2619 23.395 36.3667 23.2733C36.4072 23.2328 36.4511 23.1922 36.4951 23.1517C36.2991 23.2936 36.2687 23.3206 36.4004 23.2328C36.4478 23.2024 36.4984 23.1753 36.5491 23.1483C36.3227 23.2361 36.2653 23.2632 36.3768 23.2294C36.4984 23.1956 36.4241 23.2024 36.1639 23.2497C36.3261 23.2497 36.2653 23.2395 35.978 23.2159C35.8192 23.1719 35.6807 23.0942 35.5624 22.9793C35.1197 22.5535 35.2075 21.9858 35.5489 21.6546C35.7922 21.4181 36.1571 21.3066 36.4883 21.4012C36.8364 21.4992 37.002 21.7628 37.127 22.0804C36.9783 21.6986 36.7924 21.3843 36.4275 21.1714C36.1031 20.9822 35.6198 20.9011 35.2549 21.0193C34.5351 21.2525 33.8829 22.0973 34.1938 22.8915L34.1904 22.8881Z" fill="#140D0A"/>
<path d="M16.7199 22.9286C17.2707 23.5031 17.977 23.9829 18.8049 23.9863C19.768 23.9897 20.7108 23.3544 20.9575 22.4014C21.2211 21.3843 20.6094 20.3637 19.6024 20.0832C18.5954 19.8028 17.541 20.3401 17.2808 21.3539C17.0848 22.1243 17.5309 23.0401 18.3419 23.226C19.153 23.4118 20.0011 22.9894 20.214 22.1649C20.0687 22.7326 19.3321 23.1854 18.761 23.0097C19.0313 23.0942 18.2811 22.7022 18.3149 22.7326C17.8925 22.3778 17.8959 21.5465 18.2777 21.1714L18.4534 21.0396C18.6731 20.9619 18.7272 20.9382 18.6156 20.972C18.5345 20.9923 18.5582 20.9889 18.6866 20.9652C18.7981 20.9382 18.9096 20.9382 19.0212 20.972C19.1631 21.0126 19.2712 21.0734 19.0651 20.9821C18.9164 20.9179 19.2712 21.1917 19.0888 20.999C19.0178 20.9247 18.9401 20.8537 18.8691 20.7794C18.3183 20.2049 17.2673 20.1812 16.7199 20.7794C16.1724 21.3775 16.1319 22.317 16.7199 22.9286Z" fill="#140D0A"/>
<path d="M19.3051 28.5248C19.1665 33.5059 25.1715 35.155 28.0135 31.3702L25.6244 31.6777C27.3174 33.1038 29.5038 34.0398 31.6733 33.0328C33.8428 32.0258 34.4815 29.7312 33.4812 27.6868C32.6195 25.9295 29.9972 27.4705 30.8555 29.221C31.3354 30.2043 30.0411 30.4578 29.4261 30.3733C28.811 30.2888 28.2602 29.9306 27.777 29.5251C26.9626 28.8425 26.0096 29.0047 25.3878 29.8326C24.2388 31.3634 22.3025 30.1773 22.3464 28.5215C22.4005 26.5649 19.3592 26.5649 19.3051 28.5215V28.5248Z" fill="#140D0A"/>
</svg>
