<svg width="65" height="51" viewBox="0 0 65 51" fill="none" xmlns="http://www.w3.org/2000/svg">
<path d="M39.5108 50.234C41.6687 50.234 43.4181 48.4847 43.4181 46.3267C43.4181 44.1688 41.6687 42.4194 39.5108 42.4194C37.3529 42.4194 35.6035 44.1688 35.6035 46.3267C35.6035 48.4847 37.3529 50.234 39.5108 50.234Z" fill="#140D0A"/>
<path d="M20.5587 50.234C22.7166 50.234 24.466 48.4847 24.466 46.3267C24.466 44.1688 22.7166 42.4194 20.5587 42.4194C18.4007 42.4194 16.6514 44.1688 16.6514 46.3267C16.6514 48.4847 18.4007 50.234 20.5587 50.234Z" fill="#140D0A"/>
<path d="M39.5108 50.234C41.6687 50.234 43.4181 48.4847 43.4181 46.3267C43.4181 44.1688 41.6687 42.4194 39.5108 42.4194C37.3529 42.4194 35.6035 44.1688 35.6035 46.3267C35.6035 48.4847 37.3529 50.234 39.5108 50.234Z" fill="#140D0A"/>
<path d="M20.5587 50.234C22.7166 50.234 24.466 48.4847 24.466 46.3267C24.466 44.1688 22.7166 42.4194 20.5587 42.4194C18.4007 42.4194 16.6514 44.1688 16.6514 46.3267C16.6514 48.4847 18.4007 50.234 20.5587 50.234Z" fill="#140D0A"/>
<path d="M44.5265 46.414C44.5265 46.414 26.3541 46.2661 17.834 46.2661C15.6166 46.2661 9.52886 45.3758 8.78973 37.961C8.21859 32.2664 8.49745 25.238 8.63183 18.9923C8.73263 14.309 12.6567 10.4756 17.3401 10.4756H45.5781C50.4362 10.4756 54.3536 14.4467 54.2864 19.3048C54.2024 25.2514 54.0176 32.5184 54.0176 37.3664C54.0176 41.5088 48.669 46.4106 44.5265 46.4106V46.414Z" fill="#F77646"/>
<path d="M23.4814 6.98163C23.1387 5.89645 22.3593 3.95121 23.6393 3.22552C24.4624 2.75852 26.0415 3.10793 26.9419 3.12809C29.2433 3.18184 31.5581 3.18856 33.8594 3.202C35.3343 3.21208 36.8462 2.90635 38.3177 3.09785C40.2495 3.34647 39.3558 6.00396 38.8015 7.21008C37.9918 8.96383 40.5989 10.5026 41.412 8.73537C42.44 6.50455 43.2799 3.17176 41.2809 1.18956C39.46 -0.617943 36.359 0.181658 34.0879 0.185018C32.3442 0.185018 30.6006 0.111105 28.8569 0.121184C27.1132 0.131263 25.4435 -0.120712 23.7838 0.0741489C19.7253 0.551222 19.5842 4.68697 20.5652 7.78795C21.1498 9.63576 24.0694 8.84624 23.4814 6.98499V6.98163Z" fill="#140D0A"/>
<path d="M11.884 25.705C10.1437 23.5179 7.55344 21.3475 4.73468 20.7864C2.11414 20.2657 -0.37876 21.9489 0.047918 24.8046C0.444359 27.452 3.07498 29.9483 4.91607 31.7255C7.16369 33.8959 9.7305 35.7134 12.5022 37.1447C14.2291 38.035 15.7611 35.4279 14.0275 34.5342C10.5738 32.7536 7.52319 30.3783 5.01015 27.4083C4.46589 26.7666 3.61924 25.9335 3.32023 25.1238C2.79276 23.6892 3.66629 23.5111 4.8489 23.958C6.8143 24.6971 8.46388 26.2325 9.74728 27.8451C10.9568 29.367 13.0868 27.2168 11.884 25.7084V25.705Z" fill="#140D0A"/>
<path d="M55.3445 27.6267C56.6716 27.4016 59.2955 27.0354 60.4982 27.8182C61.0391 27.8283 61.2172 28.1408 61.0358 28.7522C60.8073 29.0109 60.5419 29.2293 60.2429 29.4006C59.7457 29.7131 59.1913 29.8911 58.6269 30.0356C55.7879 30.7546 52.603 30.5597 49.6935 30.7008C47.755 30.7949 47.7449 33.8186 49.6935 33.7245C52.3947 33.5935 55.1462 33.5969 57.8306 33.2374C59.9943 32.9484 62.2889 32.216 63.6059 30.3481C64.9128 28.4935 64.4189 26.2997 62.3763 25.2951C60.0514 24.1495 57.0143 24.2906 54.5449 24.7105C52.6299 25.0364 53.4429 27.9493 55.3478 27.6267H55.3445Z" fill="#140D0A"/>
<path d="M38.9663 22.7519C39.1679 23.2727 39.4467 23.6994 39.944 23.9816C40.4076 24.2436 41.0224 24.3444 41.5398 24.1932C42.6149 23.8774 43.2499 22.7687 42.9979 21.6802C42.7762 20.716 41.8657 20.0541 40.8847 20.0911C39.9037 20.128 39.1544 20.7496 38.59 21.4988C38.3683 21.7911 38.3448 22.3286 38.4388 22.6646C38.5363 23.014 38.8051 23.397 39.1343 23.5683C39.4837 23.7531 39.9104 23.8472 40.3001 23.7195C40.6898 23.5918 40.9519 23.3567 41.2038 23.0241C41.0493 23.2156 41.0258 23.2559 41.1299 23.1349C41.1703 23.0946 41.2139 23.0543 41.2576 23.014C41.0628 23.1551 41.0325 23.182 41.1635 23.0946C41.2106 23.0644 41.261 23.0375 41.3114 23.0106C41.0863 23.098 41.0292 23.1249 41.14 23.0913C41.261 23.0577 41.1871 23.0644 40.9284 23.1114C41.0896 23.1114 41.0291 23.1013 40.7436 23.0778C40.5857 23.0341 40.4479 22.9569 40.3303 22.8426C39.8902 22.4193 39.9776 21.8549 40.3169 21.5256C40.5588 21.2905 40.9216 21.1796 41.2509 21.2737C41.5969 21.3711 41.7616 21.6332 41.8859 21.949C41.738 21.5693 41.5533 21.2569 41.1904 21.0452C40.8679 20.8571 40.3874 20.7764 40.0246 20.894C39.309 21.1259 38.6606 21.9658 38.9697 22.7553L38.9663 22.7519Z" fill="#140D0A"/>
<path d="M26.9922 31.1241C31.2254 32.515 35.7307 32.001 39.6077 29.8474C41.3111 28.9033 39.7858 26.2929 38.0824 27.2369C34.8773 29.0142 31.2724 29.3502 27.7951 28.2079C25.9406 27.5998 25.1477 30.5193 26.9922 31.1241Z" fill="#140D0A"/>
<path d="M23.0143 23.6321C23.6863 22.8728 24.5094 21.996 25.6181 22.0766C26.7268 22.1572 27.5835 23.1987 28.2386 24.0185C29.4548 25.5371 31.5815 23.3869 30.3754 21.8817C29.1693 20.3766 27.607 19.11 25.6383 19.0529C23.6695 18.9958 22.1072 20.1011 20.8742 21.4954C19.6412 22.8896 21.7209 25.0936 23.011 23.6321H23.0143Z" fill="#140D0A"/>
<path d="M39.5108 50.234C41.6687 50.234 43.4181 48.4847 43.4181 46.3267C43.4181 44.1688 41.6687 42.4194 39.5108 42.4194C37.3529 42.4194 35.6035 44.1688 35.6035 46.3267C35.6035 48.4847 37.3529 50.234 39.5108 50.234Z" fill="#140D0A"/>
<path d="M20.5587 50.234C22.7166 50.234 24.466 48.4847 24.466 46.3267C24.466 44.1688 22.7166 42.4194 20.5587 42.4194C18.4007 42.4194 16.6514 44.1688 16.6514 46.3267C16.6514 48.4847 18.4007 50.234 20.5587 50.234Z" fill="#140D0A"/>
<path d="M44.5265 46.414C44.5265 46.414 26.3541 46.2661 17.834 46.2661C15.6166 46.2661 9.52886 45.3758 8.78973 37.961C8.21859 32.2664 8.49745 25.238 8.63183 18.9923C8.73263 14.309 12.6567 10.4756 17.3401 10.4756H45.5781C50.4362 10.4756 54.3536 14.4467 54.2864 19.3048C54.2024 25.2514 54.0176 32.5184 54.0176 37.3664C54.0176 41.5088 48.669 46.4106 44.5265 46.4106V46.414Z" fill="#F77646"/>
<path d="M23.4814 6.98163C23.1387 5.89645 22.3593 3.95121 23.6393 3.22552C24.4624 2.75852 26.0415 3.10793 26.9419 3.12809C29.2433 3.18184 31.5581 3.18856 33.8594 3.202C35.3343 3.21208 36.8462 2.90635 38.3177 3.09785C40.2495 3.34647 39.3558 6.00396 38.8015 7.21008C37.9918 8.96383 40.5989 10.5026 41.412 8.73537C42.44 6.50455 43.2799 3.17176 41.2809 1.18956C39.46 -0.617943 36.359 0.181658 34.0879 0.185018C32.3442 0.185018 30.6006 0.111105 28.8569 0.121184C27.1132 0.131263 25.4435 -0.120712 23.7838 0.0741489C19.7253 0.551222 19.5842 4.68697 20.5652 7.78795C21.1498 9.63576 24.0694 8.84624 23.4814 6.98499V6.98163Z" fill="#140D0A"/>
<path d="M11.884 25.705C10.1437 23.5179 7.55344 21.3475 4.73468 20.7864C2.11414 20.2657 -0.37876 21.9489 0.047918 24.8046C0.444359 27.452 3.07498 29.9483 4.91607 31.7255C7.16369 33.8959 9.7305 35.7134 12.5022 37.1447C14.2291 38.035 15.7611 35.4279 14.0275 34.5342C10.5738 32.7536 7.52319 30.3783 5.01015 27.4083C4.46589 26.7666 3.61924 25.9335 3.32023 25.1238C2.79276 23.6892 3.66629 23.5111 4.8489 23.958C6.8143 24.6971 8.46388 26.2325 9.74728 27.8451C10.9568 29.367 13.0868 27.2168 11.884 25.7084V25.705Z" fill="#140D0A"/>
<path d="M55.3445 27.6267C56.6716 27.4016 59.2955 27.0354 60.4982 27.8182C61.0391 27.8283 61.2172 28.1408 61.0358 28.7522C60.8073 29.0109 60.5419 29.2293 60.2429 29.4006C59.7457 29.7131 59.1913 29.8911 58.6269 30.0356C55.7879 30.7546 52.603 30.5597 49.6935 30.7008C47.755 30.7949 47.7449 33.8186 49.6935 33.7245C52.3947 33.5935 55.1462 33.5969 57.8306 33.2374C59.9943 32.9484 62.2889 32.216 63.6059 30.3481C64.9128 28.4935 64.4189 26.2997 62.3763 25.2951C60.0514 24.1495 57.0143 24.2906 54.5449 24.7105C52.6299 25.0364 53.4429 27.9493 55.3478 27.6267H55.3445Z" fill="#140D0A"/>
<path d="M38.9663 22.7519C39.1679 23.2727 39.4467 23.6994 39.944 23.9816C40.4076 24.2436 41.0224 24.3444 41.5398 24.1932C42.6149 23.8774 43.2499 22.7687 42.9979 21.6802C42.7762 20.716 41.8657 20.0541 40.8847 20.0911C39.9037 20.128 39.1544 20.7496 38.59 21.4988C38.3683 21.7911 38.3448 22.3286 38.4388 22.6646C38.5363 23.014 38.8051 23.397 39.1343 23.5683C39.4837 23.7531 39.9104 23.8472 40.3001 23.7195C40.6898 23.5918 40.9519 23.3567 41.2038 23.0241C41.0493 23.2156 41.0258 23.2559 41.1299 23.1349C41.1703 23.0946 41.2139 23.0543 41.2576 23.014C41.0628 23.1551 41.0325 23.182 41.1635 23.0946C41.2106 23.0644 41.261 23.0375 41.3114 23.0106C41.0863 23.098 41.0292 23.1249 41.14 23.0913C41.261 23.0577 41.1871 23.0644 40.9284 23.1114C41.0896 23.1114 41.0291 23.1013 40.7436 23.0778C40.5857 23.0341 40.4479 22.9569 40.3303 22.8426C39.8902 22.4193 39.9776 21.8549 40.3169 21.5256C40.5588 21.2905 40.9216 21.1796 41.2509 21.2737C41.5969 21.3711 41.7616 21.6332 41.8859 21.949C41.738 21.5693 41.5533 21.2569 41.1904 21.0452C40.8679 20.8571 40.3874 20.7764 40.0246 20.894C39.309 21.1259 38.6606 21.9658 38.9697 22.7553L38.9663 22.7519Z" fill="#140D0A"/>
<path d="M26.9922 31.1241C31.2254 32.515 35.7307 32.001 39.6077 29.8474C41.3111 28.9033 39.7858 26.2929 38.0824 27.2369C34.8773 29.0142 31.2724 29.3502 27.7951 28.2079C25.9406 27.5998 25.1477 30.5193 26.9922 31.1241Z" fill="#140D0A"/>
<path d="M23.0143 23.6321C23.6863 22.8728 24.5094 21.996 25.6181 22.0766C26.7268 22.1572 27.5835 23.1987 28.2386 24.0185C29.4548 25.5371 31.5815 23.3869 30.3754 21.8817C29.1693 20.3766 27.607 19.11 25.6383 19.0529C23.6695 18.9958 22.1072 20.1011 20.8742 21.4954C19.6412 22.8896 21.7209 25.0936 23.011 23.6321H23.0143Z" fill="#140D0A"/>
<path d="M39.5108 50.234C41.6687 50.234 43.4181 48.4847 43.4181 46.3267C43.4181 44.1688 41.6687 42.4194 39.5108 42.4194C37.3529 42.4194 35.6035 44.1688 35.6035 46.3267C35.6035 48.4847 37.3529 50.234 39.5108 50.234Z" fill="#140D0A"/>
<path d="M20.5587 50.234C22.7166 50.234 24.466 48.4847 24.466 46.3267C24.466 44.1688 22.7166 42.4194 20.5587 42.4194C18.4007 42.4194 16.6514 44.1688 16.6514 46.3267C16.6514 48.4847 18.4007 50.234 20.5587 50.234Z" fill="#140D0A"/>
<path d="M44.5265 46.414C44.5265 46.414 26.3541 46.2661 17.834 46.2661C15.6166 46.2661 9.52886 45.3758 8.78973 37.961C8.21859 32.2664 8.49745 25.238 8.63183 18.9923C8.73263 14.309 12.6567 10.4756 17.3401 10.4756H45.5781C50.4362 10.4756 54.3536 14.4467 54.2864 19.3048C54.2024 25.2514 54.0176 32.5184 54.0176 37.3664C54.0176 41.5088 48.669 46.4106 44.5265 46.4106V46.414Z" fill="#F77646"/>
<path d="M23.4814 6.98163C23.1387 5.89645 22.3593 3.95121 23.6393 3.22552C24.4624 2.75852 26.0415 3.10793 26.9419 3.12809C29.2433 3.18184 31.5581 3.18856 33.8594 3.202C35.3343 3.21208 36.8462 2.90635 38.3177 3.09785C40.2495 3.34647 39.3558 6.00396 38.8015 7.21008C37.9918 8.96383 40.5989 10.5026 41.412 8.73537C42.44 6.50455 43.2799 3.17176 41.2809 1.18956C39.46 -0.617943 36.359 0.181658 34.0879 0.185018C32.3442 0.185018 30.6006 0.111105 28.8569 0.121184C27.1132 0.131263 25.4435 -0.120712 23.7838 0.0741489C19.7253 0.551222 19.5842 4.68697 20.5652 7.78795C21.1498 9.63576 24.0694 8.84624 23.4814 6.98499V6.98163Z" fill="#140D0A"/>
<path d="M11.884 25.705C10.1437 23.5179 7.55344 21.3475 4.73468 20.7864C2.11414 20.2657 -0.37876 21.9489 0.047918 24.8046C0.444359 27.452 3.07498 29.9483 4.91607 31.7255C7.16369 33.8959 9.7305 35.7134 12.5022 37.1447C14.2291 38.035 15.7611 35.4279 14.0275 34.5342C10.5738 32.7536 7.52319 30.3783 5.01015 27.4083C4.46589 26.7666 3.61924 25.9335 3.32023 25.1238C2.79276 23.6892 3.66629 23.5111 4.8489 23.958C6.8143 24.6971 8.46388 26.2325 9.74728 27.8451C10.9568 29.367 13.0868 27.2168 11.884 25.7084V25.705Z" fill="#140D0A"/>
<path d="M55.3445 27.6267C56.6716 27.4016 59.2955 27.0354 60.4982 27.8182C61.0391 27.8283 61.2172 28.1408 61.0358 28.7522C60.8073 29.0109 60.5419 29.2293 60.2429 29.4006C59.7457 29.7131 59.1913 29.8911 58.6269 30.0356C55.7879 30.7546 52.603 30.5597 49.6935 30.7008C47.755 30.7949 47.7449 33.8186 49.6935 33.7245C52.3947 33.5935 55.1462 33.5969 57.8306 33.2374C59.9943 32.9484 62.2889 32.216 63.6059 30.3481C64.9128 28.4935 64.4189 26.2997 62.3763 25.2951C60.0514 24.1495 57.0143 24.2906 54.5449 24.7105C52.6299 25.0364 53.4429 27.9493 55.3478 27.6267H55.3445Z" fill="#140D0A"/>
<path d="M38.9663 22.7519C39.1679 23.2727 39.4467 23.6994 39.944 23.9816C40.4076 24.2436 41.0224 24.3444 41.5398 24.1932C42.6149 23.8774 43.2499 22.7687 42.9979 21.6802C42.7762 20.716 41.8657 20.0541 40.8847 20.0911C39.9037 20.128 39.1544 20.7496 38.59 21.4988C38.3683 21.7911 38.3448 22.3286 38.4388 22.6646C38.5363 23.014 38.8051 23.397 39.1343 23.5683C39.4837 23.7531 39.9104 23.8472 40.3001 23.7195C40.6898 23.5918 40.9519 23.3567 41.2038 23.0241C41.0493 23.2156 41.0258 23.2559 41.1299 23.1349C41.1703 23.0946 41.2139 23.0543 41.2576 23.014C41.0628 23.1551 41.0325 23.182 41.1635 23.0946C41.2106 23.0644 41.261 23.0375 41.3114 23.0106C41.0863 23.098 41.0292 23.1249 41.14 23.0913C41.261 23.0577 41.1871 23.0644 40.9284 23.1114C41.0896 23.1114 41.0291 23.1013 40.7436 23.0778C40.5857 23.0341 40.4479 22.9569 40.3303 22.8426C39.8902 22.4193 39.9776 21.8549 40.3169 21.5256C40.5588 21.2905 40.9216 21.1796 41.2509 21.2737C41.5969 21.3711 41.7616 21.6332 41.8859 21.949C41.738 21.5693 41.5533 21.2569 41.1904 21.0452C40.8679 20.8571 40.3874 20.7764 40.0246 20.894C39.309 21.1259 38.6606 21.9658 38.9697 22.7553L38.9663 22.7519Z" fill="#140D0A"/>
<path d="M26.9922 31.1241C31.2254 32.515 35.7307 32.001 39.6077 29.8474C41.3111 28.9033 39.7858 26.2929 38.0824 27.2369C34.8773 29.0142 31.2724 29.3502 27.7951 28.2079C25.9406 27.5998 25.1477 30.5193 26.9922 31.1241Z" fill="#140D0A"/>
<path d="M23.0143 23.6321C23.6863 22.8728 24.5094 21.996 25.6181 22.0766C26.7268 22.1572 27.5835 23.1987 28.2386 24.0185C29.4548 25.5371 31.5815 23.3869 30.3754 21.8817C29.1693 20.3766 27.607 19.11 25.6383 19.0529C23.6695 18.9958 22.1072 20.1011 20.8742 21.4954C19.6412 22.8896 21.7209 25.0936 23.011 23.6321H23.0143Z" fill="#140D0A"/>
<path d="M23.4814 6.98163C23.1387 5.89645 22.3593 3.95121 23.6393 3.22552C24.4624 2.75852 26.0415 3.10793 26.9419 3.12809C29.2433 3.18184 31.5581 3.18856 33.8594 3.202C35.3343 3.21208 36.8462 2.90635 38.3177 3.09785C40.2495 3.34647 39.3558 6.00396 38.8015 7.21008C37.9918 8.96383 40.5989 10.5026 41.412 8.73537C42.44 6.50455 43.2799 3.17176 41.2809 1.18956C39.46 -0.617943 36.359 0.181658 34.0879 0.185018C32.3442 0.185018 30.6006 0.111105 28.8569 0.121184C27.1132 0.131263 25.4435 -0.120712 23.7838 0.0741489C19.7253 0.551222 19.5842 4.68697 20.5652 7.78795C21.1498 9.63576 24.0694 8.84624 23.4814 6.98499V6.98163Z" fill="#140D0A"/>
<path d="M11.884 25.705C10.1437 23.5179 7.55344 21.3475 4.73468 20.7864C2.11414 20.2657 -0.37876 21.9489 0.047918 24.8046C0.444359 27.452 3.07498 29.9483 4.91607 31.7255C7.16369 33.8959 9.7305 35.7134 12.5022 37.1447C14.2291 38.035 15.7611 35.4279 14.0275 34.5342C10.5738 32.7536 7.52319 30.3783 5.01015 27.4083C4.46589 26.7666 3.61924 25.9335 3.32023 25.1238C2.79276 23.6892 3.66629 23.5111 4.8489 23.958C6.8143 24.6971 8.46388 26.2325 9.74728 27.8451C10.9568 29.367 13.0868 27.2168 11.884 25.7084V25.705Z" fill="#140D0A"/>
<path d="M55.3445 27.6267C56.6716 27.4016 59.2955 27.0354 60.4982 27.8182C61.0391 27.8283 61.2172 28.1408 61.0358 28.7522C60.8073 29.0109 60.5419 29.2293 60.2429 29.4006C59.7457 29.7131 59.1913 29.8911 58.6269 30.0356C55.7879 30.7546 52.603 30.5597 49.6935 30.7008C47.755 30.7949 47.7449 33.8186 49.6935 33.7245C52.3947 33.5935 55.1462 33.5969 57.8306 33.2374C59.9943 32.9484 62.2889 32.216 63.6059 30.3481C64.9128 28.4935 64.4189 26.2997 62.3763 25.2951C60.0514 24.1495 57.0143 24.2906 54.5449 24.7105C52.6299 25.0364 53.4429 27.9493 55.3478 27.6267H55.3445Z" fill="#140D0A"/>
<path d="M38.9663 22.7519C39.1679 23.2727 39.4467 23.6994 39.944 23.9816C40.4076 24.2436 41.0224 24.3444 41.5398 24.1932C42.6149 23.8774 43.2499 22.7687 42.9979 21.6802C42.7762 20.716 41.8657 20.0541 40.8847 20.0911C39.9037 20.128 39.1544 20.7496 38.59 21.4988C38.3683 21.7911 38.3448 22.3286 38.4388 22.6646C38.5363 23.014 38.8051 23.397 39.1343 23.5683C39.4837 23.7531 39.9104 23.8472 40.3001 23.7195C40.6898 23.5918 40.9519 23.3567 41.2038 23.0241C41.0493 23.2156 41.0258 23.2559 41.1299 23.1349C41.1703 23.0946 41.2139 23.0543 41.2576 23.014C41.0628 23.1551 41.0325 23.182 41.1635 23.0946C41.2106 23.0644 41.261 23.0375 41.3114 23.0106C41.0863 23.098 41.0292 23.1249 41.14 23.0913C41.261 23.0577 41.1871 23.0644 40.9284 23.1114C41.0896 23.1114 41.0291 23.1013 40.7436 23.0778C40.5857 23.0341 40.4479 22.9569 40.3303 22.8426C39.8902 22.4193 39.9776 21.8549 40.3169 21.5256C40.5588 21.2905 40.9216 21.1796 41.2509 21.2737C41.5969 21.3711 41.7616 21.6332 41.8859 21.949C41.738 21.5693 41.5533 21.2569 41.1904 21.0452C40.8679 20.8571 40.3874 20.7764 40.0246 20.894C39.309 21.1259 38.6606 21.9658 38.9697 22.7553L38.9663 22.7519Z" fill="#140D0A"/>
<path d="M26.9922 31.1241C31.2254 32.515 35.7307 32.001 39.6077 29.8474C41.3111 28.9033 39.7858 26.2929 38.0824 27.2369C34.8773 29.0142 31.2724 29.3502 27.7951 28.2079C25.9406 27.5998 25.1477 30.5193 26.9922 31.1241Z" fill="#140D0A"/>
<path d="M23.0143 23.6321C23.6863 22.8728 24.5094 21.996 25.6181 22.0766C26.7268 22.1572 27.5835 23.1987 28.2386 24.0185C29.4548 25.5371 31.5815 23.3869 30.3754 21.8817C29.1693 20.3766 27.607 19.11 25.6383 19.0529C23.6695 18.9958 22.1072 20.1011 20.8742 21.4954C19.6412 22.8896 21.7209 25.0936 23.011 23.6321H23.0143Z" fill="#140D0A"/>
</svg>
