<svg width="61" height="52" viewBox="0 0 61 52" fill="none" xmlns="http://www.w3.org/2000/svg">
<path d="M37.3686 51.8588C39.5963 51.8588 41.4023 50.0529 41.4023 47.8252C41.4023 45.5974 39.5963 43.7915 37.3686 43.7915C35.1409 43.7915 33.335 45.5974 33.335 47.8252C33.335 50.0529 35.1409 51.8588 37.3686 51.8588Z" fill="#140D0A"/>
<path d="M17.8042 51.8588C20.0319 51.8588 21.8378 50.0529 21.8378 47.8252C21.8378 45.5974 20.0319 43.7915 17.8042 43.7915C15.5764 43.7915 13.7705 45.5974 13.7705 47.8252C13.7705 50.0529 15.5764 51.8588 17.8042 51.8588Z" fill="#140D0A"/>
<path d="M42.547 47.9188C42.547 47.9188 23.7868 47.7662 14.9912 47.7662C12.7021 47.7662 6.41745 46.8471 5.65442 39.1925C5.06481 33.3137 5.35268 26.0579 5.49141 19.6103C5.59546 14.7755 9.64646 10.8181 14.4813 10.8181H43.6326C48.6478 10.8181 52.6918 14.9177 52.6225 19.9329C52.5358 26.0718 52.345 33.5738 52.345 38.5786C52.345 42.855 46.8234 47.9153 42.547 47.9153V47.9188Z" fill="#F77646"/>
<path d="M20.8216 7.20742C20.4678 6.08715 19.6632 4.07899 20.9846 3.32984C21.8343 2.84774 23.4645 3.20844 24.394 3.22925C26.7698 3.28475 29.1595 3.29168 31.5353 3.30556C33.0579 3.31596 34.6186 3.00035 36.1377 3.19804C38.132 3.4547 37.2094 6.19814 36.6372 7.44327C35.8013 9.25374 38.4927 10.8422 39.332 9.01789C40.3934 6.71492 41.2604 3.27434 39.1968 1.22803C37.317 -0.637928 34.1157 0.187533 31.7711 0.191002C29.971 0.191002 28.171 0.114699 26.3709 0.125104C24.5709 0.135509 22.8471 -0.124616 21.1337 0.076547C16.944 0.569049 16.7983 4.83856 17.8111 8.03982C18.4146 9.9474 21.4286 9.13234 20.8216 7.21089V7.20742Z" fill="#140D0A"/>
<path d="M11.0825 30.2716C10.3369 27.4623 8.8316 24.3339 6.40724 22.5893C4.18751 20.9904 1.04868 21.3893 0.21628 24.2819C-0.567561 26.9975 0.955034 30.5006 1.97819 32.9735C3.24413 36.036 4.95401 38.8072 7.03848 41.3807C8.30441 42.9414 10.4999 40.7217 9.24433 39.1748C6.71245 36.0533 4.82221 32.4359 3.73663 28.5652C3.50078 27.7224 3.01175 26.5432 3.15048 25.6657C3.36898 24.2888 4.38174 24.868 5.12396 25.5963C6.62227 27.0669 7.54138 29.1063 8.07203 31.104C8.60269 33.1018 11.5993 32.2208 11.0825 30.2751V30.2716Z" fill="#140D0A"/>
<path d="M52.2659 32.1098C53.1954 30.7918 54.3504 29.623 55.7169 28.7559C56.4002 28.3224 56.9239 27.8542 57.2534 28.7594C57.4788 29.3802 56.969 30.4381 56.7054 30.9757C55.3076 33.7989 52.4879 36.1573 50.3965 38.4638C49.0508 39.9482 51.2497 42.1645 52.6023 40.6696C54.6001 38.4672 56.8059 36.3342 58.5401 33.9133C59.8303 32.1133 60.8361 29.7375 60.1806 27.4969C58.384 21.3406 51.3572 27.9998 49.571 30.5317C48.4091 32.1757 51.1144 33.7364 52.2659 32.1063V32.1098Z" fill="#140D0A"/>
<path d="M36.8073 23.4914C37.0154 24.0289 37.3033 24.4694 37.8166 24.7608C38.2952 25.0313 38.9299 25.1353 39.4641 24.9793C40.5739 24.6532 41.2294 23.5087 40.9693 22.385C40.7404 21.3895 39.8005 20.7063 38.7877 20.7444C37.775 20.7826 37.0015 21.4242 36.4189 22.1977C36.19 22.4994 36.1657 23.0543 36.2628 23.4012C36.3634 23.7619 36.6408 24.1573 36.9807 24.3342C37.3414 24.5249 37.7819 24.622 38.1842 24.4902C38.5866 24.3584 38.8571 24.1157 39.1172 23.7723C38.9577 23.97 38.9334 24.0116 39.0409 23.8867C39.0825 23.8451 39.1276 23.8035 39.1727 23.7619C38.9715 23.9076 38.9403 23.9353 39.0756 23.8451C39.1242 23.8139 39.1762 23.7862 39.2282 23.7584C38.9958 23.8486 38.9369 23.8763 39.0513 23.8417C39.1762 23.807 39.0999 23.8139 38.8328 23.8625C38.9993 23.8625 38.9369 23.8521 38.6421 23.8278C38.479 23.7827 38.3368 23.7029 38.2155 23.585C37.7611 23.148 37.8513 22.5653 38.2016 22.2254C38.4513 21.9826 38.8259 21.8682 39.1658 21.9653C39.523 22.0659 39.693 22.3364 39.8213 22.6624C39.6687 22.2705 39.4779 21.9479 39.1033 21.7294C38.7704 21.5352 38.2744 21.452 37.8998 21.5734C37.1611 21.8127 36.4917 22.6798 36.8108 23.4948L36.8073 23.4914Z" fill="#140D0A"/>
<path d="M18.8756 23.5326C19.441 24.1222 20.1658 24.6147 21.0156 24.6182C22.004 24.6217 22.9717 23.9696 23.2249 22.9916C23.4954 21.9476 22.8677 20.9002 21.8341 20.6123C20.8005 20.3244 19.7184 20.8759 19.4514 21.9164C19.2502 22.7072 19.708 23.6471 20.5404 23.8378C21.3728 24.0286 22.2434 23.5951 22.4619 22.7488C22.3127 23.3315 21.5566 23.7962 20.9705 23.6159C21.248 23.7026 20.478 23.3002 20.5127 23.3315C20.0791 22.9673 20.0826 22.1141 20.4745 21.7291L20.6549 21.5938C20.8803 21.5141 20.9358 21.4898 20.8214 21.5245C20.7381 21.5453 20.7624 21.5418 20.8942 21.5175C21.0086 21.4898 21.1231 21.4898 21.2376 21.5245C21.3832 21.5661 21.4942 21.6285 21.2826 21.5349C21.13 21.469 21.4942 21.7499 21.3069 21.5522C21.2341 21.4759 21.1543 21.4031 21.0815 21.3268C20.5161 20.7372 19.4375 20.7129 18.8756 21.3268C18.3138 21.9407 18.2721 22.9049 18.8756 23.5326Z" fill="#140D0A"/>
<path d="M30.516 25.9816C28.5425 25.7978 26.2985 26.0302 25.2199 27.9551C24.1412 29.88 25.2962 31.8951 27.117 32.7414C28.9379 33.5876 31.0987 33.6501 32.6559 32.3599C34.2132 31.0696 34.4283 28.7008 32.9369 27.2475C31.4975 25.8429 29.2882 28.0487 30.731 29.4534C31.1021 29.8176 30.5021 30.1193 30.1622 30.1991C29.6246 30.3309 28.8685 30.1644 28.3968 29.8973C26.8847 29.0372 29.9819 29.0476 30.5195 29.0996C32.5172 29.2834 32.5068 26.162 30.5195 25.9781L30.516 25.9816Z" fill="#140D0A"/>
</svg>
