<svg width="175" height="150" viewBox="0 0 175 150" fill="none" xmlns="http://www.w3.org/2000/svg">
<path d="M107.744 149.521C114.167 149.521 119.374 144.314 119.374 137.891C119.374 131.468 114.167 126.261 107.744 126.261C101.32 126.261 96.1136 131.468 96.1136 137.891C96.1136 144.314 101.32 149.521 107.744 149.521Z" fill="#140D0A"/>
<path d="M51.3336 149.521C57.7567 149.521 62.9636 144.314 62.9636 137.891C62.9636 131.468 57.7567 126.261 51.3336 126.261C44.9105 126.261 39.7036 131.468 39.7036 137.891C39.7036 144.314 44.9105 149.521 51.3336 149.521Z" fill="#140D0A"/>
<path d="M122.674 138.161C122.674 138.161 68.5836 137.721 43.2236 137.721C36.6236 137.721 18.5036 135.071 16.3036 113.001C14.6036 96.0507 15.4336 75.1307 15.8336 56.5407C16.1336 42.6007 27.8136 31.1907 41.7536 31.1907H125.804C140.264 31.1907 151.924 43.0107 151.724 57.4707C151.474 75.1707 150.924 96.8007 150.924 111.231C150.924 123.561 135.004 138.151 122.674 138.151V138.161Z" fill="#F7CE46"/>
<path d="M60.0336 20.7807C59.0136 17.5507 56.6936 11.7607 60.5036 9.6007C62.9536 8.2107 67.6536 9.2507 70.3336 9.3107C77.1836 9.4707 84.0736 9.4907 90.9236 9.5307C95.3136 9.5607 99.8136 8.6507 104.194 9.2207C109.944 9.9607 107.284 17.8707 105.634 21.4607C103.224 26.6807 110.984 31.2607 113.404 26.0007C116.464 19.3607 118.964 9.4407 113.014 3.5407C107.594 -1.8393 98.3636 0.540703 91.6036 0.550703C86.4136 0.550703 81.2236 0.330703 76.0336 0.360703C70.8436 0.390703 65.8736 -0.359297 60.9336 0.220703C48.8536 1.6407 48.4336 13.9507 51.3536 23.1807C53.0936 28.6807 61.7836 26.3307 60.0336 20.7907V20.7807Z" fill="#140D0A"/>
<path d="M31.9536 87.2807C29.8036 79.1807 25.4636 70.1607 18.4736 65.1307C12.0736 60.5207 3.02359 61.6707 0.623586 70.0107C-1.63641 77.8407 2.75359 87.9407 5.70359 95.0707C9.35359 103.901 14.2836 111.891 20.2936 119.311C23.9436 123.811 30.2736 117.411 26.6536 112.951C19.3536 103.951 13.9036 93.5207 10.7736 82.3607C10.0936 79.9307 8.68358 76.5307 9.08358 74.0007C9.71358 70.0307 12.6336 71.7007 14.7736 73.8007C19.0936 78.0407 21.7436 83.9207 23.2736 89.6807C24.8036 95.4407 33.4436 92.9007 31.9536 87.2907V87.2807Z" fill="#140D0A"/>
<path d="M150.694 92.5807C153.374 88.7807 156.704 85.4107 160.644 82.9107C162.614 81.6607 164.124 80.3107 165.074 82.9207C165.724 84.7107 164.254 87.7607 163.494 89.3107C159.464 97.4507 151.334 104.251 145.304 110.901C141.424 115.181 147.764 121.571 151.664 117.261C157.424 110.911 163.784 104.761 168.784 97.7807C172.504 92.5907 175.404 85.7407 173.514 79.2807C168.334 61.5307 148.074 80.7307 142.924 88.0307C139.574 92.7707 147.374 97.2707 150.694 92.5707V92.5807Z" fill="#140D0A"/>
<path d="M106.124 67.7307C106.724 69.2807 107.554 70.5507 109.034 71.3907C110.414 72.1707 112.244 72.4707 113.784 72.0207C116.984 71.0807 118.874 67.7807 118.124 64.5407C117.464 61.6707 114.754 59.7007 111.834 59.8107C108.914 59.9207 106.684 61.7707 105.004 64.0007C104.344 64.8707 104.274 66.4707 104.554 67.4707C104.844 68.5107 105.644 69.6507 106.624 70.1607C107.664 70.7107 108.934 70.9907 110.094 70.6107C111.254 70.2307 112.034 69.5307 112.784 68.5407C112.324 69.1107 112.254 69.2307 112.564 68.8707C112.684 68.7507 112.814 68.6307 112.944 68.5107C112.364 68.9307 112.274 69.0107 112.664 68.7507C112.804 68.6607 112.954 68.5807 113.104 68.5007C112.434 68.7607 112.264 68.8407 112.594 68.7407C112.954 68.6407 112.734 68.6607 111.964 68.8007C112.444 68.8007 112.264 68.7707 111.414 68.7007C110.944 68.5707 110.534 68.3407 110.184 68.0007C108.874 66.7407 109.134 65.0607 110.144 64.0807C110.864 63.3807 111.944 63.0507 112.924 63.3307C113.954 63.6207 114.444 64.4007 114.814 65.3407C114.374 64.2107 113.824 63.2807 112.744 62.6507C111.784 62.0907 110.354 61.8507 109.274 62.2007C107.144 62.8907 105.214 65.3907 106.134 67.7407L106.124 67.7307Z" fill="#140D0A"/>
<path d="M54.4236 67.8507C56.0536 69.5507 58.1436 70.9707 60.5936 70.9807C63.4436 70.9907 66.2336 69.1107 66.9636 66.2907C67.7436 63.2807 65.9336 60.2607 62.9536 59.4307C59.9736 58.6007 56.8536 60.1907 56.0836 63.1907C55.5036 65.4707 56.8236 68.1807 59.2236 68.7307C61.6236 69.2807 64.1336 68.0307 64.7636 65.5907C64.3336 67.2707 62.1536 68.6107 60.4636 68.0907C61.2636 68.3407 59.0436 67.1807 59.1436 67.2707C57.8936 66.2207 57.9036 63.7607 59.0336 62.6507L59.5536 62.2607C60.2036 62.0307 60.3636 61.9607 60.0336 62.0607C59.7936 62.1207 59.8636 62.1107 60.2436 62.0407C60.5736 61.9607 60.9036 61.9607 61.2336 62.0607C61.6536 62.1807 61.9736 62.3607 61.3636 62.0907C60.9236 61.9007 61.9736 62.7107 61.4336 62.1407C61.2236 61.9207 60.9936 61.7107 60.7836 61.4907C59.1536 59.7907 56.0436 59.7207 54.4236 61.4907C52.8036 63.2607 52.6836 66.0407 54.4236 67.8507Z" fill="#140D0A"/>
<path d="M87.9836 74.9107C82.2936 74.3807 75.8235 75.0507 72.7135 80.6007C69.6035 86.1507 72.9336 91.9607 78.1836 94.4007C83.4336 96.8407 89.6636 97.0207 94.1536 93.3007C98.6436 89.5807 99.2635 82.7507 94.9635 78.5607C90.8135 74.5107 84.4436 80.8707 88.6036 84.9207C89.6736 85.9707 87.9436 86.8407 86.9635 87.0707C85.4135 87.4507 83.2336 86.9707 81.8736 86.2007C77.5136 83.7207 86.4435 83.7507 87.9935 83.9007C93.7535 84.4307 93.7235 75.4307 87.9935 74.9007L87.9836 74.9107Z" fill="#140D0A"/>
</svg>
