<svg width="143" height="150" viewBox="0 0 143 150" fill="none" xmlns="http://www.w3.org/2000/svg">
<path d="M97.028 149.531C103.451 149.531 108.658 144.324 108.658 137.901C108.658 131.478 103.451 126.271 97.028 126.271C90.6049 126.271 85.3979 131.478 85.3979 137.901C85.3979 144.324 90.6049 149.531 97.028 149.531Z" fill="#140D0A"/>
<path d="M40.6183 149.531C47.0414 149.531 52.2483 144.324 52.2483 137.901C52.2483 131.478 47.0414 126.271 40.6183 126.271C34.1952 126.271 28.9883 131.478 28.9883 137.901C28.9883 144.324 34.1952 149.531 40.6183 149.531Z" fill="#140D0A"/>
<path d="M97.028 149.531C103.451 149.531 108.658 144.324 108.658 137.901C108.658 131.478 103.451 126.271 97.028 126.271C90.6049 126.271 85.3979 131.478 85.3979 137.901C85.3979 144.324 90.6049 149.531 97.028 149.531Z" fill="#140D0A"/>
<path d="M40.6183 149.531C47.0414 149.531 52.2483 144.324 52.2483 137.901C52.2483 131.478 47.0414 126.271 40.6183 126.271C34.1952 126.271 28.9883 131.478 28.9883 137.901C28.9883 144.324 34.1952 149.531 40.6183 149.531Z" fill="#140D0A"/>
<path d="M111.958 138.161C111.958 138.161 57.8679 137.721 32.5079 137.721C25.9079 137.721 7.788 135.071 5.588 113.001C3.888 96.0507 4.71802 75.1307 5.11802 56.5407C5.41802 42.6007 17.0979 31.1907 31.0379 31.1907H115.088C129.548 31.1907 141.208 43.0107 141.008 57.4707C140.758 75.1707 140.208 96.8007 140.208 111.231C140.208 123.561 124.288 138.151 111.958 138.151V138.161Z" fill="#F77646"/>
<path d="M49.318 20.7807C48.298 17.5507 45.9779 11.7607 49.7879 9.6007C52.2379 8.2107 56.938 9.2507 59.618 9.3107C66.468 9.4707 73.358 9.4907 80.208 9.5307C84.598 9.5607 89.098 8.6507 93.478 9.2207C99.228 9.9607 96.568 17.8707 94.918 21.4607C92.508 26.6807 100.268 31.2607 102.688 26.0007C105.748 19.3607 108.248 9.4407 102.298 3.5407C96.878 -1.8393 87.6479 0.540703 80.8879 0.550703C75.6979 0.550703 70.508 0.330703 65.318 0.360703C60.128 0.390703 55.158 -0.359297 50.218 0.220703C38.138 1.6407 37.7179 13.9507 40.6379 23.1807C42.3779 28.6807 51.068 26.3307 49.318 20.7907V20.7807Z" fill="#140D0A"/>
<path d="M95.4077 67.7307C96.0077 69.2807 96.8378 70.5507 98.3178 71.3907C99.6978 72.1707 101.528 72.4707 103.068 72.0207C106.268 71.0807 108.158 67.7807 107.408 64.5407C106.748 61.6707 104.038 59.7007 101.118 59.8107C98.1978 59.9207 95.9677 61.7707 94.2877 64.0007C93.6277 64.8707 93.5578 66.4707 93.8378 67.4707C94.1278 68.5107 94.9277 69.6507 95.9077 70.1607C96.9477 70.7107 98.2178 70.9907 99.3778 70.6107C100.538 70.2307 101.318 69.5307 102.068 68.5407C101.608 69.1107 101.538 69.2307 101.848 68.8707C101.968 68.7507 102.098 68.6307 102.228 68.5107C101.648 68.9307 101.558 69.0107 101.948 68.7507C102.088 68.6607 102.238 68.5807 102.388 68.5007C101.718 68.7607 101.548 68.8407 101.878 68.7407C102.238 68.6407 102.018 68.6607 101.248 68.8007C101.728 68.8007 101.548 68.7707 100.698 68.7007C100.228 68.5707 99.8178 68.3407 99.4678 68.0007C98.1578 66.7407 98.4177 65.0607 99.4277 64.0807C100.148 63.3807 101.228 63.0507 102.208 63.3307C103.238 63.6207 103.728 64.4007 104.098 65.3407C103.658 64.2107 103.108 63.2807 102.028 62.6507C101.068 62.0907 99.6377 61.8507 98.5577 62.2007C96.4277 62.8907 94.4977 65.3907 95.4177 67.7407L95.4077 67.7307Z" fill="#140D0A"/>
<path d="M59.7679 92.6507C72.3679 96.7907 85.778 95.2607 97.318 88.8507C102.388 86.0407 97.8479 78.2707 92.7779 81.0807C83.2379 86.3707 72.5079 87.3707 62.1579 83.9707C56.6379 82.1607 54.2779 90.8507 59.7679 92.6507Z" fill="#140D0A"/>
<path d="M47.9277 70.3507C49.9277 68.0907 52.3777 65.4807 55.6777 65.7207C58.9777 65.9607 61.5277 69.0607 63.4777 71.5007C67.0977 76.0207 73.4277 69.6207 69.8377 65.1407C66.2477 60.6607 61.5977 56.8907 55.7377 56.7207C49.8777 56.5507 45.2277 59.8407 41.5577 63.9907C37.8877 68.1407 44.0777 74.7007 47.9177 70.3507H47.9277Z" fill="#140D0A"/>
<path d="M97.028 149.531C103.451 149.531 108.658 144.324 108.658 137.901C108.658 131.478 103.451 126.271 97.028 126.271C90.6049 126.271 85.3979 131.478 85.3979 137.901C85.3979 144.324 90.6049 149.531 97.028 149.531Z" fill="#140D0A"/>
<path d="M40.6183 149.531C47.0414 149.531 52.2483 144.324 52.2483 137.901C52.2483 131.478 47.0414 126.271 40.6183 126.271C34.1952 126.271 28.9883 131.478 28.9883 137.901C28.9883 144.324 34.1952 149.531 40.6183 149.531Z" fill="#140D0A"/>
<path d="M111.958 138.161C111.958 138.161 57.8679 137.721 32.5079 137.721C25.9079 137.721 7.788 135.071 5.588 113.001C3.888 96.0507 4.71802 75.1307 5.11802 56.5407C5.41802 42.6007 17.0979 31.1907 31.0379 31.1907H115.088C129.548 31.1907 141.208 43.0107 141.008 57.4707C140.758 75.1707 140.208 96.8007 140.208 111.231C140.208 123.561 124.288 138.151 111.958 138.151V138.161Z" fill="#F77646"/>
<path d="M49.318 20.7807C48.298 17.5507 45.9779 11.7607 49.7879 9.6007C52.2379 8.2107 56.938 9.2507 59.618 9.3107C66.468 9.4707 73.358 9.4907 80.208 9.5307C84.598 9.5607 89.098 8.6507 93.478 9.2207C99.228 9.9607 96.568 17.8707 94.918 21.4607C92.508 26.6807 100.268 31.2607 102.688 26.0007C105.748 19.3607 108.248 9.4407 102.298 3.5407C96.878 -1.8393 87.6479 0.540703 80.8879 0.550703C75.6979 0.550703 70.508 0.330703 65.318 0.360703C60.128 0.390703 55.158 -0.359297 50.218 0.220703C38.138 1.6407 37.7179 13.9507 40.6379 23.1807C42.3779 28.6807 51.068 26.3307 49.318 20.7907V20.7807Z" fill="#140D0A"/>
<path d="M95.4077 67.7307C96.0077 69.2807 96.8378 70.5507 98.3178 71.3907C99.6978 72.1707 101.528 72.4707 103.068 72.0207C106.268 71.0807 108.158 67.7807 107.408 64.5407C106.748 61.6707 104.038 59.7007 101.118 59.8107C98.1978 59.9207 95.9677 61.7707 94.2877 64.0007C93.6277 64.8707 93.5578 66.4707 93.8378 67.4707C94.1278 68.5107 94.9277 69.6507 95.9077 70.1607C96.9477 70.7107 98.2178 70.9907 99.3778 70.6107C100.538 70.2307 101.318 69.5307 102.068 68.5407C101.608 69.1107 101.538 69.2307 101.848 68.8707C101.968 68.7507 102.098 68.6307 102.228 68.5107C101.648 68.9307 101.558 69.0107 101.948 68.7507C102.088 68.6607 102.238 68.5807 102.388 68.5007C101.718 68.7607 101.548 68.8407 101.878 68.7407C102.238 68.6407 102.018 68.6607 101.248 68.8007C101.728 68.8007 101.548 68.7707 100.698 68.7007C100.228 68.5707 99.8178 68.3407 99.4678 68.0007C98.1578 66.7407 98.4177 65.0607 99.4277 64.0807C100.148 63.3807 101.228 63.0507 102.208 63.3307C103.238 63.6207 103.728 64.4007 104.098 65.3407C103.658 64.2107 103.108 63.2807 102.028 62.6507C101.068 62.0907 99.6377 61.8507 98.5577 62.2007C96.4277 62.8907 94.4977 65.3907 95.4177 67.7407L95.4077 67.7307Z" fill="#140D0A"/>
<path d="M59.7679 92.6507C72.3679 96.7907 85.778 95.2607 97.318 88.8507C102.388 86.0407 97.8479 78.2707 92.7779 81.0807C83.2379 86.3707 72.5079 87.3707 62.1579 83.9707C56.6379 82.1607 54.2779 90.8507 59.7679 92.6507Z" fill="#140D0A"/>
<path d="M47.9277 70.3507C49.9277 68.0907 52.3777 65.4807 55.6777 65.7207C58.9777 65.9607 61.5277 69.0607 63.4777 71.5007C67.0977 76.0207 73.4277 69.6207 69.8377 65.1407C66.2477 60.6607 61.5977 56.8907 55.7377 56.7207C49.8777 56.5507 45.2277 59.8407 41.5577 63.9907C37.8877 68.1407 44.0777 74.7007 47.9177 70.3507H47.9277Z" fill="#140D0A"/>
<path d="M97.028 149.531C103.451 149.531 108.658 144.324 108.658 137.901C108.658 131.478 103.451 126.271 97.028 126.271C90.6049 126.271 85.3979 131.478 85.3979 137.901C85.3979 144.324 90.6049 149.531 97.028 149.531Z" fill="#140D0A"/>
<path d="M40.6183 149.531C47.0414 149.531 52.2483 144.324 52.2483 137.901C52.2483 131.478 47.0414 126.271 40.6183 126.271C34.1952 126.271 28.9883 131.478 28.9883 137.901C28.9883 144.324 34.1952 149.531 40.6183 149.531Z" fill="#140D0A"/>
<path d="M111.958 138.161C111.958 138.161 57.8679 137.721 32.5079 137.721C25.9079 137.721 7.788 135.071 5.588 113.001C3.888 96.0507 4.71802 75.1307 5.11802 56.5407C5.41802 42.6007 17.0979 31.1907 31.0379 31.1907H115.088C129.548 31.1907 141.208 43.0107 141.008 57.4707C140.758 75.1707 140.208 96.8007 140.208 111.231C140.208 123.561 124.288 138.151 111.958 138.151V138.161Z" fill="#E582FB"/>
<path d="M49.318 20.7807C48.298 17.5507 45.9779 11.7607 49.7879 9.6007C52.2379 8.2107 56.938 9.2507 59.618 9.3107C66.468 9.4707 73.358 9.4907 80.208 9.5307C84.598 9.5607 89.098 8.6507 93.478 9.2207C99.228 9.9607 96.568 17.8707 94.918 21.4607C92.508 26.6807 100.268 31.2607 102.688 26.0007C105.748 19.3607 108.248 9.4407 102.298 3.5407C96.878 -1.8393 87.6479 0.540703 80.8879 0.550703C75.6979 0.550703 70.508 0.330703 65.318 0.360703C60.128 0.390703 55.158 -0.359297 50.218 0.220703C38.138 1.6407 37.7179 13.9507 40.6379 23.1807C42.3779 28.6807 51.068 26.3307 49.318 20.7907V20.7807Z" fill="#140D0A"/>
<path d="M49.318 20.7807C48.298 17.5507 45.9779 11.7607 49.7879 9.6007C52.2379 8.2107 56.938 9.2507 59.618 9.3107C66.468 9.4707 73.358 9.4907 80.208 9.5307C84.598 9.5607 89.098 8.6507 93.478 9.2207C99.228 9.9607 96.568 17.8707 94.918 21.4607C92.508 26.6807 100.268 31.2607 102.688 26.0007C105.748 19.3607 108.248 9.4407 102.298 3.5407C96.878 -1.8393 87.6479 0.540703 80.8879 0.550703C75.6979 0.550703 70.508 0.330703 65.318 0.360703C60.128 0.390703 55.158 -0.359297 50.218 0.220703C38.138 1.6407 37.7179 13.9507 40.6379 23.1807C42.3779 28.6807 51.068 26.3307 49.318 20.7907V20.7807Z" fill="#140D0A"/>
<path d="M27.668 97.7307C32.238 101.801 36.418 106.911 38.268 112.851C39.048 115.341 39.608 118.931 35.678 117.751C33.068 116.971 30.398 113.881 28.448 112.071C19.758 104.011 13.048 94.3107 8.20804 83.5107C5.84804 78.2307 -1.91198 82.8107 0.438023 88.0507C4.13802 96.3107 8.95803 103.931 14.818 110.841C19.908 116.851 27.498 125.901 35.788 127.021C44.078 128.141 48.6981 121.031 47.6181 113.531C46.3881 104.981 40.328 96.9507 34.038 91.3607C29.728 87.5207 23.338 93.8607 27.678 97.7207L27.668 97.7307Z" fill="#140D0A"/>
<path d="M134.398 102.981C132.168 106.951 129.468 110.461 126.008 113.441C125.048 114.311 124.018 115.071 122.918 115.741C121.748 116.581 121.098 116.321 120.988 114.951C119.928 113.351 121.138 109.731 121.708 108.171C124.918 99.3807 132.598 91.5107 138.078 84.0507C141.508 79.3807 133.708 74.8807 130.308 79.5107C125.358 86.2507 119.658 92.8607 115.588 100.191C112.508 105.741 110.258 112.901 112.948 119.061C120.118 135.471 137.628 115.631 142.188 107.531C145.028 102.481 137.258 97.9307 134.418 102.991L134.398 102.981Z" fill="#140D0A"/>
<path d="M45.208 62.9107C50.678 65.6107 56.148 68.3107 61.608 71.0007C66.788 73.5507 71.3479 65.7907 66.1479 63.2307C60.6779 60.5307 55.208 57.8307 49.748 55.1407C44.568 52.5907 40.008 60.3507 45.208 62.9107Z" fill="#140D0A"/>
<path d="M45.6679 79.3208C51.4379 77.3608 57.218 75.4008 62.988 73.4408C68.448 71.5908 66.098 62.8908 60.598 64.7608C55.098 66.6308 49.0479 68.6808 43.2779 70.6408C37.8179 72.4908 40.1679 81.1908 45.6679 79.3208Z" fill="#140D0A"/>
<path d="M100.258 55.7407L84.448 64.9407C79.448 67.8507 83.9681 75.6307 88.9881 72.7107C94.2581 69.6407 99.528 66.5807 104.798 63.5107C110.068 60.4407 105.278 52.8207 100.258 55.7407Z" fill="#140D0A"/>
<path d="M107.818 71.0007C101.928 69.4407 96.028 67.8807 90.138 66.3207C84.248 64.7607 82.1381 73.5207 87.7481 75.0007C93.6381 76.5607 99.538 78.1207 105.428 79.6807C111.318 81.2407 113.428 72.4807 107.818 71.0007Z" fill="#140D0A"/>
<path d="M60.7882 91.7607L76.4882 92.1407C79.0982 92.2007 81.7282 92.3607 84.3382 92.3307C86.9482 92.3007 87.0282 91.6507 87.1082 93.9807C87.2882 98.8207 85.3382 107.961 81.8982 111.531C78.1182 115.451 67.6981 115.051 63.8881 111.321C57.9581 105.521 64.6582 96.3407 68.3982 91.2407C71.8282 86.5707 64.0183 82.0707 60.6283 86.7007C54.2083 95.4507 48.2682 108.021 57.1482 117.321C63.9882 124.491 78.5781 125.161 86.5081 119.451C93.5481 114.391 96.1482 101.341 96.1582 93.1807C96.1582 86.8707 92.3682 83.7707 86.2982 83.3907C77.8282 82.8607 69.2682 82.9807 60.7882 82.7807C54.9982 82.6407 54.9982 91.6407 60.7882 91.7807V91.7607Z" fill="#140D0A"/>
<path d="M67.9354 105.861L66.1155 109.501C65.0655 111.601 65.4855 114.471 67.7255 115.661C69.7655 116.741 72.7555 116.291 73.8855 114.051L75.7055 110.411C76.7555 108.311 76.3355 105.441 74.0955 104.251C72.0555 103.171 69.0654 103.621 67.9354 105.861Z" fill="#140D0A"/>
<path d="M69.9354 101.861L68.1155 105.501C67.0655 107.601 67.4855 110.471 69.7255 111.661C71.7655 112.741 74.7555 112.291 75.8855 110.051L77.7055 106.411C78.7555 104.311 78.3355 101.441 76.0955 100.251C74.0555 99.1715 71.0654 99.6215 69.9354 101.861Z" fill="#140D0A"/>
</svg>
