<svg width="154" height="150" viewBox="0 0 154 150" fill="none" xmlns="http://www.w3.org/2000/svg">
<path d="M100.907 149.531C107.33 149.531 112.537 144.324 112.537 137.901C112.537 131.478 107.33 126.271 100.907 126.271C94.4837 126.271 89.2767 131.478 89.2767 137.901C89.2767 144.324 94.4837 149.531 100.907 149.531Z" fill="#140D0A"/>
<path d="M46.3867 149.531C52.8098 149.531 58.0167 144.324 58.0167 137.901C58.0167 131.478 52.8098 126.271 46.3867 126.271C39.9636 126.271 34.7567 131.478 34.7567 137.901C34.7567 144.324 39.9636 149.531 46.3867 149.531Z" fill="#140D0A"/>
<path d="M117.727 138.161C117.727 138.161 63.6367 137.721 38.2767 137.721C31.6767 137.721 13.5568 135.071 11.3568 113.001C9.65676 96.0507 10.4867 75.1307 10.8867 56.5407C11.1867 42.6007 22.8667 31.1907 36.8067 31.1907H120.857C135.317 31.1907 146.977 43.0107 146.777 57.4707C146.527 75.1707 145.977 96.8007 145.977 111.231C145.977 123.561 130.057 138.151 117.727 138.151V138.161Z" fill="#F77646"/>
<path d="M55.0865 20.7807C54.0665 17.5507 51.7465 11.7607 55.5565 9.6007C58.0065 8.2107 62.7065 9.2507 65.3865 9.3107C72.2365 9.4707 79.1265 9.4907 85.9765 9.5307C90.3665 9.5607 94.8665 8.6507 99.2465 9.2207C104.996 9.9607 102.336 17.8707 100.686 21.4607C98.2765 26.6807 106.036 31.2607 108.456 26.0007C111.516 19.3607 114.016 9.4407 108.066 3.5407C102.646 -1.8393 93.4165 0.540703 86.6565 0.550703C81.4665 0.550703 76.2765 0.330703 71.0865 0.360703C65.8965 0.390703 60.9265 -0.359297 55.9865 0.220703C43.9065 1.6407 43.4865 13.9507 46.4065 23.1807C48.1465 28.6807 56.8365 26.3307 55.0865 20.7907V20.7807Z" fill="#140D0A"/>
<path d="M28.2167 95.3507C32.8767 99.0607 36.9767 103.571 39.3967 109.091C40.5967 111.831 41.6167 115.881 37.2167 114.881C34.5267 114.271 31.5667 111.181 29.5267 109.461C20.6767 102.001 13.6067 92.8807 8.3167 82.6207C5.6567 77.4707 -2.11326 82.0207 0.546738 87.1607C4.68674 95.1807 9.89668 102.611 16.1167 109.161C21.4767 114.811 29.1967 123.021 37.2767 124.231C45.3567 125.441 50.5667 118.521 49.3167 110.881C47.8967 102.241 41.2367 94.2807 34.5967 89.0007C30.1067 85.4307 23.6967 91.7607 28.2367 95.3607L28.2167 95.3507Z" fill="#140D0A"/>
<path d="M145.077 103.511C142.397 107.311 139.067 110.681 135.127 113.181C133.157 114.431 131.647 115.781 130.697 113.171C130.047 111.381 131.517 108.331 132.277 106.781C136.307 98.6407 144.437 91.8407 150.467 85.1907C154.347 80.9107 148.007 74.5207 144.107 78.8307C138.347 85.1807 131.987 91.3307 126.987 98.3107C123.267 103.501 120.367 110.351 122.257 116.811C127.437 134.561 147.697 115.361 152.847 108.061C156.197 103.321 148.397 98.8207 145.077 103.521V103.511Z" fill="#140D0A"/>
<path d="M85.1867 73.5507C79.4967 73.0207 73.0268 73.6907 69.9168 79.2407C66.8068 84.7907 70.1367 90.6007 75.3867 93.0407C80.6367 95.4807 86.8668 95.6607 91.3568 91.9407C95.8468 88.2207 96.4668 81.3907 92.1668 77.2007C87.8668 73.0107 81.6467 79.5107 85.8067 83.5607C86.8767 84.6107 85.1468 85.4807 84.1668 85.7107C82.6168 86.0907 80.4367 85.6107 79.0767 84.8407C74.7167 82.3607 83.6467 82.3907 85.1967 82.5407C90.9567 83.0707 90.9267 74.0707 85.1967 73.5407L85.1867 73.5507Z" fill="#140D0A"/>
<path d="M42.7267 62.1707C47.4367 65.8607 52.1367 69.5507 56.8467 73.2407C58.7567 74.7407 61.3467 75.1007 63.2067 73.2407C64.7667 71.6807 65.1267 68.3807 63.2067 66.8807C58.4967 63.1907 53.7967 59.5007 49.0867 55.8107C47.1767 54.3107 44.5867 53.9507 42.7267 55.8107C41.1667 57.3707 40.8067 60.6707 42.7267 62.1707Z" fill="#140D0A"/>
<path d="M49.0468 74.8307C53.9168 69.7807 58.7868 64.7307 63.6568 59.6807C67.6768 55.5107 61.3268 49.1407 57.2968 53.3207C52.4268 58.3707 47.5567 63.4207 42.6867 68.4707C38.6667 72.6407 45.0168 79.0107 49.0468 74.8307Z" fill="#140D0A"/>
<path d="M109.357 54.0907C104.647 57.7807 99.9467 61.4707 95.2367 65.1607C93.3267 66.6607 93.6667 69.9507 95.2367 71.5207C97.1267 73.4107 99.6867 73.0307 101.597 71.5207C106.307 67.8307 111.007 64.1407 115.717 60.4507C117.627 58.9507 117.287 55.6607 115.717 54.0907C113.827 52.2007 111.267 52.5807 109.357 54.0907Z" fill="#140D0A"/>
<path d="M115.767 66.7507C110.897 61.7007 106.027 56.6507 101.157 51.6007C97.1267 47.4207 90.7667 53.7907 94.7967 57.9607C99.6667 63.0107 104.537 68.0607 109.407 73.1107C113.437 77.2907 119.797 70.9207 115.767 66.7507Z" fill="#140D0A"/>
</svg>
