<svg width="107" height="91" viewBox="0 0 107 91" fill="none" xmlns="http://www.w3.org/2000/svg">
<path d="M75.5591 91.0001C79.468 91.0001 82.6368 87.8313 82.6368 83.9224C82.6368 80.0135 79.468 76.8447 75.5591 76.8447C71.6502 76.8447 68.4814 80.0135 68.4814 83.9224C68.4814 87.8313 71.6502 91.0001 75.5591 91.0001Z" fill="#140D0A"/>
<path d="M75.5591 91.0001C79.468 91.0001 82.6368 87.8313 82.6368 83.9224C82.6368 80.0135 79.468 76.8447 75.5591 76.8447C71.6502 76.8447 68.4814 80.0135 68.4814 83.9224C68.4814 87.8313 71.6502 91.0001 75.5591 91.0001Z" fill="#140D0A"/>
<path d="M41.2295 91.0001C45.1384 91.0001 48.3072 87.8313 48.3072 83.9224C48.3072 80.0135 45.1384 76.8447 41.2295 76.8447C37.3206 76.8447 34.1519 80.0135 34.1519 83.9224C34.1519 87.8313 37.3206 91.0001 41.2295 91.0001Z" fill="#140D0A"/>
<path d="M84.6449 84.0807C84.6449 84.0807 51.7274 83.813 36.294 83.813C32.2774 83.813 21.2502 82.2002 19.9113 68.7691C18.8767 58.4538 19.3818 45.7225 19.6253 34.4092C19.8078 25.9257 26.916 18.9819 35.3994 18.9819H86.5498C95.3497 18.9819 102.446 26.1752 102.324 34.9752C102.172 45.7469 101.837 58.9102 101.837 67.6919C101.837 75.1956 92.1486 84.0746 84.6449 84.0746V84.0807Z" fill="#6966FF"/>
<path d="M46.524 12.6465C45.9033 10.6808 44.4914 7.15722 46.8101 5.84271C48.3011 4.99679 51.1613 5.62971 52.7923 5.66622C56.961 5.76359 61.1541 5.77576 65.3228 5.80011C67.9944 5.81836 70.733 5.26456 73.3985 5.61145C76.8978 6.06179 75.279 10.8756 74.2748 13.0604C72.8082 16.2371 77.5307 19.0243 79.0034 15.8233C80.8657 11.7824 82.3871 5.74533 78.7661 2.15477C75.4676 -1.11934 69.8506 0.329056 65.7366 0.335142C62.5781 0.335142 59.4197 0.201256 56.2612 0.219513C53.1027 0.23777 50.0781 -0.218658 47.0718 0.134313C39.7202 0.998484 39.4646 8.48999 41.2417 14.1071C42.3006 17.4542 47.589 16.0241 46.524 12.6526V12.6465Z" fill="#140D0A"/>
<path d="M23.8796 50.9228C23.3423 47.3379 22.2129 43.8048 20.04 40.8497C18.9611 39.3835 17.137 37.6135 16.3252 40.2368C15.8281 41.8401 16.556 44.3404 16.8417 45.9389C18.0805 52.8732 20.7358 59.3745 24.5335 65.2845C26.4384 68.2534 21.6761 70.964 19.7765 67.9981C16.8094 63.3758 14.4788 58.369 12.9194 53.0978C11.5726 48.5537 9.5947 41.9868 11.4156 37.3601C13.2365 32.7335 18.4689 32.0932 22.1151 35.0768C26.2367 38.4542 28.4053 44.3864 29.1676 49.4925C29.6829 52.9452 24.3963 54.3974 23.8804 50.9092L23.8796 50.9228Z" fill="#140D0A"/>
<path d="M101.289 62.9941C99.6583 65.3066 97.6318 67.3575 95.234 68.879C94.0351 69.6397 93.1162 70.4612 92.538 68.8729C92.1425 67.7835 93.0371 65.9274 93.4996 64.9841C95.9521 60.0303 100.9 55.8921 104.569 51.8451C106.931 49.2404 103.072 45.3516 100.699 47.9746C97.1936 51.839 93.3231 55.5817 90.2803 59.8295C88.0164 62.988 86.2515 67.1567 87.4017 71.0881C90.5541 81.8902 102.884 70.2056 106.018 65.7631C108.057 62.8784 103.31 60.1399 101.289 63.0002V62.9941Z" fill="#140D0A"/>
<path d="M74.5731 41.2193C74.9382 42.1626 75.4433 42.9354 76.344 43.4466C77.1838 43.9213 78.2975 44.1039 79.2347 43.83C81.1821 43.258 82.3323 41.2497 81.8759 39.2779C81.4743 37.5313 79.825 36.3325 78.048 36.3994C76.271 36.4663 74.9139 37.5922 73.8915 38.9493C73.4898 39.4788 73.4472 40.4525 73.6176 41.061C73.7941 41.694 74.281 42.3877 74.8773 42.6981C75.5103 43.0328 76.2831 43.2032 76.9891 42.972C77.695 42.7407 78.1697 42.3147 78.6261 41.7122C78.3462 42.0591 78.3036 42.1321 78.4923 41.913C78.5653 41.84 78.6444 41.767 78.7235 41.694C78.3705 41.9496 78.3158 41.9982 78.5531 41.84C78.6383 41.7852 78.7296 41.7366 78.8209 41.6879C78.4131 41.8461 78.3097 41.8948 78.5105 41.8339C78.7296 41.7731 78.5957 41.7852 78.1271 41.8704C78.4192 41.8704 78.3097 41.8522 77.7924 41.8096C77.5064 41.7305 77.2569 41.5905 77.0439 41.3836C76.2466 40.6168 76.4048 39.5944 77.0195 38.998C77.4577 38.572 78.1149 38.3712 78.7113 38.5416C79.3382 38.7181 79.6364 39.1927 79.8615 39.7648C79.5938 39.0771 79.2591 38.5111 78.6018 38.1277C78.0176 37.7869 77.1473 37.6409 76.49 37.8539C75.1938 38.2738 74.0192 39.7952 74.5791 41.2254L74.5731 41.2193Z" fill="#140D0A"/>
<path d="M43.1101 41.292C44.102 42.3266 45.3739 43.1908 46.8649 43.1969C48.5994 43.203 50.2973 42.0588 50.7415 40.3427C51.2162 38.5109 50.1147 36.673 48.3011 36.1679C46.4876 35.6628 44.5889 36.6304 44.1203 38.4561C43.7673 39.8436 44.5706 41.4929 46.0312 41.8276C47.4918 42.1623 49.0193 41.4016 49.4027 39.9167C49.141 40.9391 47.8143 41.7546 46.7858 41.4381C47.2727 41.5902 45.9216 40.8843 45.9825 40.9391C45.2218 40.3001 45.2279 38.803 45.9156 38.1275L46.232 37.8901C46.6276 37.7502 46.725 37.7076 46.5241 37.7684C46.3781 37.8049 46.4207 37.7988 46.6519 37.7562C46.8528 37.7076 47.0536 37.7076 47.2544 37.7684C47.51 37.8415 47.7048 37.951 47.3335 37.7867C47.0658 37.671 47.7048 38.164 47.3761 37.8171C47.2483 37.6832 47.1084 37.5554 46.9806 37.4215C45.9886 36.387 44.0959 36.3444 43.1101 37.4215C42.1242 38.4987 42.0511 40.1905 43.1101 41.292Z" fill="#140D0A"/>
<path d="M47.7657 51.37C47.5162 60.3403 58.3305 63.3102 63.4486 56.4942L59.146 57.048C62.1949 59.6161 66.1324 61.3019 70.0394 59.4883C73.9464 57.6748 75.0966 53.5426 73.2953 49.8608C71.7434 46.6962 67.0209 49.4713 68.5667 52.6237C69.4309 54.3946 67.1 54.851 65.9924 54.6989C64.8848 54.5468 63.8928 53.9017 63.0226 53.1714C61.5559 51.9421 59.8398 52.2342 58.72 53.7252C56.6508 56.482 53.1637 54.3459 53.2429 51.3639C53.3402 47.8403 47.8631 47.8403 47.7657 51.3639V51.37Z" fill="#140D0A"/>
</svg>
