<svg width="175" height="150" viewBox="0 0 175 150" fill="none" xmlns="http://www.w3.org/2000/svg">
<path d="M107.74 149.521C114.163 149.521 119.37 144.314 119.37 137.891C119.37 131.468 114.163 126.261 107.74 126.261C101.317 126.261 96.11 131.468 96.11 137.891C96.11 144.314 101.317 149.521 107.74 149.521Z" fill="#140D0A"/>
<path d="M51.34 149.521C57.7631 149.521 62.97 144.314 62.97 137.891C62.97 131.468 57.7631 126.261 51.34 126.261C44.9169 126.261 39.71 131.468 39.71 137.891C39.71 144.314 44.9169 149.521 51.34 149.521Z" fill="#140D0A"/>
<path d="M122.68 138.151C122.68 138.151 68.59 137.711 43.23 137.711C36.63 137.711 18.51 135.061 16.31 112.991C14.61 96.0407 15.44 75.1207 15.84 56.5307C16.14 42.5907 27.82 31.1807 41.76 31.1807H125.81C140.27 31.1807 151.93 43.0007 151.73 57.4607C151.48 75.1607 150.93 96.7907 150.93 111.221C150.93 123.551 135.01 138.141 122.68 138.141V138.151Z" fill="#54B864"/>
<path d="M60.03 20.7807C59.01 17.5507 56.69 11.7607 60.5 9.6007C62.95 8.2107 67.65 9.2507 70.33 9.3107C77.18 9.4707 84.07 9.4907 90.92 9.5307C95.31 9.5607 99.81 8.6507 104.19 9.2207C109.94 9.9607 107.28 17.8707 105.63 21.4607C103.22 26.6807 110.98 31.2607 113.4 26.0007C116.46 19.3607 118.96 9.4407 113.01 3.5407C107.59 -1.8393 98.36 0.540703 91.6 0.550703C86.41 0.550703 81.22 0.330703 76.03 0.360703C70.84 0.390703 65.87 -0.359297 60.93 0.220703C48.85 1.6407 48.43 13.9507 51.35 23.1807C53.09 28.6807 61.78 26.3307 60.03 20.7907V20.7807Z" fill="#140D0A"/>
<path d="M31.95 87.2807C29.8 79.1807 25.46 70.1607 18.47 65.1307C12.07 60.5207 3.02 61.6707 0.620001 70.0107C-1.64 77.8407 2.75 87.9407 5.7 95.0707C9.35 103.901 14.28 111.891 20.29 119.311C23.94 123.811 30.27 117.411 26.65 112.951C19.35 103.951 13.9 93.5207 10.77 82.3607C10.09 79.9307 8.68 76.5307 9.08 74.0007C9.71 70.0307 12.63 71.7007 14.77 73.8007C19.09 78.0407 21.74 83.9207 23.27 89.6807C24.75 95.2707 33.44 92.9007 31.95 87.2907V87.2807Z" fill="#140D0A"/>
<path d="M150.69 92.5807C153.37 88.7807 156.7 85.4107 160.64 82.9107C162.61 81.6607 164.12 80.3107 165.07 82.9207C165.72 84.7107 164.25 87.7607 163.49 89.3107C159.46 97.4507 151.33 104.251 145.3 110.901C141.42 115.181 147.76 121.571 151.66 117.261C157.42 110.911 163.78 104.761 168.78 97.7807C172.5 92.5907 175.4 85.7407 173.51 79.2807C168.33 61.5307 148.07 80.7307 142.92 88.0307C139.57 92.7707 147.37 97.2707 150.69 92.5707V92.5807Z" fill="#140D0A"/>
<path d="M57.3 74.3807C58.02 72.6807 59.21 69.5507 61.22 68.9107C62.91 68.3707 64.22 70.3907 64.99 71.6107C68.08 76.4907 75.87 71.9807 72.76 67.0707C70 62.7207 65.68 59.0707 60.21 59.9307C54.74 60.7907 51.48 65.2607 49.53 69.8307C48.57 72.0807 48.87 74.6307 51.14 75.9907C53.02 77.1207 56.35 76.6107 57.3 74.3807Z" fill="#140D0A"/>
<path d="M67.44 91.3207C78.5 101.081 94.02 100.121 104.24 89.6007C108.28 85.4407 101.92 79.0707 97.88 83.2407C91.24 90.0707 81.22 91.5007 73.81 84.9607C69.48 81.1407 63.09 87.4807 67.45 91.3207H67.44Z" fill="#140D0A"/>
<path d="M124.56 69.9207C122.61 65.3507 119.08 60.8307 113.88 60.0207C108.41 59.1607 104.08 62.8107 101.33 67.1607C98.22 72.0707 106.01 76.5907 109.1 71.7007C109.88 70.4707 111.18 68.4607 112.87 69.0007C114.87 69.6407 116.07 72.7807 116.79 74.4707C117.75 76.7207 121.03 77.1807 122.95 76.0807C125.28 74.7607 125.51 72.1507 124.56 69.9207Z" fill="#140D0A"/>
</svg>
