<svg width="65" height="65" viewBox="0 0 65 65" fill="none" xmlns="http://www.w3.org/2000/svg">
<path d="M43.8919 65.0002C46.7974 65.0002 49.1529 62.7368 49.1529 59.9447C49.1529 57.1526 46.7974 54.8892 43.8919 54.8892C40.9863 54.8892 38.6309 57.1526 38.6309 59.9447C38.6309 62.7368 40.9863 65.0002 43.8919 65.0002Z" fill="#140D0A"/>
<path d="M18.3743 65.0002C21.2798 65.0002 23.6353 62.7368 23.6353 59.9447C23.6353 57.1526 21.2798 54.8892 18.3743 54.8892C15.4687 54.8892 13.1133 57.1526 13.1133 59.9447C13.1133 62.7368 15.4687 65.0002 18.3743 65.0002Z" fill="#140D0A"/>
<path d="M43.8919 65.0002C46.7974 65.0002 49.1529 62.7368 49.1529 59.9447C49.1529 57.1526 46.7974 54.8892 43.8919 54.8892C40.9863 54.8892 38.6309 57.1526 38.6309 59.9447C38.6309 62.7368 40.9863 65.0002 43.8919 65.0002Z" fill="#140D0A"/>
<path d="M18.3743 65.0002C21.2798 65.0002 23.6353 62.7368 23.6353 59.9447C23.6353 57.1526 21.2798 54.8892 18.3743 54.8892C15.4687 54.8892 13.1133 57.1526 13.1133 59.9447C13.1133 62.7368 15.4687 65.0002 18.3743 65.0002Z" fill="#140D0A"/>
<path d="M50.6455 60.0587C50.6455 60.0587 26.1771 59.8675 14.7052 59.8675C11.7196 59.8675 3.52276 58.7155 2.52756 49.1217C1.75854 41.7536 2.13401 32.6597 2.31496 24.5787C2.45067 18.519 7.73425 13.5591 14.0402 13.5591H52.0614C58.6026 13.5591 63.8772 18.6972 63.7867 24.9829C63.6736 32.6771 63.4248 42.0796 63.4248 48.3523C63.4248 53.7121 56.2232 60.0544 50.6455 60.0544V60.0587Z" fill="#F77646"/>
<path d="M22.3096 9.03333C21.8481 7.62925 20.7986 5.11235 22.5222 4.17341C23.6304 3.56918 25.7566 4.02126 26.9689 4.04734C30.0676 4.1169 33.1844 4.12559 36.2831 4.14298C38.269 4.15602 40.3046 3.76044 42.286 4.00822C44.8871 4.3299 43.6838 7.76836 42.9374 9.32892C41.8472 11.598 45.3575 13.589 46.4522 11.3025C47.8365 8.41606 48.9674 4.10385 46.2758 1.53914C43.824 -0.799539 39.6487 0.235043 36.5907 0.23939C34.2429 0.23939 31.8952 0.143756 29.5474 0.156797C27.1996 0.169838 24.9514 -0.156186 22.7167 0.0959392C17.2521 0.71321 17.0621 6.06434 18.383 10.0766C19.1701 12.4674 23.1012 11.4459 22.3096 9.03768V9.03333Z" fill="#140D0A"/>
<path d="M43.1583 29.4423C43.4297 30.1161 43.8052 30.6681 44.4747 31.0333C45.099 31.3723 45.9268 31.5027 46.6234 31.3071C48.071 30.8985 48.9259 29.464 48.5867 28.0556C48.2881 26.808 47.0622 25.9516 45.7413 25.9995C44.4204 26.0473 43.4116 26.8515 42.6517 27.8208C42.3531 28.199 42.3215 28.8946 42.4481 29.3293C42.5793 29.7813 42.9412 30.2769 43.3845 30.4986C43.8549 30.7377 44.4295 30.8594 44.9542 30.6942C45.479 30.529 45.8318 30.2247 46.1711 29.7944C45.963 30.0422 45.9313 30.0943 46.0716 29.9378C46.1258 29.8857 46.1847 29.8335 46.2435 29.7813C45.9811 29.9639 45.9404 29.9987 46.1168 29.8857C46.1801 29.8465 46.2479 29.8118 46.3158 29.777C46.0127 29.89 45.9359 29.9248 46.0851 29.8813C46.248 29.8378 46.1485 29.8465 45.8002 29.9074C46.0173 29.9074 45.9358 29.8944 45.5513 29.8639C45.3387 29.8074 45.1533 29.7074 44.9949 29.5596C44.4023 29.0119 44.5199 28.2816 44.9768 27.8556C45.3025 27.5513 45.7911 27.4079 46.2344 27.5296C46.7003 27.6557 46.922 27.9947 47.0894 28.4033C46.8903 27.9121 46.6415 27.5079 46.153 27.234C45.7187 26.9906 45.0718 26.8862 44.5833 27.0384C43.6197 27.3383 42.7467 28.4251 43.1628 29.4466L43.1583 29.4423Z" fill="#140D0A"/>
<path d="M27.0365 40.2749C32.7363 42.0745 38.8026 41.4095 44.0228 38.623C46.3163 37.4015 44.2626 34.0239 41.9691 35.2454C37.6535 37.545 32.7997 37.9797 28.1177 36.5017C25.6206 35.7149 24.5531 39.4924 27.0365 40.2749Z" fill="#140D0A"/>
<path d="M21.6807 30.5815C22.5855 29.5991 23.6937 28.4645 25.1866 28.5688C26.6794 28.6732 27.8329 30.0207 28.715 31.0814C30.3526 33.0462 33.216 30.2642 31.592 28.3167C29.9681 26.3693 27.8646 24.7304 25.2137 24.6565C22.5629 24.5827 20.4593 26.0128 18.7992 27.8168C17.139 29.6208 19.9391 32.4724 21.6762 30.5815H21.6807Z" fill="#140D0A"/>
<path d="M43.8919 65.0002C46.7974 65.0002 49.1529 62.7368 49.1529 59.9447C49.1529 57.1526 46.7974 54.8892 43.8919 54.8892C40.9863 54.8892 38.6309 57.1526 38.6309 59.9447C38.6309 62.7368 40.9863 65.0002 43.8919 65.0002Z" fill="#140D0A"/>
<path d="M18.3743 65.0002C21.2798 65.0002 23.6353 62.7368 23.6353 59.9447C23.6353 57.1526 21.2798 54.8892 18.3743 54.8892C15.4687 54.8892 13.1133 57.1526 13.1133 59.9447C13.1133 62.7368 15.4687 65.0002 18.3743 65.0002Z" fill="#140D0A"/>
<path d="M50.6455 60.0587C50.6455 60.0587 26.1771 59.8675 14.7052 59.8675C11.7196 59.8675 3.52276 58.7155 2.52756 49.1217C1.75854 41.7536 2.13401 32.6597 2.31496 24.5787C2.45067 18.519 7.73425 13.5591 14.0402 13.5591H52.0614C58.6026 13.5591 63.8772 18.6972 63.7867 24.9829C63.6736 32.6771 63.4248 42.0796 63.4248 48.3523C63.4248 53.7121 56.2232 60.0544 50.6455 60.0544V60.0587Z" fill="#F77646"/>
<path d="M22.3096 9.03333C21.8481 7.62925 20.7986 5.11235 22.5222 4.17341C23.6304 3.56918 25.7566 4.02126 26.9689 4.04734C30.0676 4.1169 33.1844 4.12559 36.2831 4.14298C38.269 4.15602 40.3046 3.76044 42.286 4.00822C44.8871 4.3299 43.6838 7.76836 42.9374 9.32892C41.8472 11.598 45.3575 13.589 46.4522 11.3025C47.8365 8.41606 48.9674 4.10385 46.2758 1.53914C43.824 -0.799539 39.6487 0.235043 36.5907 0.23939C34.2429 0.23939 31.8952 0.143756 29.5474 0.156797C27.1996 0.169838 24.9514 -0.156186 22.7167 0.0959392C17.2521 0.71321 17.0621 6.06434 18.383 10.0766C19.1701 12.4674 23.1012 11.4459 22.3096 9.03768V9.03333Z" fill="#140D0A"/>
<path d="M43.1583 29.4423C43.4297 30.1161 43.8052 30.6681 44.4747 31.0333C45.099 31.3723 45.9268 31.5027 46.6234 31.3071C48.071 30.8985 48.9259 29.464 48.5867 28.0556C48.2881 26.808 47.0622 25.9516 45.7413 25.9995C44.4204 26.0473 43.4116 26.8515 42.6517 27.8208C42.3531 28.199 42.3215 28.8946 42.4481 29.3293C42.5793 29.7813 42.9412 30.2769 43.3845 30.4986C43.8549 30.7377 44.4295 30.8594 44.9542 30.6942C45.479 30.529 45.8318 30.2247 46.1711 29.7944C45.963 30.0422 45.9313 30.0943 46.0716 29.9378C46.1258 29.8857 46.1847 29.8335 46.2435 29.7813C45.9811 29.9639 45.9404 29.9987 46.1168 29.8857C46.1801 29.8465 46.2479 29.8118 46.3158 29.777C46.0127 29.89 45.9359 29.9248 46.0851 29.8813C46.248 29.8378 46.1485 29.8465 45.8002 29.9074C46.0173 29.9074 45.9358 29.8944 45.5513 29.8639C45.3387 29.8074 45.1533 29.7074 44.9949 29.5596C44.4023 29.0119 44.5199 28.2816 44.9768 27.8556C45.3025 27.5513 45.7911 27.4079 46.2344 27.5296C46.7003 27.6557 46.922 27.9947 47.0894 28.4033C46.8903 27.9121 46.6415 27.5079 46.153 27.234C45.7187 26.9906 45.0718 26.8862 44.5833 27.0384C43.6197 27.3383 42.7467 28.4251 43.1628 29.4466L43.1583 29.4423Z" fill="#140D0A"/>
<path d="M27.0365 40.2749C32.7363 42.0745 38.8026 41.4095 44.0228 38.623C46.3163 37.4015 44.2626 34.0239 41.9691 35.2454C37.6535 37.545 32.7997 37.9797 28.1177 36.5017C25.6206 35.7149 24.5531 39.4924 27.0365 40.2749Z" fill="#140D0A"/>
<path d="M21.6807 30.5815C22.5855 29.5991 23.6937 28.4645 25.1866 28.5688C26.6794 28.6732 27.8329 30.0207 28.715 31.0814C30.3526 33.0462 33.216 30.2642 31.592 28.3167C29.9681 26.3693 27.8646 24.7304 25.2137 24.6565C22.5629 24.5827 20.4593 26.0128 18.7992 27.8168C17.139 29.6208 19.9391 32.4724 21.6762 30.5815H21.6807Z" fill="#140D0A"/>
<path d="M43.8919 65.0002C46.7974 65.0002 49.1529 62.7368 49.1529 59.9447C49.1529 57.1526 46.7974 54.8892 43.8919 54.8892C40.9863 54.8892 38.6309 57.1526 38.6309 59.9447C38.6309 62.7368 40.9863 65.0002 43.8919 65.0002Z" fill="#140D0A"/>
<path d="M18.3743 65.0002C21.2798 65.0002 23.6353 62.7368 23.6353 59.9447C23.6353 57.1526 21.2798 54.8892 18.3743 54.8892C15.4687 54.8892 13.1133 57.1526 13.1133 59.9447C13.1133 62.7368 15.4687 65.0002 18.3743 65.0002Z" fill="#140D0A"/>
<path d="M50.6455 60.0587C50.6455 60.0587 26.1771 59.8675 14.7052 59.8675C11.7196 59.8675 3.52276 58.7155 2.52756 49.1217C1.75854 41.7536 2.13401 32.6597 2.31496 24.5787C2.45067 18.519 7.73425 13.5591 14.0402 13.5591H52.0614C58.6026 13.5591 63.8772 18.6972 63.7867 24.9829C63.6736 32.6771 63.4248 42.0796 63.4248 48.3523C63.4248 53.7121 56.2232 60.0544 50.6455 60.0544V60.0587Z" fill="#E582FB"/>
<path d="M22.3096 9.03333C21.8481 7.62925 20.7986 5.11235 22.5222 4.17341C23.6304 3.56918 25.7566 4.02126 26.9689 4.04734C30.0676 4.1169 33.1844 4.12559 36.2831 4.14298C38.269 4.15602 40.3046 3.76044 42.286 4.00822C44.8871 4.3299 43.6838 7.76836 42.9374 9.32892C41.8472 11.598 45.3575 13.589 46.4522 11.3025C47.8365 8.41606 48.9674 4.10385 46.2758 1.53914C43.824 -0.799539 39.6487 0.235043 36.5907 0.23939C34.2429 0.23939 31.8952 0.143756 29.5474 0.156797C27.1996 0.169838 24.9514 -0.156186 22.7167 0.0959392C17.2521 0.71321 17.0621 6.06434 18.383 10.0766C19.1701 12.4674 23.1012 11.4459 22.3096 9.03768V9.03333Z" fill="#140D0A"/>
<path d="M22.3096 9.03333C21.8481 7.62925 20.7986 5.11235 22.5222 4.17341C23.6304 3.56918 25.7566 4.02126 26.9689 4.04734C30.0676 4.1169 33.1844 4.12559 36.2831 4.14298C38.269 4.15602 40.3046 3.76044 42.286 4.00822C44.8871 4.3299 43.6838 7.76836 42.9374 9.32892C41.8472 11.598 45.3575 13.589 46.4522 11.3025C47.8365 8.41606 48.9674 4.10385 46.2758 1.53914C43.824 -0.799539 39.6487 0.235043 36.5907 0.23939C34.2429 0.23939 31.8952 0.143756 29.5474 0.156797C27.1996 0.169838 24.9514 -0.156186 22.7167 0.0959392C17.2521 0.71321 17.0621 6.06434 18.383 10.0766C19.1701 12.4674 23.1012 11.4459 22.3096 9.03768V9.03333Z" fill="#140D0A"/>
<path d="M12.516 42.4827C14.5833 44.2519 16.4742 46.4733 17.3111 49.0554C17.6639 50.1378 17.9173 51.6983 16.1395 51.1854C14.9588 50.8463 13.751 49.5031 12.8689 48.7163C8.93783 45.2126 5.90247 40.9961 3.71303 36.3013C2.64545 34.0061 -0.86491 35.997 0.198146 38.2748C1.87189 41.8655 4.05229 45.1779 6.70315 48.1816C9.00568 50.7941 12.4391 54.7282 16.1892 55.215C19.9393 55.7019 22.0293 52.6112 21.5407 49.351C20.9843 45.6343 18.2429 42.1437 15.3976 39.7137C13.4479 38.0445 10.5573 40.8004 12.5205 42.4784L12.516 42.4827Z" fill="#140D0A"/>
<path d="M60.7968 44.7652C59.7881 46.4909 58.5667 48.0167 57.0015 49.3121C56.5672 49.6903 56.1013 50.0207 55.6037 50.3119C55.0744 50.6771 54.7804 50.5641 54.7307 49.9685C54.2512 49.273 54.7985 47.6994 55.0564 47.0213C56.5084 43.2003 59.9826 39.7792 62.4616 36.5364C64.0132 34.5063 60.4847 32.5502 58.9467 34.5628C56.7075 37.4927 54.129 40.3661 52.2879 43.5524C50.8946 45.965 49.8768 49.0774 51.0936 51.7551C54.3371 58.8885 62.258 50.2641 64.3208 46.7431C65.6055 44.5478 62.0906 42.57 60.8059 44.7695L60.7968 44.7652Z" fill="#140D0A"/>
<path d="M20.452 27.3477C22.9265 28.5214 25.4009 29.6951 27.8708 30.8644C30.2141 31.9729 32.2768 28.5996 29.9245 27.4868C27.4501 26.3131 24.9757 25.1394 22.5058 23.9701C20.1625 22.8616 18.0997 26.2349 20.452 27.3477Z" fill="#140D0A"/>
<path d="M20.6581 34.4806C23.2682 33.6286 25.8829 32.7766 28.493 31.9246C30.963 31.1204 29.8999 27.3385 27.4119 28.1514C24.9239 28.9643 22.1871 29.8554 19.5769 30.7074C17.107 31.5116 18.1701 35.2935 20.6581 34.4806Z" fill="#140D0A"/>
<path d="M45.3522 24.2298L38.2003 28.229C35.9385 29.4939 37.9832 32.8759 40.2541 31.6066C42.6381 30.2721 45.022 28.9419 47.4059 27.6074C49.7899 26.2728 47.6231 22.9604 45.3522 24.2298Z" fill="#140D0A"/>
<path d="M48.7722 30.8635C46.1078 30.1853 43.4388 29.5072 40.7744 28.8291C38.11 28.151 37.1555 31.9589 39.6933 32.6023C42.3577 33.2804 45.0267 33.9585 47.6911 34.6367C50.3555 35.3148 51.31 31.5068 48.7722 30.8635Z" fill="#140D0A"/>
<path d="M27.4996 39.8882L34.6018 40.0534C35.7824 40.0794 36.9721 40.149 38.1528 40.136C39.3335 40.1229 39.3697 39.8404 39.4059 40.8532C39.4873 42.9571 38.6051 46.9303 37.049 48.4822C35.3391 50.1862 30.6254 50.0123 28.9019 48.3909C26.2194 45.8696 29.2502 41.8791 30.9421 39.6621C32.4937 37.6321 28.9608 35.676 27.4273 37.6886C24.5231 41.4922 21.836 46.9564 25.853 50.9991C28.9472 54.1158 35.5471 54.4071 39.1344 51.925C42.319 49.7254 43.4952 44.0526 43.4997 40.5054C43.4997 37.7625 41.7853 36.4149 39.0394 36.2498C35.2079 36.0194 31.3356 36.0715 27.4996 35.9846C24.8804 35.9237 24.8804 39.836 27.4996 39.8969V39.8882Z" fill="#140D0A"/>
<path d="M30.7321 46.0179L29.9088 47.6002C29.4338 48.513 29.6238 49.7606 30.6371 50.2779C31.5599 50.7474 32.9125 50.5518 33.4237 49.578L34.247 47.9957C34.7219 47.0829 34.532 45.8353 33.5187 45.318C32.5958 44.8485 31.2433 45.0441 30.7321 46.0179Z" fill="#140D0A"/>
<path d="M31.6364 44.2791L30.8131 45.8614C30.3381 46.7743 30.5281 48.0219 31.5414 48.5391C32.4642 49.0086 33.8168 48.813 34.328 47.8393L35.1513 46.257C35.6262 45.3441 35.4363 44.0965 34.423 43.5792C33.5001 43.1098 32.1475 43.3054 31.6364 44.2791Z" fill="#140D0A"/>
</svg>
