<svg width="70" height="68" viewBox="0 0 70 68" fill="none" xmlns="http://www.w3.org/2000/svg">
<path d="M46.4261 67.531C49.3269 67.531 51.6785 65.1795 51.6785 62.2787C51.6785 59.3779 49.3269 57.0264 46.4261 57.0264C43.5254 57.0264 41.1738 59.3779 41.1738 62.2787C41.1738 65.1795 43.5254 67.531 46.4261 67.531Z" fill="#140D0A"/>
<path d="M46.4261 67.531C49.3269 67.531 51.6785 65.1795 51.6785 62.2787C51.6785 59.3779 49.3269 57.0264 46.4261 57.0264C43.5254 57.0264 41.1738 59.3779 41.1738 62.2787C41.1738 65.1795 43.5254 67.531 46.4261 67.531Z" fill="#140D0A"/>
<path d="M20.9506 67.531C23.8513 67.531 26.2029 65.1795 26.2029 62.2787C26.2029 59.3779 23.8513 57.0264 20.9506 57.0264C18.0498 57.0264 15.6982 59.3779 15.6982 62.2787C15.6982 65.1795 18.0498 67.531 20.9506 67.531Z" fill="#140D0A"/>
<path d="M53.1669 62.3955C53.1669 62.3955 28.7389 62.1968 17.2859 62.1968C14.3052 62.1968 6.12192 61 5.12836 51.0328C4.36061 43.3778 4.73544 33.93 4.91609 25.5344C5.05157 19.2389 10.3265 14.0859 16.622 14.0859H54.5805C61.1109 14.0859 66.3767 19.4241 66.2864 25.9544C66.1735 33.9481 65.9251 43.7166 65.9251 50.2334C65.9251 55.8018 58.7354 62.3909 53.1669 62.3909V62.3955Z" fill="#98FB82"/>
<path d="M24.8781 9.38493C24.4174 7.9262 23.3697 5.31134 25.0904 4.33585C26.1968 3.7081 28.3194 4.17778 29.5298 4.20488C32.6233 4.27714 35.735 4.28617 38.8286 4.30423C40.8112 4.31778 42.8435 3.90681 44.8215 4.16423C47.4183 4.49843 46.217 8.07072 45.4718 9.69203C44.3834 12.0495 47.888 14.1179 48.9809 11.7424C50.3629 8.74363 51.4919 4.26359 48.8048 1.59904C46.357 -0.830659 42.1886 0.244191 39.1357 0.248707C36.7918 0.248707 34.4479 0.149351 32.104 0.1629C29.7601 0.176448 27.5156 -0.162265 25.2846 0.0996734C19.829 0.74097 19.6393 6.30038 20.9581 10.4688C21.7439 12.9527 25.6684 11.8914 24.8781 9.38944V9.38493Z" fill="#140D0A"/>
<path d="M12.7432 43.0618C14.8477 44.7373 16.6993 46.7741 17.7922 49.267C18.3342 50.5044 18.7948 52.3335 16.8077 51.8819C15.5929 51.6064 14.2561 50.2109 13.3348 49.4341C9.33797 46.065 6.14502 41.9463 3.75597 37.3127C2.55466 34.9869 -0.954386 37.0417 0.246916 39.363C2.11661 42.985 4.46954 46.3405 7.2786 49.2986C9.69927 51.8502 13.1857 55.558 16.8348 56.1045C20.4839 56.6509 22.8368 53.5258 22.2723 50.0754C21.631 46.1734 18.6232 42.5785 15.6245 40.194C13.5967 38.5817 10.7019 41.4405 12.7522 43.0663L12.7432 43.0618Z" fill="#140D0A"/>
<path d="M65.5186 46.7473C64.3083 48.4634 62.8044 49.9854 61.025 51.1144C60.1354 51.6789 59.4534 52.2886 59.0244 51.1099C58.7308 50.3015 59.3947 48.9241 59.7379 48.2241C61.558 44.5479 65.2296 41.4769 67.9529 38.4736C69.7051 36.5407 66.8419 33.6549 65.0806 35.6013C62.4793 38.4691 59.607 41.2466 57.3489 44.3989C55.6689 46.7427 54.3592 49.8363 55.2127 52.7538C57.5521 60.77 66.7019 52.0989 69.0277 48.8021C70.5406 46.6615 67.018 44.6292 65.5186 46.7518V46.7473Z" fill="#140D0A"/>
<path d="M45.6932 30.5886C45.9641 31.2886 46.339 31.8621 47.0074 32.2415C47.6306 32.5937 48.4571 32.7292 49.1525 32.526C50.5977 32.1015 51.4513 30.6111 51.1126 29.1479C50.8145 27.8518 49.5906 26.9621 48.2719 27.0117C46.9532 27.0614 45.9461 27.8969 45.1874 28.904C44.8893 29.2969 44.8577 30.0195 44.9841 30.4711C45.1151 30.9408 45.4764 31.4557 45.919 31.686C46.3887 31.9344 46.9622 32.0608 47.4861 31.8892C48.01 31.7176 48.3622 31.4015 48.7009 30.9544C48.4932 31.2118 48.4616 31.266 48.6016 31.1034C48.6558 31.0492 48.7145 30.995 48.7732 30.9408C48.5113 31.1305 48.4706 31.1666 48.6467 31.0492C48.71 31.0086 48.7777 30.9724 48.8454 30.9363C48.5429 31.0537 48.4661 31.0899 48.6151 31.0447C48.7777 30.9995 48.6783 31.0086 48.3306 31.0718C48.5474 31.0718 48.4661 31.0582 48.0822 31.0266C47.87 30.9679 47.6848 30.864 47.5267 30.7105C46.9351 30.1415 47.0525 29.3827 47.5087 28.9402C47.8338 28.624 48.3216 28.475 48.7642 28.6014C49.2293 28.7324 49.4506 29.0847 49.6177 29.5092C49.419 28.9989 49.1706 28.5789 48.6829 28.2943C48.2493 28.0414 47.6035 27.933 47.1157 28.0911C46.1538 28.4027 45.2822 29.5318 45.6977 30.5931L45.6932 30.5886Z" fill="#140D0A"/>
<path d="M22.3427 30.6427C23.0788 31.4104 24.0227 32.0517 25.1291 32.0562C26.4162 32.0608 27.6762 31.2117 28.0059 29.9382C28.3582 28.5788 27.5408 27.2149 26.1949 26.8401C24.8491 26.4652 23.4401 27.1833 23.0923 28.5381C22.8304 29.5678 23.4265 30.7917 24.5104 31.0401C25.5943 31.2885 26.7278 30.724 27.0124 29.622C26.8182 30.3807 25.8337 30.9859 25.0704 30.7511C25.4317 30.864 24.4291 30.3401 24.4743 30.3807C23.9098 29.9066 23.9143 28.7956 24.4246 28.2943L24.6595 28.1181C24.953 28.0143 25.0253 27.9827 24.8762 28.0278C24.7678 28.0549 24.7995 28.0504 24.9711 28.0188C25.1201 27.9827 25.2691 27.9827 25.4182 28.0278C25.6079 28.082 25.7524 28.1633 25.4769 28.0414C25.2782 27.9556 25.7524 28.3214 25.5085 28.0639C25.4137 27.9646 25.3098 27.8698 25.2149 27.7704C24.4788 27.0026 23.0743 26.971 22.3427 27.7704C21.611 28.5698 21.5568 29.8253 22.3427 30.6427Z" fill="#140D0A"/>
<path d="M25.799 38.1211C25.6139 44.778 33.6391 46.9819 37.4372 41.9237L34.2443 42.3347C36.5069 44.2405 39.4289 45.4915 42.3283 44.1457C45.2276 42.7999 46.0812 39.7334 44.7444 37.0011C43.5928 34.6527 40.0883 36.7121 41.2354 39.0515C41.8767 40.3657 40.1469 40.7044 39.325 40.5915C38.5031 40.4786 37.7669 39.9998 37.1211 39.4579C36.0327 38.5456 34.7591 38.7624 33.9282 39.8689C32.3927 41.9147 29.8049 40.3295 29.8636 38.1166C29.9359 35.5017 25.8713 35.5017 25.799 38.1166V38.1211Z" fill="#140D0A"/>
</svg>
