<svg width="87" height="68" viewBox="0 0 87 68" fill="none" xmlns="http://www.w3.org/2000/svg">
<path d="M53.4346 67.9355C56.3529 67.9355 58.7187 65.5697 58.7187 62.6514C58.7187 59.733 56.3529 57.3672 53.4346 57.3672C50.5162 57.3672 48.1504 59.733 48.1504 62.6514C48.1504 65.5697 50.5162 67.9355 53.4346 67.9355Z" fill="#140D0A"/>
<path d="M27.8018 67.9355C30.7201 67.9355 33.0859 65.5697 33.0859 62.6514C33.0859 59.733 30.7201 57.3672 27.8018 57.3672C24.8834 57.3672 22.5176 59.733 22.5176 62.6514C22.5176 65.5697 24.8834 67.9355 27.8018 67.9355Z" fill="#140D0A"/>
<path d="M53.4346 67.9355C56.3529 67.9355 58.7187 65.5697 58.7187 62.6514C58.7187 59.733 56.3529 57.3672 53.4346 57.3672C50.5162 57.3672 48.1504 59.733 48.1504 62.6514C48.1504 65.5697 50.5162 67.9355 53.4346 67.9355Z" fill="#140D0A"/>
<path d="M27.8018 67.9355C30.7201 67.9355 33.0859 65.5697 33.0859 62.6514C33.0859 59.733 30.7201 57.3672 27.8018 57.3672C24.8834 57.3672 22.5176 59.733 22.5176 62.6514C22.5176 65.5697 24.8834 67.9355 27.8018 67.9355Z" fill="#140D0A"/>
<path d="M60.217 62.7691C60.217 62.7691 35.6408 62.5692 24.1183 62.5692C21.1196 62.5692 12.8866 61.3651 11.887 51.3375C11.1146 43.6361 11.4918 34.131 11.6735 25.6845C11.8098 19.3507 17.1167 14.1665 23.4504 14.1665H61.6392C68.2092 14.1665 73.507 19.537 73.4161 26.107C73.3025 34.1491 73.0526 43.9769 73.0526 50.5333C73.0526 56.1355 65.8192 62.7646 60.217 62.7646V62.7691Z" fill="#F77646"/>
<path d="M31.7566 9.44186C31.2931 7.97429 30.239 5.34356 31.9701 4.36215C33.0833 3.73059 35.2188 4.20312 36.4365 4.23039C39.5488 4.30308 42.6793 4.31217 45.7917 4.33034C47.7863 4.34398 49.8309 3.93051 51.821 4.18949C54.4336 4.52572 53.2249 8.11968 52.4753 9.75083C51.3802 12.1226 54.9061 14.2035 56.0056 11.8136C57.3959 8.79668 58.5318 4.28945 55.8284 1.60874C53.3658 -0.835698 49.1721 0.245672 46.1007 0.250216C43.7425 0.250216 41.3844 0.150257 39.0263 0.163888C36.6682 0.177519 34.41 -0.163249 32.1655 0.100278C26.6769 0.745465 26.4861 6.3386 27.8128 10.5323C28.6034 13.0313 32.5517 11.9635 31.7566 9.44641V9.44186Z" fill="#140D0A"/>
<path d="M16.0718 34.7634C13.7182 31.8055 10.2152 28.8704 6.40312 28.1116C2.85913 27.4073 -0.51223 29.6837 0.0648037 33.5457C0.600945 37.126 4.15856 40.5019 6.64844 42.9054C9.68809 45.8406 13.1594 48.2987 16.9079 50.2342C19.2433 51.4383 21.3151 47.9125 18.9706 46.7039C14.2998 44.2958 10.1743 41.0835 6.77567 37.067C6.03961 36.1991 4.89462 35.0723 4.49024 33.9773C3.7769 32.0372 4.95825 31.7964 6.55759 32.4007C9.21558 33.4003 11.4465 35.4767 13.1821 37.6576C14.8178 39.7159 17.6984 36.808 16.0718 34.7679V34.7634Z" fill="#140D0A"/>
<path d="M74.848 37.3624C76.6428 37.058 80.1913 36.5627 81.8179 37.6214C82.5494 37.635 82.7902 38.0576 82.5448 38.8845C82.2359 39.2343 81.8769 39.5297 81.4726 39.7614C80.8001 40.1839 80.0504 40.4248 79.2871 40.6201C75.4477 41.5925 71.1405 41.3289 67.2057 41.5198C64.5841 41.647 64.5704 45.7362 67.2057 45.609C70.8588 45.4318 74.5799 45.4363 78.2102 44.9502C81.1363 44.5594 84.2396 43.5689 86.0207 41.0427C87.7881 38.5346 87.1202 35.5677 84.3577 34.2091C81.2136 32.6598 77.1062 32.8506 73.7667 33.4186C71.1768 33.8593 72.2763 37.7986 74.8525 37.3624H74.848Z" fill="#140D0A"/>
<path d="M52.6979 30.7694C52.9705 31.4737 53.3476 32.0507 54.0201 32.4324C54.6471 32.7868 55.4786 32.9231 56.1783 32.7186C57.6322 32.2915 58.491 30.7922 58.1502 29.32C57.8503 28.016 56.619 27.121 55.2923 27.1709C53.9656 27.2209 52.9523 28.0615 52.189 29.0747C51.8891 29.47 51.8573 30.197 51.9846 30.6513C52.1163 31.1238 52.4798 31.6418 52.9251 31.8735C53.3976 32.1234 53.9747 32.2506 54.5017 32.078C55.0288 31.9053 55.3831 31.5873 55.7239 31.1375C55.5149 31.3965 55.4831 31.451 55.624 31.2874C55.6785 31.2329 55.7376 31.1784 55.7966 31.1238C55.5331 31.3147 55.4922 31.351 55.6694 31.2329C55.733 31.192 55.8012 31.1556 55.8693 31.1193C55.5649 31.2374 55.4877 31.2738 55.6376 31.2283C55.8012 31.1829 55.7012 31.192 55.3514 31.2556C55.5695 31.2556 55.4876 31.242 55.1014 31.2102C54.8879 31.1511 54.7016 31.0466 54.5426 30.8921C53.9474 30.3196 54.0655 29.5563 54.5244 29.111C54.8515 28.793 55.3423 28.6431 55.7875 28.7703C56.2555 28.902 56.4782 29.2564 56.6463 29.6835C56.4464 29.1701 56.1965 28.7476 55.7058 28.4613C55.2696 28.2069 54.6198 28.0978 54.1291 28.2569C53.1613 28.5704 52.2844 29.7063 52.7024 30.774L52.6979 30.7694Z" fill="#140D0A"/>
<path d="M36.5037 42.0918C42.2286 43.9729 48.3215 43.2777 53.5648 40.3653C55.8684 39.0885 53.8056 35.5582 51.502 36.8349C47.1675 39.2385 42.2922 39.6928 37.5896 38.148C35.0816 37.3256 34.0093 41.274 36.5037 42.0918Z" fill="#140D0A"/>
<path d="M31.1263 31.9599C32.035 30.9331 33.1482 29.7472 34.6476 29.8562C36.147 29.9653 37.3056 31.3738 38.1916 32.4824C39.8364 34.5361 42.7124 31.6282 41.0813 29.5927C39.4502 27.5572 37.3374 25.8443 34.6749 25.767C32.0123 25.6898 29.8996 27.1846 28.2321 29.0702C26.5646 30.9558 29.377 33.9364 31.1218 31.9599H31.1263Z" fill="#140D0A"/>
<path d="M53.4346 67.9355C56.3529 67.9355 58.7187 65.5697 58.7187 62.6514C58.7187 59.733 56.3529 57.3672 53.4346 57.3672C50.5162 57.3672 48.1504 59.733 48.1504 62.6514C48.1504 65.5697 50.5162 67.9355 53.4346 67.9355Z" fill="#140D0A"/>
<path d="M27.8018 67.9355C30.7201 67.9355 33.0859 65.5697 33.0859 62.6514C33.0859 59.733 30.7201 57.3672 27.8018 57.3672C24.8834 57.3672 22.5176 59.733 22.5176 62.6514C22.5176 65.5697 24.8834 67.9355 27.8018 67.9355Z" fill="#140D0A"/>
<path d="M60.217 62.7691C60.217 62.7691 35.6408 62.5692 24.1183 62.5692C21.1196 62.5692 12.8866 61.3651 11.887 51.3375C11.1146 43.6361 11.4918 34.131 11.6735 25.6845C11.8098 19.3507 17.1167 14.1665 23.4504 14.1665H61.6392C68.2092 14.1665 73.507 19.537 73.4161 26.107C73.3025 34.1491 73.0526 43.9769 73.0526 50.5333C73.0526 56.1355 65.8192 62.7646 60.217 62.7646V62.7691Z" fill="#F77646"/>
<path d="M31.7566 9.44186C31.2931 7.97429 30.239 5.34356 31.9701 4.36215C33.0833 3.73059 35.2188 4.20312 36.4365 4.23039C39.5488 4.30308 42.6793 4.31217 45.7917 4.33034C47.7863 4.34398 49.8309 3.93051 51.821 4.18949C54.4336 4.52572 53.2249 8.11968 52.4753 9.75083C51.3802 12.1226 54.9061 14.2035 56.0056 11.8136C57.3959 8.79668 58.5318 4.28945 55.8284 1.60874C53.3658 -0.835698 49.1721 0.245672 46.1007 0.250216C43.7425 0.250216 41.3844 0.150257 39.0263 0.163888C36.6682 0.177519 34.41 -0.163249 32.1655 0.100278C26.6769 0.745465 26.4861 6.3386 27.8128 10.5323C28.6034 13.0313 32.5517 11.9635 31.7566 9.44641V9.44186Z" fill="#140D0A"/>
<path d="M16.0718 34.7634C13.7182 31.8055 10.2152 28.8704 6.40312 28.1116C2.85913 27.4073 -0.51223 29.6837 0.0648037 33.5457C0.600945 37.126 4.15856 40.5019 6.64844 42.9054C9.68809 45.8406 13.1594 48.2987 16.9079 50.2342C19.2433 51.4383 21.3151 47.9125 18.9706 46.7039C14.2998 44.2958 10.1743 41.0835 6.77567 37.067C6.03961 36.1991 4.89462 35.0723 4.49024 33.9773C3.7769 32.0372 4.95825 31.7964 6.55759 32.4007C9.21558 33.4003 11.4465 35.4767 13.1821 37.6576C14.8178 39.7159 17.6984 36.808 16.0718 34.7679V34.7634Z" fill="#140D0A"/>
<path d="M74.848 37.3624C76.6428 37.058 80.1913 36.5627 81.8179 37.6214C82.5494 37.635 82.7902 38.0576 82.5448 38.8845C82.2359 39.2343 81.8769 39.5297 81.4726 39.7614C80.8001 40.1839 80.0504 40.4248 79.2871 40.6201C75.4477 41.5925 71.1405 41.3289 67.2057 41.5198C64.5841 41.647 64.5704 45.7362 67.2057 45.609C70.8588 45.4318 74.5799 45.4363 78.2102 44.9502C81.1363 44.5594 84.2396 43.5689 86.0207 41.0427C87.7881 38.5346 87.1202 35.5677 84.3577 34.2091C81.2136 32.6598 77.1062 32.8506 73.7667 33.4186C71.1768 33.8593 72.2763 37.7986 74.8525 37.3624H74.848Z" fill="#140D0A"/>
<path d="M52.6979 30.7694C52.9705 31.4737 53.3476 32.0507 54.0201 32.4324C54.6471 32.7868 55.4786 32.9231 56.1783 32.7186C57.6322 32.2915 58.491 30.7922 58.1502 29.32C57.8503 28.016 56.619 27.121 55.2923 27.1709C53.9656 27.2209 52.9523 28.0615 52.189 29.0747C51.8891 29.47 51.8573 30.197 51.9846 30.6513C52.1163 31.1238 52.4798 31.6418 52.9251 31.8735C53.3976 32.1234 53.9747 32.2506 54.5017 32.078C55.0288 31.9053 55.3831 31.5873 55.7239 31.1375C55.5149 31.3965 55.4831 31.451 55.624 31.2874C55.6785 31.2329 55.7376 31.1784 55.7966 31.1238C55.5331 31.3147 55.4922 31.351 55.6694 31.2329C55.733 31.192 55.8012 31.1556 55.8693 31.1193C55.5649 31.2374 55.4877 31.2738 55.6376 31.2283C55.8012 31.1829 55.7012 31.192 55.3514 31.2556C55.5695 31.2556 55.4876 31.242 55.1014 31.2102C54.8879 31.1511 54.7016 31.0466 54.5426 30.8921C53.9474 30.3196 54.0655 29.5563 54.5244 29.111C54.8515 28.793 55.3423 28.6431 55.7875 28.7703C56.2555 28.902 56.4782 29.2564 56.6463 29.6835C56.4464 29.1701 56.1965 28.7476 55.7058 28.4613C55.2696 28.2069 54.6198 28.0978 54.1291 28.2569C53.1613 28.5704 52.2844 29.7063 52.7024 30.774L52.6979 30.7694Z" fill="#140D0A"/>
<path d="M36.5037 42.0918C42.2286 43.9729 48.3215 43.2777 53.5648 40.3653C55.8684 39.0885 53.8056 35.5582 51.502 36.8349C47.1675 39.2385 42.2922 39.6928 37.5896 38.148C35.0816 37.3256 34.0093 41.274 36.5037 42.0918Z" fill="#140D0A"/>
<path d="M31.1263 31.9599C32.035 30.9331 33.1482 29.7472 34.6476 29.8562C36.147 29.9653 37.3056 31.3738 38.1916 32.4824C39.8364 34.5361 42.7124 31.6282 41.0813 29.5927C39.4502 27.5572 37.3374 25.8443 34.6749 25.767C32.0123 25.6898 29.8996 27.1846 28.2321 29.0702C26.5646 30.9558 29.377 33.9364 31.1218 31.9599H31.1263Z" fill="#140D0A"/>
<path d="M53.4346 67.9355C56.3529 67.9355 58.7187 65.5697 58.7187 62.6514C58.7187 59.733 56.3529 57.3672 53.4346 57.3672C50.5162 57.3672 48.1504 59.733 48.1504 62.6514C48.1504 65.5697 50.5162 67.9355 53.4346 67.9355Z" fill="#140D0A"/>
<path d="M27.8018 67.9355C30.7201 67.9355 33.0859 65.5697 33.0859 62.6514C33.0859 59.733 30.7201 57.3672 27.8018 57.3672C24.8834 57.3672 22.5176 59.733 22.5176 62.6514C22.5176 65.5697 24.8834 67.9355 27.8018 67.9355Z" fill="#140D0A"/>
<path d="M60.217 62.7691C60.217 62.7691 35.6408 62.5692 24.1183 62.5692C21.1196 62.5692 12.8866 61.3651 11.887 51.3375C11.1146 43.6361 11.4918 34.131 11.6735 25.6845C11.8098 19.3507 17.1167 14.1665 23.4504 14.1665H61.6392C68.2092 14.1665 73.507 19.537 73.4161 26.107C73.3025 34.1491 73.0526 43.9769 73.0526 50.5333C73.0526 56.1355 65.8192 62.7646 60.217 62.7646V62.7691Z" fill="#6966FF"/>
<path d="M31.7566 9.44186C31.2931 7.97429 30.239 5.34356 31.9701 4.36215C33.0833 3.73059 35.2188 4.20312 36.4365 4.23039C39.5488 4.30308 42.6793 4.31217 45.7917 4.33034C47.7863 4.34398 49.8309 3.93051 51.821 4.18949C54.4336 4.52572 53.2249 8.11968 52.4753 9.75083C51.3802 12.1226 54.9061 14.2035 56.0056 11.8136C57.3959 8.79668 58.5318 4.28945 55.8284 1.60874C53.3658 -0.835698 49.1721 0.245672 46.1007 0.250216C43.7425 0.250216 41.3844 0.150257 39.0263 0.163888C36.6682 0.177519 34.41 -0.163249 32.1655 0.100278C26.6769 0.745465 26.4861 6.3386 27.8128 10.5323C28.6034 13.0313 32.5517 11.9635 31.7566 9.44641V9.44186Z" fill="#140D0A"/>
<path d="M16.0718 34.7634C13.7182 31.8055 10.2152 28.8704 6.40312 28.1116C2.85913 27.4073 -0.51223 29.6837 0.0648037 33.5457C0.600945 37.126 4.15856 40.5019 6.64844 42.9054C9.68809 45.8406 13.1594 48.2987 16.9079 50.2342C19.2433 51.4383 21.3151 47.9125 18.9706 46.7039C14.2998 44.2958 10.1743 41.0835 6.77567 37.067C6.03961 36.1991 4.89462 35.0723 4.49024 33.9773C3.7769 32.0372 4.95825 31.7964 6.55759 32.4007C9.21558 33.4003 11.4465 35.4767 13.1821 37.6576C14.8178 39.7159 17.6984 36.808 16.0718 34.7679V34.7634Z" fill="#140D0A"/>
<path d="M74.848 37.3624C76.6428 37.058 80.1913 36.5627 81.8179 37.6214C82.5494 37.635 82.7902 38.0576 82.5448 38.8845C82.2359 39.2343 81.8769 39.5297 81.4726 39.7614C80.8001 40.1839 80.0504 40.4248 79.2871 40.6201C75.4477 41.5925 71.1405 41.3289 67.2057 41.5198C64.5841 41.647 64.5704 45.7362 67.2057 45.609C70.8588 45.4318 74.5799 45.4363 78.2102 44.9502C81.1363 44.5594 84.2396 43.5689 86.0207 41.0427C87.7881 38.5346 87.1202 35.5677 84.3577 34.2091C81.2136 32.6598 77.1062 32.8506 73.7667 33.4186C71.1768 33.8593 72.2763 37.7986 74.8525 37.3624H74.848Z" fill="#140D0A"/>
<path d="M52.6979 30.7694C52.9705 31.4737 53.3476 32.0507 54.0201 32.4324C54.6471 32.7868 55.4786 32.9231 56.1783 32.7186C57.6322 32.2915 58.491 30.7922 58.1502 29.32C57.8503 28.016 56.619 27.121 55.2923 27.1709C53.9656 27.2209 52.9523 28.0615 52.189 29.0747C51.8891 29.47 51.8573 30.197 51.9846 30.6513C52.1163 31.1238 52.4798 31.6418 52.9251 31.8735C53.3976 32.1234 53.9747 32.2506 54.5017 32.078C55.0288 31.9053 55.3831 31.5873 55.7239 31.1375C55.5149 31.3965 55.4831 31.451 55.624 31.2874C55.6785 31.2329 55.7376 31.1784 55.7966 31.1238C55.5331 31.3147 55.4922 31.351 55.6694 31.2329C55.733 31.192 55.8012 31.1556 55.8693 31.1193C55.5649 31.2374 55.4877 31.2738 55.6376 31.2283C55.8012 31.1829 55.7012 31.192 55.3514 31.2556C55.5695 31.2556 55.4876 31.242 55.1014 31.2102C54.8879 31.1511 54.7016 31.0466 54.5426 30.8921C53.9474 30.3196 54.0655 29.5563 54.5244 29.111C54.8515 28.793 55.3423 28.6431 55.7875 28.7703C56.2555 28.902 56.4782 29.2564 56.6463 29.6835C56.4464 29.1701 56.1965 28.7476 55.7058 28.4613C55.2696 28.2069 54.6198 28.0978 54.1291 28.2569C53.1613 28.5704 52.2844 29.7063 52.7024 30.774L52.6979 30.7694Z" fill="#140D0A"/>
<path d="M36.5037 42.0918C42.2286 43.9729 48.3215 43.2777 53.5648 40.3653C55.8684 39.0885 53.8056 35.5582 51.502 36.8349C47.1675 39.2385 42.2922 39.6928 37.5896 38.148C35.0816 37.3256 34.0093 41.274 36.5037 42.0918Z" fill="#140D0A"/>
<path d="M31.1263 31.9599C32.035 30.9331 33.1482 29.7472 34.6476 29.8562C36.147 29.9653 37.3056 31.3738 38.1916 32.4824C39.8364 34.5361 42.7124 31.6282 41.0813 29.5927C39.4502 27.5572 37.3374 25.8443 34.6749 25.767C32.0123 25.6898 29.8996 27.1846 28.2321 29.0702C26.5646 30.9558 29.377 33.9364 31.1218 31.9599H31.1263Z" fill="#140D0A"/>
<path d="M31.7566 9.44186C31.2931 7.97429 30.239 5.34356 31.9701 4.36215C33.0833 3.73059 35.2188 4.20312 36.4365 4.23039C39.5488 4.30308 42.6793 4.31217 45.7917 4.33034C47.7863 4.34398 49.8309 3.93051 51.821 4.18949C54.4336 4.52572 53.2249 8.11968 52.4753 9.75083C51.3802 12.1226 54.9061 14.2035 56.0056 11.8136C57.3959 8.79668 58.5318 4.28945 55.8284 1.60874C53.3658 -0.835698 49.1721 0.245672 46.1007 0.250216C43.7425 0.250216 41.3844 0.150257 39.0263 0.163888C36.6682 0.177519 34.41 -0.163249 32.1655 0.100278C26.6769 0.745465 26.4861 6.3386 27.8128 10.5323C28.6034 13.0313 32.5517 11.9635 31.7566 9.44641V9.44186Z" fill="#140D0A"/>
<path d="M16.0718 34.7634C13.7182 31.8055 10.2152 28.8704 6.40312 28.1116C2.85913 27.4073 -0.51223 29.6837 0.0648037 33.5457C0.600945 37.126 4.15856 40.5019 6.64844 42.9054C9.68809 45.8406 13.1594 48.2987 16.9079 50.2342C19.2433 51.4383 21.3151 47.9125 18.9706 46.7039C14.2998 44.2958 10.1743 41.0835 6.77567 37.067C6.03961 36.1991 4.89462 35.0723 4.49024 33.9773C3.7769 32.0372 4.95825 31.7964 6.55759 32.4007C9.21558 33.4003 11.4465 35.4767 13.1821 37.6576C14.8178 39.7159 17.6984 36.808 16.0718 34.7679V34.7634Z" fill="#140D0A"/>
<path d="M74.848 37.3624C76.6428 37.058 80.1913 36.5627 81.8179 37.6214C82.5494 37.635 82.7902 38.0576 82.5448 38.8845C82.2359 39.2343 81.8769 39.5297 81.4726 39.7614C80.8001 40.1839 80.0504 40.4248 79.2871 40.6201C75.4477 41.5925 71.1405 41.3289 67.2057 41.5198C64.5841 41.647 64.5704 45.7362 67.2057 45.609C70.8588 45.4318 74.5799 45.4363 78.2102 44.9502C81.1363 44.5594 84.2396 43.5689 86.0207 41.0427C87.7881 38.5346 87.1202 35.5677 84.3577 34.2091C81.2136 32.6598 77.1062 32.8506 73.7667 33.4186C71.1768 33.8593 72.2763 37.7986 74.8525 37.3624H74.848Z" fill="#140D0A"/>
<path d="M52.6979 30.7694C52.9705 31.4737 53.3476 32.0507 54.0201 32.4324C54.6471 32.7868 55.4786 32.9231 56.1783 32.7186C57.6322 32.2915 58.491 30.7922 58.1502 29.32C57.8503 28.016 56.619 27.121 55.2923 27.1709C53.9656 27.2209 52.9523 28.0615 52.189 29.0747C51.8891 29.47 51.8573 30.197 51.9846 30.6513C52.1163 31.1238 52.4798 31.6418 52.9251 31.8735C53.3976 32.1234 53.9747 32.2506 54.5017 32.078C55.0288 31.9053 55.3831 31.5873 55.7239 31.1375C55.5149 31.3965 55.4831 31.451 55.624 31.2874C55.6785 31.2329 55.7376 31.1784 55.7966 31.1238C55.5331 31.3147 55.4922 31.351 55.6694 31.2329C55.733 31.192 55.8012 31.1556 55.8693 31.1193C55.5649 31.2374 55.4877 31.2738 55.6376 31.2283C55.8012 31.1829 55.7012 31.192 55.3514 31.2556C55.5695 31.2556 55.4876 31.242 55.1014 31.2102C54.8879 31.1511 54.7016 31.0466 54.5426 30.8921C53.9474 30.3196 54.0655 29.5563 54.5244 29.111C54.8515 28.793 55.3423 28.6431 55.7875 28.7703C56.2555 28.902 56.4782 29.2564 56.6463 29.6835C56.4464 29.1701 56.1965 28.7476 55.7058 28.4613C55.2696 28.2069 54.6198 28.0978 54.1291 28.2569C53.1613 28.5704 52.2844 29.7063 52.7024 30.774L52.6979 30.7694Z" fill="#140D0A"/>
<path d="M36.5037 42.0918C42.2286 43.9729 48.3215 43.2777 53.5648 40.3653C55.8684 39.0885 53.8056 35.5582 51.502 36.8349C47.1675 39.2385 42.2922 39.6928 37.5896 38.148C35.0816 37.3256 34.0093 41.274 36.5037 42.0918Z" fill="#140D0A"/>
<path d="M31.1263 31.9599C32.035 30.9331 33.1482 29.7472 34.6476 29.8562C36.147 29.9653 37.3056 31.3738 38.1916 32.4824C39.8364 34.5361 42.7124 31.6282 41.0813 29.5927C39.4502 27.5572 37.3374 25.8443 34.6749 25.767C32.0123 25.6898 29.8996 27.1846 28.2321 29.0702C26.5646 30.9558 29.377 33.9364 31.1218 31.9599H31.1263Z" fill="#140D0A"/>
</svg>
