<svg width="82" height="67" viewBox="0 0 82 67" fill="none" xmlns="http://www.w3.org/2000/svg">
<path d="M52.1339 66.2851C54.9811 66.2851 57.2893 63.977 57.2893 61.1297C57.2893 58.2825 54.9811 55.9744 52.1339 55.9744C49.2867 55.9744 46.9785 58.2825 46.9785 61.1297C46.9785 63.977 49.2867 66.2851 52.1339 66.2851Z" fill="#140D0A"/>
<path d="M27.1271 66.2851C29.9743 66.2851 32.2824 63.977 32.2824 61.1297C32.2824 58.2825 29.9743 55.9744 27.1271 55.9744C24.2798 55.9744 21.9717 58.2825 21.9717 61.1297C21.9717 63.977 24.2798 66.2851 27.1271 66.2851Z" fill="#140D0A"/>
<path d="M58.7522 61.2446C58.7522 61.2446 34.7751 61.0496 23.5334 61.0496C20.6078 61.0496 12.5755 59.8749 11.6003 50.0916C10.8467 42.578 11.2146 33.3045 11.3919 25.0639C11.5249 18.8845 16.7024 13.8267 22.8818 13.8267H60.1397C66.5496 13.8267 71.7183 19.0663 71.6296 25.4761C71.5188 33.3222 71.275 42.9104 71.275 49.307C71.275 54.7727 64.2179 61.2402 58.7522 61.2402V61.2446Z" fill="#F7CE46"/>
<path d="M30.9788 9.21173C30.5266 7.77992 29.4982 5.21332 31.1871 4.25583C32.2732 3.63966 34.3566 4.10068 35.5446 4.12727C38.581 4.1982 41.6353 4.20706 44.6718 4.2248C46.6178 4.23809 48.6125 3.83471 50.5541 4.08738C53.103 4.41541 51.9239 7.92177 51.1924 9.51316C50.1241 11.8271 53.564 13.8573 54.6367 11.5257C55.9932 8.58226 57.1014 4.1849 54.4639 1.56953C52.0613 -0.815329 47.9698 0.239684 44.9732 0.244117C42.6726 0.244117 40.3719 0.146595 38.0713 0.159893C35.7706 0.173192 33.5675 -0.15927 31.3777 0.0978339C26.0229 0.727295 25.8367 6.18411 27.1311 10.2756C27.9024 12.7137 31.7545 11.6719 30.9788 9.21616V9.21173Z" fill="#140D0A"/>
<path d="M15.681 33.9204C13.3848 31.0346 9.96713 28.171 6.24799 27.4307C2.79038 26.7437 -0.498768 28.9645 0.0642014 32.7324C0.587275 36.2255 4.05817 39.5191 6.48736 41.864C9.45292 44.7276 12.8396 47.1258 16.4967 49.0142C18.7752 50.1889 20.7965 46.749 18.5092 45.5699C13.9522 43.2205 9.92724 40.0865 6.61148 36.1678C5.89336 35.3212 4.77629 34.2218 4.38177 33.1535C3.68582 31.2607 4.83835 31.0258 6.3987 31.6153C8.99191 32.5906 11.1684 34.6164 12.8618 36.7441C14.4576 38.7522 17.268 35.9152 15.681 33.9248V33.9204Z" fill="#140D0A"/>
<path d="M71.1724 38.455C72.3604 36.7706 73.8365 35.2767 75.5831 34.1685C76.4563 33.6144 77.1257 33.016 77.5468 34.1729C77.8349 34.9664 77.1833 36.3184 76.8464 37.0055C75.06 40.6138 71.4561 43.6281 68.7831 46.576C67.0632 48.4732 69.8736 51.3058 71.6024 49.3953C74.1557 46.5804 76.975 43.8542 79.1914 40.7601C80.8404 38.4595 82.1259 35.423 81.2881 32.5594C78.9919 24.6911 70.011 33.2021 67.7281 36.4381C66.2431 38.5393 69.7007 40.534 71.1724 38.4506V38.455Z" fill="#140D0A"/>
<path d="M51.4141 30.0247C51.6801 30.7118 52.048 31.2748 52.7041 31.6471C53.3158 31.9929 54.127 32.1259 54.8097 31.9264C56.2282 31.5097 57.066 30.0469 56.7335 28.6106C56.4409 27.3384 55.2397 26.4651 53.9453 26.5139C52.6509 26.5627 51.6624 27.3827 50.9176 28.3713C50.6251 28.7569 50.5941 29.4662 50.7182 29.9095C50.8467 30.3705 51.2013 30.8758 51.6358 31.1019C52.0968 31.3457 52.6598 31.4698 53.174 31.3014C53.6882 31.1329 54.0339 30.8226 54.3664 30.3838C54.1625 30.6364 54.1314 30.6896 54.2689 30.53C54.3221 30.4769 54.3797 30.4237 54.4373 30.3705C54.1802 30.5566 54.1403 30.5921 54.3132 30.4769C54.3753 30.437 54.4418 30.4015 54.5083 30.366C54.2113 30.4813 54.1359 30.5167 54.2822 30.4724C54.4418 30.4281 54.3442 30.437 54.0029 30.499C54.2157 30.499 54.1359 30.4857 53.7591 30.4547C53.5508 30.3971 53.369 30.2951 53.2138 30.1444C52.6331 29.5859 52.7484 28.8411 53.1961 28.4067C53.5153 28.0964 53.994 27.9501 54.4285 28.0743C54.885 28.2028 55.1022 28.5486 55.2662 28.9653C55.0712 28.4644 54.8274 28.0521 54.3487 27.7728C53.9231 27.5246 53.2892 27.4182 52.8105 27.5734C51.8663 27.8792 51.0107 28.9874 51.4186 30.0291L51.4141 30.0247Z" fill="#140D0A"/>
<path d="M28.4991 30.0775C29.2217 30.8311 30.1482 31.4606 31.2342 31.465C32.4976 31.4694 33.7343 30.6361 34.0579 29.386C34.4037 28.0517 33.6013 26.713 32.2803 26.3451C30.9594 25.9772 29.5763 26.682 29.235 28.0118C28.9779 29.0225 29.563 30.2238 30.6269 30.4676C31.6908 30.7114 32.8034 30.1573 33.0827 29.0757C32.8921 29.8204 31.9257 30.4144 31.1766 30.1839C31.5312 30.2947 30.5471 29.7805 30.5914 29.8204C30.0373 29.355 30.0418 28.2645 30.5427 27.7724L30.7732 27.5996C31.0613 27.4976 31.1323 27.4666 30.986 27.5109C30.8796 27.5375 30.9106 27.5331 31.0791 27.502C31.2253 27.4666 31.3716 27.4666 31.5179 27.5109C31.7041 27.5641 31.8459 27.6439 31.5755 27.5242C31.3805 27.44 31.8459 27.799 31.6065 27.5464C31.5135 27.4489 31.4115 27.3558 31.3184 27.2582C30.5959 26.5047 29.2173 26.4736 28.4991 27.2582C27.781 28.0428 27.7278 29.2752 28.4991 30.0775Z" fill="#140D0A"/>
<path d="M33.5193 38.8095C38.422 43.1359 45.3018 42.7104 49.8321 38.047C51.623 36.203 48.8037 33.3793 47.0128 35.2277C44.0694 38.2554 39.6277 38.8893 36.343 35.9902C34.4236 34.2969 31.591 37.1073 33.5237 38.8095H33.5193Z" fill="#140D0A"/>
</svg>
