<svg width="24" height="24" viewBox="0 0 24 24" fill="none" xmlns="http://www.w3.org/2000/svg">
<path d="M8.81493 9.84178C11.6692 9.84178 13.2721 8.2372 13.2721 5.38463C13.2721 2.53035 11.6692 0.92749 8.81493 0.92749C5.96236 0.92749 4.35779 2.53035 4.35779 5.38463C4.35779 8.2372 5.96236 9.84178 8.81493 9.84178Z" stroke="black" stroke-width="2" stroke-linecap="round" stroke-linejoin="round"/>
<path d="M7.3646 19.5001H3.89145C1.27203 19.5001 -0.200546 16.699 1.98003 15.247C3.73442 14.0771 5.76075 13.3792 7.86345 13.2207" stroke="black" stroke-width="2" stroke-linecap="round" stroke-linejoin="round"/>
<path d="M15.8349 23.0092C15.0515 22.9286 14.4858 22.2498 14.4635 21.4612C14.4429 20.8578 14.4292 20.2612 14.4172 19.6663C13.8172 19.6543 13.2121 19.6406 12.6001 19.6201C11.8132 19.5961 11.1344 19.0321 11.0538 18.2486C10.9681 17.4309 10.9681 16.6372 11.0538 15.8195C11.1344 15.0361 11.8132 14.4721 12.6018 14.4481C13.2121 14.4275 13.8155 14.4138 14.4172 14.4018C14.4275 13.8069 14.4429 13.2086 14.4618 12.6052C14.4858 11.8166 15.0515 11.1378 15.8332 11.0572C16.6526 10.9715 17.4446 10.9715 18.2624 11.0572C19.0475 11.1378 19.6115 11.8166 19.6355 12.6052C19.6544 13.2086 19.6698 13.8069 19.6818 14.4018C20.2698 14.4138 20.8646 14.4275 21.4629 14.4463C22.2498 14.4721 22.9286 15.0361 23.0109 15.8178C23.0966 16.6372 23.0966 17.4292 23.0109 18.2486C22.9286 19.0321 22.2498 19.5961 21.4629 19.6201C20.8629 19.6389 20.2698 19.6543 19.6801 19.6663C19.6698 20.2595 19.6544 20.8578 19.6355 21.4612C19.6115 22.2498 19.0475 22.9286 18.2641 23.0092C17.4464 23.0949 16.6526 23.0949 15.8349 23.0092Z" stroke="black" stroke-width="2" stroke-linecap="round" stroke-linejoin="round"/>
</svg>
