<svg width="24" height="24" viewBox="0 0 24 24" fill="none" xmlns="http://www.w3.org/2000/svg">
<path d="M13.3276 6.99991C15.4619 8.06791 17.5996 10.2056 18.6694 12.3433C17.5996 14.481 15.4636 16.6188 13.3242 17.6885" stroke="black" stroke-width="2" stroke-linecap="round" stroke-linejoin="round"/>
<path d="M5 12.3452L18.6114 12.3452" stroke="black" stroke-width="2" stroke-linecap="round" stroke-linejoin="round"/>
<path d="M13.3276 6.99991C15.4619 8.06791 17.5996 10.2056 18.6694 12.3433C17.5996 14.481 15.4636 16.6188 13.3242 17.6885" stroke="black" stroke-width="2" stroke-linecap="round" stroke-linejoin="round"/>
<path d="M5 12.3452L18.6114 12.3452" stroke="black" stroke-width="2" stroke-linecap="round" stroke-linejoin="round"/>
<path d="M13.3276 6.99991C15.4619 8.06791 17.5996 10.2056 18.6694 12.3433C17.5996 14.481 15.4636 16.6188 13.3242 17.6885" stroke="black" stroke-width="2" stroke-linecap="round" stroke-linejoin="round"/>
<path d="M5 12.3452L18.6114 12.3452" stroke="black" stroke-width="2" stroke-linecap="round" stroke-linejoin="round"/>
<path d="M13.3276 6.99991C15.4619 8.06791 17.5996 10.2056 18.6694 12.3433C17.5996 14.481 15.4636 16.6188 13.3242 17.6885" stroke="black" stroke-width="2" stroke-linecap="round" stroke-linejoin="round"/>
<path d="M5 12.3452L18.6114 12.3452" stroke="black" stroke-width="2" stroke-linecap="round" stroke-linejoin="round"/>
</svg>
