<svg width="143" height="154" viewBox="0 0 143 154" fill="none" xmlns="http://www.w3.org/2000/svg">
<path d="M37.9646 129.336C37.9646 129.336 18.8915 83.6184 9.77078 62.2649C7.39777 56.7084 3.11636 40.4948 20.897 30.7007C34.5564 23.1773 52.4661 16.3497 68.264 10.0031C80.1058 5.24504 93.9097 10.9745 98.926 22.7232L129.144 93.5142C134.337 105.688 128.579 119.763 116.342 124.794C101.354 130.942 82.9515 138.255 70.7942 143.454C60.4117 147.882 42.4023 139.72 37.9761 129.342L37.9646 129.336Z" fill="#54B864"/>
<path d="M44.4235 114C44.4235 114 39.5079 64.7072 37.009 41.6222C36.359 35.6152 36.9907 18.8578 56.8543 14.6731C72.1137 11.4589 91.2359 10.1495 108.198 8.68436C120.912 7.58552 132.446 17.0905 133.819 29.7914L142.085 106.317C143.504 119.475 133.892 131.261 120.72 132.506C104.591 134.017 84.8557 135.647 71.7109 137.075C60.4884 138.284 45.641 125.226 44.4327 114.009L44.4235 114Z" fill="#98FB82"/>
<path d="M96.3517 67.3374L85.0896 78.5964" stroke="black" stroke-width="4.0132" stroke-linecap="round" stroke-linejoin="round"/>
<path d="M94.4631 86.1318C87.3299 92.416 80.7151 95.5112 74.4459 89.239C68.2282 83.0245 71.2173 76.4704 77.3926 69.407" stroke="black" stroke-width="4.0132" stroke-linecap="round" stroke-linejoin="round"/>
<path d="M86.9785 59.8003C94.1087 53.516 100.723 50.4209 106.996 56.693C113.21 62.9076 110.221 69.4617 104.046 76.5251" stroke="black" stroke-width="4.0132" stroke-linecap="round" stroke-linejoin="round"/>
</svg>
