<svg width="147" height="159" viewBox="0 0 147 159" fill="none" xmlns="http://www.w3.org/2000/svg">
<path d="M46.667 134.455C46.667 134.455 23.5656 90.6347 12.5641 70.1866C9.70173 64.8656 3.98166 49.102 20.811 37.7507C33.7396 29.0312 50.9638 20.6229 66.1279 12.8832C77.4947 7.08101 91.7573 11.5477 97.8083 22.7985L134.261 90.59C140.527 102.248 136.056 116.783 124.32 122.893C109.945 130.362 92.2731 139.298 80.6318 145.568C70.6888 150.91 52.0192 144.398 46.679 134.46L46.667 134.455Z" fill="#F77646"/>
<path d="M48.2865 115.911C48.2865 115.911 43.371 66.6183 40.872 43.5334C40.2221 37.5264 40.8537 20.769 60.7174 16.5842C75.9767 13.3701 95.0989 12.0606 112.061 10.5955C124.775 9.49665 136.309 19.0017 137.682 31.7025L145.948 108.228C147.367 121.387 137.756 133.172 124.583 134.417C108.454 135.928 88.7187 137.558 75.5739 138.986C64.3514 140.195 49.504 127.137 48.2957 115.92L48.2865 115.911Z" fill="#F7CE46"/>
<path d="M96.3969 63.5427C103.578 56.3616 108.707 53.2839 111.785 56.3616C114.863 59.4392 111.785 64.5686 104.604 71.7498C107.682 76.8792 111.785 89.1898 108.707 92.2673C104.604 96.371 94.3451 79.9568 94.3451 79.9568L91.2675 83.0344C91.6094 86.1122 91.4727 92.6778 88.1899 94.319C84.907 95.9606 82.7185 89.5316 82.0346 86.1122C78.615 85.4282 72.1861 83.2396 73.8275 79.9568C75.469 76.674 82.0346 76.5372 85.1122 76.8792L88.1899 73.8015C88.1899 73.8015 71.7758 63.5427 75.8793 59.4392C78.957 56.3616 91.2675 60.4651 96.3969 63.5427Z" stroke="black" stroke-width="4.0132" stroke-linecap="round" stroke-linejoin="round"/>
</svg>
