<svg width="23" height="24" viewBox="0 0 23 24" fill="none" xmlns="http://www.w3.org/2000/svg">
<path d="M6.14282 10.0845H6.99997" stroke="black" stroke-width="2" stroke-linecap="round" stroke-linejoin="round"/>
<path d="M6.14282 15.2273H6.99997" stroke="black" stroke-width="2" stroke-linecap="round" stroke-linejoin="round"/>
<path d="M10.8572 10.0845H11.7143" stroke="black" stroke-width="2" stroke-linecap="round" stroke-linejoin="round"/>
<path d="M15.5715 10.0845H16.4287" stroke="black" stroke-width="2" stroke-linecap="round" stroke-linejoin="round"/>
<path d="M10.8572 15.2273H11.7143" stroke="black" stroke-width="2" stroke-linecap="round" stroke-linejoin="round"/>
<path d="M1.33907 17.7574C1.61565 20.2249 3.62125 22.184 6.10135 22.3035C7.81555 22.3861 9.56666 22.429 11.4672 22.429C13.3677 22.429 15.1188 22.3861 16.833 22.3035C19.3132 22.184 21.3187 20.2249 21.5953 17.7574C21.7816 16.0957 21.9343 14.3921 21.9343 12.6566C21.9343 10.9212 21.7816 9.21755 21.5953 7.55588C21.3187 5.08835 19.3132 3.1292 16.833 3.00975C15.1188 2.92719 13.3677 2.88428 11.4672 2.88428C9.56666 2.88428 7.81555 2.92719 6.10135 3.00975C3.62126 3.1292 1.61565 5.08835 1.33907 7.55588C1.15281 9.21755 1 10.9212 1 12.6566C1 14.3921 1.15281 16.0957 1.33907 17.7574Z" stroke="black" stroke-width="2" stroke-linecap="round" stroke-linejoin="round"/>
<path d="M6.57739 1V5.28571" stroke="black" stroke-width="2" stroke-linecap="round" stroke-linejoin="round"/>
<path d="M16 1V5.28571" stroke="black" stroke-width="2" stroke-linecap="round" stroke-linejoin="round"/>
</svg>
