<svg width="24" height="24" viewBox="0 0 24 24" fill="none" xmlns="http://www.w3.org/2000/svg">
<g clip-path="url(#clip0_1_1511)">
<path d="M1.64548 17.6031C1.90971 20.0728 3.89605 22.0592 6.36455 22.3343C8.19807 22.5387 10.0806 22.7142 12 22.7142C13.9194 22.7142 15.8019 22.5387 17.6354 22.3343C20.1039 22.0592 22.0903 20.0728 22.3544 17.6031C22.5495 15.78 22.7143 13.9082 22.7143 11.9999C22.7143 10.0917 22.5495 8.2199 22.3544 6.39674C22.0903 3.92705 20.1039 1.94069 17.6354 1.66555C15.8019 1.46117 13.9194 1.28564 12 1.28564C10.0806 1.28564 8.19807 1.46117 6.36455 1.66555C3.89605 1.94069 1.90971 3.92705 1.64548 6.39674C1.45042 8.2199 1.28571 10.0917 1.28571 11.9999C1.28571 13.9082 1.45042 15.78 1.64548 17.6031Z" stroke="black" stroke-width="2" stroke-linecap="round" stroke-linejoin="round"/>
<path d="M7.71429 13.0713L10.8312 16.2855C12.2979 12.0724 13.5193 10.2236 16.2857 7.71411" stroke="black" stroke-width="2" stroke-linecap="round" stroke-linejoin="round"/>
</g>
<defs>
<clipPath id="clip0_1_1511">
<rect width="24" height="24" fill="white"/>
</clipPath>
</defs>
</svg>
