<svg width="24" height="24" viewBox="0 0 24 24" fill="none" xmlns="http://www.w3.org/2000/svg">
<path d="M16.3506 22.4448C15.9092 22.4685 15.4645 22.4822 15.017 22.4822C14.5694 22.4822 14.1248 22.4685 13.6833 22.4448" stroke="black" stroke-width="2" stroke-linecap="round" stroke-linejoin="round"/>
<path d="M21.6667 20.467C21.3389 21.0004 20.8792 21.4459 20.3347 21.7572" stroke="black" stroke-width="2" stroke-linecap="round" stroke-linejoin="round"/>
<path d="M21.6667 9.65361C21.3389 9.12035 20.8792 8.67482 20.3347 8.36353" stroke="black" stroke-width="2" stroke-linecap="round" stroke-linejoin="round"/>
<path d="M22.4011 16.3943C22.4248 15.9529 22.4385 15.5082 22.4385 15.0607C22.4385 14.6131 22.4248 14.1685 22.4011 13.7271" stroke="black" stroke-width="2" stroke-linecap="round" stroke-linejoin="round"/>
<path d="M16.3506 7.67539C16.1581 7.66505 16.0114 7.68143 15.8176 7.67519" stroke="black" stroke-width="2" stroke-linecap="round" stroke-linejoin="round"/>
<path d="M7.63294 16.394C7.62246 16.1987 7.63918 16.009 7.63292 15.8125" stroke="black" stroke-width="2" stroke-linecap="round" stroke-linejoin="round"/>
<path d="M8.41968 20.467C8.74757 21.0004 9.20724 21.4459 9.75175 21.7572" stroke="black" stroke-width="2" stroke-linecap="round" stroke-linejoin="round"/>
<path d="M1.24895 12.2909C1.43178 13.9998 2.80624 15.3743 4.51432 15.5647C5.78303 15.7061 7.08566 15.8276 8.41379 15.8276C9.7419 15.8276 11.0445 15.7061 12.3132 15.5647C14.0213 15.3743 15.3958 13.9998 15.5786 12.2909C15.7136 11.0294 15.8276 9.73421 15.8276 8.41378C15.8276 7.09335 15.7136 5.79817 15.5786 4.53663C15.3958 2.82773 14.0213 1.45326 12.3132 1.26287C11.0445 1.12146 9.7419 1 8.41379 1C7.08566 1 5.78303 1.12146 4.51432 1.26287C2.80624 1.45326 1.43178 2.82773 1.24895 4.53663C1.11398 5.79817 1 7.09335 1 8.41378C1 9.73421 1.11398 11.0294 1.24895 12.2909Z" stroke="black" stroke-width="2" stroke-linecap="round" stroke-linejoin="round"/>
</svg>
