<svg width="16" height="16" viewBox="0 0 16 16" fill="none" xmlns="http://www.w3.org/2000/svg">
<g clip-path="url(#clip0_1126_1367)">
<path d="M7.95117 12.3315L7.95117 7.69369" stroke="black" stroke-width="2" stroke-linecap="round" stroke-linejoin="round"/>
<path d="M5.75484 10.1898C6.50676 11.0722 6.97156 11.5611 7.8189 12.277C7.90242 12.3475 8.02438 12.35 8.11042 12.2825C8.95017 11.6239 9.42427 11.1317 10.1953 10.1898" stroke="black" stroke-width="2" stroke-linecap="round" stroke-linejoin="round"/>
<path d="M2.28516 6.74219L2.73252 13.0053C2.80581 14.0313 3.5544 14.8926 4.574 15.0288C6.86057 15.3344 9.13831 15.3344 11.4249 15.0288C12.4445 14.8926 13.193 14.0313 13.2664 13.0053L13.7137 6.74219" stroke="black" stroke-width="2" stroke-linecap="round" stroke-linejoin="round"/>
<path d="M0.857422 3.97168H15.1431" stroke="black" stroke-width="2" stroke-linecap="round" stroke-linejoin="round"/>
<path d="M5.14258 3.88504L5.6996 2.35326C6.05131 1.38605 6.97053 0.742188 7.99972 0.742188C9.02891 0.742188 9.94813 1.38605 10.2998 2.35326L10.8569 3.88504" stroke="black" stroke-width="2" stroke-linecap="round" stroke-linejoin="round"/>
</g>
<defs>
<clipPath id="clip0_1126_1367">
<rect width="16" height="16" fill="white"/>
</clipPath>
</defs>
</svg>
