<svg width="24" height="24" viewBox="0 0 24 24" fill="none" xmlns="http://www.w3.org/2000/svg">
<g clip-path="url(#clip0_82_59)">
<path d="M9.23985 4.13147C7.74842 4.20004 6.28785 4.36118 4.86327 4.52576C4.06033 4.62045 3.31286 4.98343 2.74194 5.55591C2.17101 6.12839 1.81007 6.87684 1.71756 7.68004C1.51185 9.52804 1.31299 11.4395 1.31299 13.3938C1.31299 15.3498 1.51185 17.2612 1.71756 19.1109C1.9027 20.7566 3.21756 22.0715 4.86327 22.2618C6.72156 22.476 8.64156 22.6903 10.6061 22.6903C12.5724 22.6903 14.4924 22.476 16.3507 22.2618C17.1528 22.1669 17.8995 21.8042 18.47 21.2324C19.0405 20.6607 19.4016 19.9132 19.4947 19.1109C19.6575 17.7549 19.7787 16.3943 19.8581 15.0309" stroke="black" stroke-width="2" stroke-linecap="round" stroke-linejoin="round"/>
<path d="M17.3276 2.23376L11.0105 9.39947L10.1465 13.4709C10.0059 14.1258 10.6899 14.7463 11.3293 14.544L15.3785 13.272L21.9031 6.40633C22.9882 5.26633 22.7979 3.35833 21.4865 2.19776C20.2059 1.06633 18.3442 1.08176 17.3276 2.23376Z" stroke="black" stroke-width="2" stroke-linecap="round" stroke-linejoin="round"/>
</g>
<defs>
<clipPath id="clip0_82_59">
<rect width="24" height="24" fill="white"/>
</clipPath>
</defs>
</svg>
