<svg width="24" height="24" viewBox="0 0 24 24" fill="none" xmlns="http://www.w3.org/2000/svg">
<path d="M1.76913 18.0635C1.87169 18.8633 2.24078 19.6052 2.81683 20.1694C3.39287 20.7336 4.14225 21.0873 4.94399 21.1732C7.22228 21.4132 9.58113 21.6635 12 21.6635C14.4171 21.6635 16.7777 21.4115 19.056 21.1732C19.858 21.0879 20.6077 20.7344 21.1838 20.1701C21.76 19.6058 22.1289 18.8635 22.2308 18.0635C22.4743 16.1024 22.7143 14.0761 22.7143 12.0001C22.7143 9.92581 22.4743 7.89781 22.2308 5.93666C22.1286 5.13657 21.7597 4.39429 21.1836 3.82972C20.6076 3.26515 19.858 2.91127 19.056 2.82524C16.7777 2.58866 14.4171 2.33838 12 2.33838C9.58285 2.33838 7.22228 2.59038 4.94399 2.82866C4.14203 2.91403 3.39233 3.26747 2.81617 3.83181C2.24001 4.39614 1.87111 5.13836 1.76913 5.93838C1.52571 7.89781 1.28571 9.92581 1.28571 12.0001C1.28571 14.0744 1.52571 16.1024 1.76913 18.0635Z" stroke="black" stroke-width="2" stroke-linecap="round" stroke-linejoin="round"/>
<path d="M1.81714 5.49268L9.87771 11.8492C10.4824 12.3259 11.23 12.585 12 12.585C12.77 12.585 13.5175 12.3259 14.1223 11.8492L22.1829 5.49268" stroke="black" stroke-width="2" stroke-linecap="round" stroke-linejoin="round"/>
</svg>
