<svg width="24" height="24" viewBox="0 0 24 24" fill="none" xmlns="http://www.w3.org/2000/svg">
<path d="M17.2825 1.04565V23.1291" stroke="black" stroke-width="2" stroke-linecap="round" stroke-linejoin="round"/>
<path d="M21.568 1.01831L22.0102 6.49202C22.063 7.14503 21.98 7.80189 21.7664 8.42121C21.5527 9.04052 21.2131 9.60887 20.7689 10.0904C20.3247 10.572 19.7856 10.9563 19.1855 11.2192C18.5854 11.482 17.9374 11.6177 17.2822 11.6177C16.6271 11.6177 15.9791 11.482 15.379 11.2192C14.7789 10.9563 14.2398 10.572 13.7956 10.0904C13.3514 9.60887 13.0118 9.04052 12.7981 8.42121C12.5845 7.80189 12.5014 7.14503 12.5542 6.49202L12.9965 1.01831" stroke="black" stroke-width="2" stroke-linecap="round" stroke-linejoin="round"/>
<path d="M7.9104 0.857178V23.1429" stroke="black" stroke-width="2" stroke-linecap="round" stroke-linejoin="round"/>
<path d="M7.89492 0.872559L7.91206 15.9703C5.17092 16.2908 3.67949 16.1417 1.10978 15.0171C0.453206 8.57142 2.74521 4.08513 7.89492 0.872559Z" stroke="black" stroke-width="2" stroke-linecap="round" stroke-linejoin="round"/>
</svg>
