<svg width="27" height="28" viewBox="0 0 27 28" fill="none" xmlns="http://www.w3.org/2000/svg">
<path fill-rule="evenodd" clip-rule="evenodd" d="M5.60795 13.6892C5.60795 12.8 5.75563 11.9476 6.0192 11.148L1.40573 7.625C0.506585 9.4506 0 11.5077 0 13.6892C0 15.8688 0.505962 17.9246 1.40386 19.749L6.01484 16.2191C5.75376 15.4233 5.60795 14.574 5.60795 13.6892Z" fill="#FBBC05"/>
<path fill-rule="evenodd" clip-rule="evenodd" d="M13.7091 5.6C15.6407 5.6 17.3854 6.28444 18.7563 7.40444L22.7441 3.42222C20.314 1.30667 17.1985 0 13.7091 0C8.29181 0 3.63597 3.09804 1.40649 7.62471L6.01997 11.1477C7.08299 7.92089 10.1132 5.6 13.7091 5.6Z" fill="#EB4335"/>
<path fill-rule="evenodd" clip-rule="evenodd" d="M13.7091 21.778C10.1132 21.778 7.08299 19.4571 6.01997 16.2302L1.40649 19.7526C3.63597 24.2799 8.29181 27.378 13.7091 27.378C17.0527 27.378 20.2449 26.1908 22.6407 23.9663L18.2615 20.5808C17.0259 21.3592 15.47 21.778 13.7091 21.778Z" fill="#34A853"/>
<path fill-rule="evenodd" clip-rule="evenodd" d="M26.793 13.6891C26.793 12.8802 26.6684 12.0091 26.4814 11.2002H13.7078V16.4891H21.0604C20.6928 18.2923 19.6921 19.6786 18.2602 20.5808L22.6394 23.9663C25.1561 21.6305 26.793 18.151 26.793 13.6891Z" fill="#4285F4"/>
</svg>
