<svg width="24" height="24" viewBox="0 0 24 24" fill="none" xmlns="http://www.w3.org/2000/svg">
<path d="M11 12L6 15L6.5 22.5L17.5 23L18.5 18L17 14L11 12Z" fill="#140D0A"/>
<path d="M16.9916 13.6898C15.6677 12.6078 13.872 12 11.9996 12C10.1272 12 8.33157 12.6078 7.00761 13.6898C3.76214 16.342 5.49425 19.5814 6.45266 22.7143H17.5466C18.5049 19.5814 20.237 16.342 16.9916 13.6898Z" stroke="black" stroke-width="2" stroke-linecap="round" stroke-linejoin="round"/>
<path d="M16.9916 10.3102C15.6677 11.3921 13.872 11.9999 11.9996 11.9999C10.1272 11.9999 8.33157 11.3921 7.00761 10.3102C3.76214 7.65797 5.49425 4.41847 6.45266 1.28564H17.5466C18.5049 4.41847 20.237 7.65797 16.9916 10.3102Z" stroke="black" stroke-width="2" stroke-linecap="round" stroke-linejoin="round"/>
<path d="M2.93408 1.28564H21.0659" stroke="black" stroke-width="2" stroke-linecap="round" stroke-linejoin="round"/>
<path d="M2.93408 22.7141H21.0659" stroke="black" stroke-width="2" stroke-linecap="round" stroke-linejoin="round"/>
</svg>
