<svg width="21" height="24" viewBox="0 0 21 24" fill="none" xmlns="http://www.w3.org/2000/svg">
<path d="M15.0577 13.4041C13.7337 12.3222 11.938 11.7144 10.0657 11.7144C8.19329 11.7144 6.39761 12.3222 5.07365 13.4041C1.82818 16.0563 3.56029 19.2958 4.5187 22.4286H15.6127C16.571 19.2958 18.3031 16.0563 15.0577 13.4041Z" stroke="black" stroke-width="2" stroke-linecap="round" stroke-linejoin="round"/>
<path d="M15.0577 10.0245C13.7337 11.1065 11.938 11.7143 10.0657 11.7143C8.19329 11.7143 6.39761 11.1065 5.07365 10.0245C1.82818 7.37233 3.56029 4.13282 4.5187 1H15.6127C16.571 4.13282 18.3031 7.37233 15.0577 10.0245Z" stroke="black" stroke-width="2" stroke-linecap="round" stroke-linejoin="round"/>
<path d="M1 1H19.1318" stroke="black" stroke-width="2" stroke-linecap="round" stroke-linejoin="round"/>
<path d="M1 22.4285H19.1318" stroke="black" stroke-width="2" stroke-linecap="round" stroke-linejoin="round"/>
</svg>
