<svg width="24" height="24" viewBox="0 0 24 24" fill="none" xmlns="http://www.w3.org/2000/svg">
<path d="M1.85151 16.839C1.97719 18.4827 3.31693 19.7566 4.96323 19.8419C9.73983 20.0895 14.2603 20.0895 19.0368 19.8419C20.6832 19.7566 22.0229 18.4827 22.1486 16.839C22.3985 13.5704 22.3985 10.4294 22.1486 7.16084C22.0229 5.51711 20.6832 4.24323 19.0368 4.15789C14.2603 3.91026 9.73983 3.91026 4.96323 4.15789C3.31692 4.24323 1.97719 5.51711 1.85151 7.16084C1.60158 10.4294 1.60158 13.5704 1.85151 16.839Z" stroke="black" stroke-width="2" stroke-linecap="round" stroke-linejoin="round"/>
<path d="M15.663 9.84375H18.2544" stroke="black" stroke-width="2" stroke-linecap="round" stroke-linejoin="round"/>
<path d="M15.663 14.1562H18.2544" stroke="black" stroke-width="2" stroke-linecap="round" stroke-linejoin="round"/>
<path d="M12.3822 15.873C12.048 14.2435 10.7504 13.093 8.88724 13.093C7.02408 13.093 5.72652 14.2435 5.39227 15.873" stroke="black" stroke-width="2" stroke-linecap="round" stroke-linejoin="round"/>
<path d="M8.88744 13.093C10.5024 13.093 11.4107 12.1846 11.4107 10.5697C11.4107 8.95477 10.5024 8.04639 8.88744 8.04639C7.27252 8.04639 6.36414 8.95477 6.36414 10.5697C6.36414 12.1846 7.27252 13.093 8.88744 13.093Z" stroke="black" stroke-width="2" stroke-linecap="round" stroke-linejoin="round"/>
</svg>
