<svg width="24" height="24" viewBox="0 0 24 24" fill="none" xmlns="http://www.w3.org/2000/svg">
<g clip-path="url(#clip0_1126_499)">
<path d="M1.7223 18.3123C1.95044 20.3703 3.59814 22.0174 5.6552 22.2539C7.71124 22.4903 9.83185 22.7142 11.9994 22.7142C14.167 22.7142 16.2876 22.4903 18.3437 22.2539C20.4006 22.0174 22.0484 20.3703 22.2766 18.3123C22.5034 16.2664 22.7137 14.1565 22.7137 11.9999C22.7137 9.84339 22.5034 7.73347 22.2766 5.68764C22.0484 3.62962 20.4006 1.98252 18.3437 1.74596C16.2876 1.5095 14.167 1.28564 11.9994 1.28564C9.83185 1.28564 7.71124 1.5095 5.6552 1.74596C3.59814 1.98252 1.95044 3.62962 1.7223 5.68764C1.49552 7.73347 1.28516 9.84339 1.28516 11.9999C1.28516 14.1565 1.49552 16.2664 1.7223 18.3123Z" stroke="#CCCCCC" stroke-width="2" stroke-linecap="round" stroke-linejoin="round"/>
<path d="M5.65553 22.2539C3.59847 22.0174 1.95077 20.3703 1.72263 18.3123C1.61766 17.3653 1.5162 16.4045 1.4375 15.4318C3.1346 13.276 5.124 11.6206 7.15779 11.6206C11.2822 11.6206 15.224 18.4282 16.9158 22.4125C15.3104 22.5815 13.669 22.7142 11.9997 22.7142C9.83218 22.7142 7.71157 22.4903 5.65553 22.2539Z" stroke="#CCCCCC" stroke-width="2" stroke-linecap="round" stroke-linejoin="round"/>
<path d="M15.9458 11.0566C17.5699 11.0566 18.4834 10.1431 18.4834 8.51903C18.4834 6.89499 17.5699 5.98145 15.9458 5.98145C14.3217 5.98145 13.4082 6.89499 13.4082 8.51903C13.4082 10.1431 14.3217 11.0566 15.9458 11.0566Z" stroke="#CCCCCC" stroke-width="2" stroke-linecap="round" stroke-linejoin="round"/>
</g>
<defs>
<clipPath id="clip0_1126_499">
<rect width="24" height="24" fill="white"/>
</clipPath>
</defs>
</svg>
