<svg width="24" height="24" viewBox="0 0 24 24" fill="none" xmlns="http://www.w3.org/2000/svg">
<g clip-path="url(#clip0_1128_470)">
<path d="M11.9258 18.4976L11.9258 11.5408" stroke="black" stroke-width="2" stroke-linecap="round" stroke-linejoin="round"/>
<path d="M8.63227 15.2849C9.76015 16.6085 10.4573 17.3418 11.7284 18.4157C11.8536 18.5215 12.0366 18.5252 12.1656 18.424C13.4253 17.4361 14.1364 16.6978 15.293 15.2849" stroke="black" stroke-width="2" stroke-linecap="round" stroke-linejoin="round"/>
<path d="M3.42773 10.1133L4.09877 19.5079C4.20871 21.047 5.3316 22.3389 6.861 22.5432C10.2909 23.0016 13.7075 23.0016 17.1373 22.5432C18.6667 22.3389 19.7896 21.047 19.8996 19.5079L20.5706 10.1133" stroke="black" stroke-width="2" stroke-linecap="round" stroke-linejoin="round"/>
<path d="M1.28516 5.95752H22.7137" stroke="black" stroke-width="2" stroke-linecap="round" stroke-linejoin="round"/>
<path d="M7.71289 5.82756L8.54842 3.52989C9.07599 2.07907 10.4548 1.11328 11.9986 1.11328C13.5424 1.11328 14.9212 2.07907 15.4488 3.52989L16.2843 5.82756" stroke="black" stroke-width="2" stroke-linecap="round" stroke-linejoin="round"/>
</g>
<defs>
<clipPath id="clip0_1128_470">
<rect width="24" height="24" fill="white"/>
</clipPath>
</defs>
</svg>
