<svg width="24" height="24" viewBox="0 0 24 24" fill="none" xmlns="http://www.w3.org/2000/svg">
<path d="M9 3.91078C9 5.5565 9.92571 6.48221 11.5714 6.48221C13.2171 6.48221 14.1429 5.5565 14.1429 3.91078C14.1429 2.26507 13.2171 1.33936 11.5714 1.33936C9.92571 1.33936 9 2.26507 9 3.91078Z" stroke="black" stroke-width="2" stroke-linecap="round" stroke-linejoin="round"/>
<path d="M9 20.0895C9 21.7352 9.92571 22.6609 11.5714 22.6609C13.2171 22.6609 14.1429 21.7354 14.1429 20.0897C14.1429 18.4438 13.2171 17.5181 11.5714 17.5181C9.92571 17.5181 9 18.4438 9 20.0895Z" stroke="black" stroke-width="2" stroke-linecap="round" stroke-linejoin="round"/>
<path d="M9 12.0001C9 13.6459 9.92571 14.5716 11.5714 14.5716C13.2171 14.5716 14.1429 13.6459 14.1429 12.0001C14.1429 10.3544 13.2171 9.42871 11.5714 9.42871C9.92571 9.42871 9 10.3544 9 12.0001Z" stroke="black" stroke-width="2" stroke-linecap="round" stroke-linejoin="round"/>
</svg>
