<svg width="24" height="23" viewBox="0 0 24 23" fill="none" xmlns="http://www.w3.org/2000/svg">
<path d="M1 1H22.4286M2.9583 14.975C2.82071 13.9184 2.71429 12.308 2.71429 10.7347C2.71429 9.16144 2.82067 7.55097 2.95826 6.49442C3.05689 5.7371 3.58531 5.16895 4.33482 5.02223C4.81962 4.92733 5.42202 4.85714 6.14281 4.85714C6.86359 4.85714 7.46599 4.92733 7.95079 5.02223C8.7003 5.16895 9.22874 5.73709 9.32737 6.49442C9.46497 7.55097 9.57139 9.16144 9.57133 10.7347C9.57126 12.308 9.46485 13.9184 9.32728 14.975C9.22866 15.7323 8.70023 16.3005 7.95074 16.4472C7.46598 16.5421 6.86363 16.6123 6.14286 16.6123C5.42207 16.6123 4.81967 16.5421 4.33487 16.4472C3.58538 16.3005 3.05694 15.7323 2.9583 14.975ZM14.1338 20.111C13.9808 18.7039 13.8571 16.1889 13.8571 13.3061C13.8571 10.4233 13.9808 7.90826 14.1338 6.50119C14.2164 5.74195 14.7282 5.16895 15.4777 5.02223C15.9625 4.92733 16.5649 4.85714 17.2857 4.85714C18.0064 4.85714 18.6088 4.92733 19.0936 5.02223C19.8431 5.16895 20.355 5.74195 20.4376 6.50121C20.5905 7.90826 20.7141 10.4233 20.7141 13.3061C20.7141 16.1889 20.5905 18.7039 20.4374 20.111C20.355 20.8703 19.8431 21.4434 19.0936 21.5901C18.6088 21.6849 18.0064 21.7552 17.2857 21.7552C16.5649 21.7552 15.9625 21.6849 15.4777 21.5901C14.7282 21.4434 14.2164 20.8703 14.1338 20.111Z" stroke="black" stroke-width="2" stroke-linecap="round" stroke-linejoin="round"/>
</svg>
