<svg width="24" height="24" viewBox="0 0 24 24" fill="none" xmlns="http://www.w3.org/2000/svg">
<g clip-path="url(#clip0_1_1698)">
<path d="M17.0273 22.4431C18.21 22.3291 19.3671 22.1889 20.4831 22.0422C21.2505 21.9412 21.8522 21.334 21.9482 20.566C22.0858 19.4635 22.2204 18.3163 22.3311 17.1426" stroke="black" stroke-width="2" stroke-linecap="round" stroke-linejoin="round"/>
<path d="M6.97375 1.55688C5.79108 1.67093 4.6339 1.81119 3.51792 1.95797C2.75064 2.05889 2.14896 2.66606 2.05299 3.43397C1.91522 4.53645 1.78061 5.6837 1.66992 6.85748" stroke="black" stroke-width="2" stroke-linecap="round" stroke-linejoin="round"/>
<path d="M17.0273 1.55688C18.21 1.67093 19.3671 1.81119 20.4831 1.95797C21.2505 2.05889 21.8522 2.66606 21.9482 3.43397C22.0858 4.53645 22.2204 5.6837 22.3311 6.85748" stroke="black" stroke-width="2" stroke-linecap="round" stroke-linejoin="round"/>
<path d="M6.97375 22.4431C5.79108 22.3291 4.6339 22.1889 3.51792 22.0422C2.75064 21.9412 2.14896 21.334 2.05299 20.566C1.91522 19.4635 1.78061 18.3163 1.66992 17.1426" stroke="black" stroke-width="2" stroke-linecap="round" stroke-linejoin="round"/>
<path d="M11.1504 11.6021L14.7875 7.96499C15.457 7.29552 16.5424 7.29552 17.212 7.96499L18.3897 9.14282" stroke="black" stroke-width="2" stroke-linecap="round" stroke-linejoin="round"/>
<path d="M13.7277 9.01953L15.7966 11.0885" stroke="black" stroke-width="2" stroke-linecap="round" stroke-linejoin="round"/>
<path d="M8.7665 17.2766C10.836 17.2766 12 16.1126 12 14.0431C12 11.9737 10.836 10.8096 8.7665 10.8096C6.69703 10.8096 5.53296 11.9737 5.53296 14.0431C5.53296 16.1126 6.69703 17.2766 8.7665 17.2766Z" stroke="black" stroke-width="2" stroke-linecap="round" stroke-linejoin="round"/>
</g>
<defs>
<clipPath id="clip0_1_1698">
<rect width="24" height="24" fill="white"/>
</clipPath>
</defs>
</svg>
