<svg width="24" height="24" viewBox="0 0 24 24" fill="none" xmlns="http://www.w3.org/2000/svg">
<path d="M19.3887 17.1428H19.504C20.1428 17.1428 20.7287 17.498 21.0241 18.0646L23.0183 21.8893C23.3159 22.46 22.9019 23.1428 22.2584 23.1428H1.73011C1.08932 23.1428 0.675111 22.4653 0.967167 21.895L2.92284 18.0757C3.21609 17.5032 3.80532 17.1428 4.44871 17.1428H4.56009" stroke="black" stroke-width="2" stroke-linecap="round" stroke-linejoin="round"/>
<path d="M12.1002 0.857178H11.8986C7.7054 0.857178 4.22509 4.09776 3.92635 8.28034C3.78079 10.3182 4.24066 12.3859 5.47848 14.0113C7.02564 16.0429 8.59652 17.4489 11.0793 19.1123C11.6354 19.4848 12.3635 19.4848 12.9196 19.1123C15.4023 17.4489 16.9732 16.0429 18.5205 14.0113C19.7582 12.3859 20.2181 10.3182 20.0726 8.28034C19.7738 4.09776 16.2934 0.857178 12.1002 0.857178Z" stroke="black" stroke-width="2" stroke-linecap="round" stroke-linejoin="round"/>
<path d="M12.0001 11.1429C13.6459 11.1429 14.5716 10.2171 14.5716 8.57143C14.5716 6.92571 13.6459 6 12.0001 6C10.3544 6 9.42871 6.92571 9.42871 8.57143C9.42871 10.2171 10.3544 11.1429 12.0001 11.1429Z" stroke="black" stroke-width="2" stroke-linecap="round" stroke-linejoin="round"/>
</svg>
