<svg width="21" height="24" viewBox="0 0 21 24" fill="none" xmlns="http://www.w3.org/2000/svg">
<path d="M10.2012 8.06291C8.13038 5.52233 5.94467 7.32748 5.91553 9.27319C5.91553 12.1703 9.38181 14.548 10.2012 14.548C11.0207 14.548 14.487 12.1703 14.487 9.27319C14.4578 7.32748 12.2721 5.52233 10.2012 8.06291Z" stroke="black" stroke-width="2" stroke-linecap="round" stroke-linejoin="round"/>
<path d="M10.316 1H10.0863C7.79018 1.00065 5.57949 1.87099 3.89916 3.43586C2.21883 5.00073 1.19359 7.14398 1.02976 9.43429C0.863475 11.7503 1.38633 14.1006 2.79205 15.9486C4.57662 18.2903 6.38862 19.9017 9.28233 21.8286C9.55511 22.0099 9.87536 22.1066 10.2029 22.1066C10.5305 22.1066 10.8507 22.0099 11.1235 21.8286C14.0172 19.9017 15.8292 18.2903 17.6138 15.9486C19.0195 14.1006 19.5423 11.7503 19.376 9.43429C19.2122 7.14339 18.1865 4.99965 16.5054 3.43469C14.8243 1.86973 12.6128 0.999782 10.316 1Z" stroke="black" stroke-width="2" stroke-linecap="round" stroke-linejoin="round"/>
</svg>
