<svg width="16" height="16" viewBox="0 0 16 16" fill="none" xmlns="http://www.w3.org/2000/svg">
<path d="M12.9256 11.4287H13.0025C13.4284 11.4287 13.819 11.6655 14.0159 12.0432L15.3454 14.5931C15.5438 14.9735 15.2678 15.4287 14.8388 15.4287H1.15324C0.726049 15.4287 0.449911 14.9771 0.644615 14.5968L1.9484 12.0507C2.1439 11.6689 2.53672 11.4287 2.96564 11.4287H3.0399" stroke="black" stroke-width="1.5" stroke-linecap="round" stroke-linejoin="round"/>
<path d="M8.06665 0.571533H7.93226C5.13677 0.571533 2.81657 2.73192 2.6174 5.52031C2.52036 6.87887 2.82694 8.25735 3.65216 9.34094C4.68359 10.6953 5.73085 11.6327 7.38603 12.7416C7.75675 12.9899 8.24217 12.9899 8.61289 12.7416C10.2681 11.6327 11.3153 10.6953 12.3468 9.34094C13.1719 8.25735 13.4786 6.87887 13.3815 5.52031C13.1823 2.73192 10.8621 0.571533 8.06665 0.571533Z" stroke="black" stroke-width="1.5" stroke-linecap="round" stroke-linejoin="round"/>
<path d="M7.99993 7.42857C9.09707 7.42857 9.71422 6.81143 9.71422 5.71429C9.71422 4.61714 9.09707 4 7.99993 4C6.90279 4 6.28564 4.61714 6.28564 5.71429C6.28564 6.81143 6.90279 7.42857 7.99993 7.42857Z" stroke="black" stroke-width="1.5" stroke-linecap="round" stroke-linejoin="round"/>
</svg>
