<svg width="20" height="24" viewBox="0 0 20 24" fill="none" xmlns="http://www.w3.org/2000/svg">
<path d="M1.16445 17.8958C1.44325 20.3553 3.52305 22.2729 5.99671 22.3607C7.2515 22.4053 8.53993 22.4282 9.92858 22.4282C11.3172 22.4282 12.6057 22.4053 13.8605 22.3607C16.3341 22.2729 18.4139 20.3553 18.6926 17.8958C18.7898 17.0387 18.8572 16.1677 18.8572 15.2854C18.8572 14.4032 18.7898 13.5322 18.6926 12.675C18.4139 10.2155 16.3341 8.29791 13.8605 8.21012C12.6057 8.1656 11.3172 8.14258 9.92858 8.14258C8.53993 8.14258 7.2515 8.1656 5.99671 8.21012C3.52305 8.29791 1.44325 10.2155 1.16445 12.675C1.06729 13.5322 1 14.4032 1 15.2854C1 16.1677 1.06729 17.0387 1.16445 17.8958Z" stroke="black" stroke-width="2" stroke-linecap="round" stroke-linejoin="round"/>
<path d="M13.4647 2.46446C12.5271 1.52678 11.2553 1 9.92919 1C8.6031 1 7.33134 1.52678 6.39366 2.46446C5.45598 3.40214 4.9292 4.67392 4.9292 6.00001V8.14286" stroke="black" stroke-width="2" stroke-linecap="round" stroke-linejoin="round"/>
<path d="M9.92896 14.4285V16.1426" stroke="black" stroke-width="2" stroke-linecap="round" stroke-linejoin="round"/>
</svg>
