<svg width="20" height="24" viewBox="0 0 20 24" fill="none" xmlns="http://www.w3.org/2000/svg">
<path d="M1.16445 17.8964C1.44325 20.3559 3.52305 22.2735 5.99671 22.3613C7.2515 22.4058 8.53993 22.4288 9.92858 22.4288C11.3172 22.4288 12.6057 22.4058 13.8605 22.3613C16.3341 22.2735 18.4139 20.3559 18.6926 17.8964C18.7898 17.0391 18.8572 16.1682 18.8572 15.2859C18.8572 14.4037 18.7898 13.5327 18.6926 12.6755C18.4139 10.216 16.3341 8.29838 13.8605 8.21061C12.6057 8.16607 11.3172 8.14307 9.92858 8.14307C8.53993 8.14307 7.2515 8.16607 5.99671 8.21061C3.52305 8.29838 1.44325 10.216 1.16445 12.6755C1.06729 13.5327 1 14.4037 1 15.2859C1 16.1682 1.06729 17.0391 1.16445 17.8964Z" stroke="black" stroke-width="2" stroke-linecap="round" stroke-linejoin="round"/>
<path d="M14.9292 8.14286V6.00001C14.9292 4.67392 14.4024 3.40214 13.4647 2.46446C12.5271 1.52678 11.2553 1 9.92919 1C8.6031 1 7.33134 1.52678 6.39366 2.46446C5.45598 3.40214 4.9292 4.67392 4.9292 6.00001V8.14286" stroke="black" stroke-width="2" stroke-linecap="round" stroke-linejoin="round"/>
<path d="M9.92896 14.2856V15.9998" stroke="black" stroke-width="2" stroke-linecap="round" stroke-linejoin="round"/>
</svg>
