<svg width="24" height="24" viewBox="0 0 24 24" fill="none" xmlns="http://www.w3.org/2000/svg">
<path d="M1.14387 10.5954C1.24953 12.0477 2.04385 13.2157 3.03095 13.3776C3.76415 13.4977 4.51696 13.6009 5.28448 13.6009C6.05202 13.6009 6.80481 13.4977 7.53801 13.3776C8.52513 13.2157 9.31943 12.0477 9.4251 10.5954C9.5031 9.52331 9.56896 8.42262 9.56896 7.30048C9.56896 6.17833 9.5031 5.07765 9.4251 4.00555C9.31943 2.55326 8.52513 1.3852 7.53801 1.2234C6.80481 1.10322 6.05202 1 5.28448 1C4.51696 1 3.76415 1.10322 3.03095 1.2234C2.04385 1.3852 1.24953 2.55326 1.14387 4.00555C1.06587 5.07765 1 6.17833 1 7.30048C1 8.42262 1.06587 9.52331 1.14387 10.5954Z" stroke="black" stroke-width="2" stroke-linecap="round" stroke-linejoin="round"/>
<path d="M22.1262 12.7148C22.0204 11.2635 21.2243 10.0961 20.235 9.93443C19.5001 9.81433 18.7456 9.71118 17.9764 9.71118C17.2072 9.71118 16.4527 9.81433 15.7178 9.93443C14.7285 10.0961 13.9325 11.2635 13.8266 12.7148C13.7484 13.7862 13.6824 14.8862 13.6824 16.0076C13.6824 17.1291 13.7484 18.229 13.8266 19.3004C13.9325 20.7517 14.7285 21.9191 15.7178 22.0808C16.4527 22.2008 17.2072 22.304 17.9764 22.304C18.7456 22.304 19.5001 22.2008 20.235 22.0808C21.2243 21.9191 22.0204 20.7517 22.1262 19.3004C22.2044 18.229 22.2704 17.1291 22.2704 16.0076C22.2704 14.8862 22.2044 13.7862 22.1262 12.7148Z" stroke="black" stroke-width="2" stroke-linecap="round" stroke-linejoin="round"/>
<path d="M1.14387 21.218C1.24953 21.7427 2.04385 22.1648 3.03095 22.2232C3.76415 22.2668 4.51696 22.304 5.28448 22.304C6.05202 22.304 6.80481 22.2668 7.53801 22.2232C8.52513 22.1648 9.31943 21.7427 9.4251 21.218C9.5031 20.8305 9.56896 20.4327 9.56896 20.0272C9.56896 19.6216 9.5031 19.2239 9.4251 18.8365C9.31943 18.3117 8.52513 17.8897 7.53801 17.8312C6.80481 17.7877 6.05202 17.7505 5.28448 17.7505C4.51696 17.7505 3.76415 17.7877 3.03095 17.8312C2.04385 17.8897 1.24953 18.3117 1.14387 18.8365C1.06587 19.2239 1 19.6216 1 20.0272C1 20.4327 1.06587 20.8305 1.14387 21.218Z" stroke="black" stroke-width="2" stroke-linecap="round" stroke-linejoin="round"/>
<path d="M22.1262 2.0861C22.0204 1.56129 21.2243 1.1392 20.235 1.08073C19.5001 1.0373 18.7456 1 17.9764 1C17.2072 1 16.4527 1.0373 15.7178 1.08073C14.7285 1.1392 13.9325 1.56129 13.8266 2.0861C13.7484 2.47353 13.6824 2.87128 13.6824 3.27678C13.6824 3.68229 13.7484 4.08004 13.8266 4.46747C13.9325 4.99226 14.7285 5.41437 15.7178 5.47285C16.4527 5.51627 17.2072 5.55357 17.9764 5.55357C18.7456 5.55357 19.5001 5.51627 20.235 5.47285C21.2243 5.41437 22.0204 4.99226 22.1262 4.46747C22.2044 4.08004 22.2704 3.68229 22.2704 3.27678C22.2704 2.87128 22.2044 2.47353 22.1262 2.0861Z" stroke="black" stroke-width="2" stroke-linecap="round" stroke-linejoin="round"/>
</svg>
