<svg width="29" height="25" viewBox="0 0 29 25" fill="none" xmlns="http://www.w3.org/2000/svg">
<path d="M27.4884 8.89544C27.7423 5.36984 17.8767 -1.22525 17.8767 1.75088V5.21093C16.1399 5.19089 14.4202 5.21579 12.6411 5.2856C11.6262 5.32542 10.7778 6.0865 10.6971 7.09891C10.6036 8.27067 10.6036 9.41315 10.6971 10.5849C10.7778 11.5973 11.6262 12.3584 12.6411 12.3982C13.6789 12.439 14.6965 12.4644 15.709 12.4745C16.9021 12.4865 17.8767 13.4475 17.8767 14.6406V15.9329C17.8767 18.849 27.7762 12.3009 27.4884 8.89544Z" stroke="black" stroke-width="2" stroke-linecap="round" stroke-linejoin="round"/>
<path d="M1.00616 16.1156C0.752172 12.5901 10.6177 5.99496 10.6177 8.97109V10.2634C10.6177 11.4565 11.5923 12.4175 12.7854 12.4295C13.798 12.4396 14.8156 12.4651 15.8534 12.5058C16.8683 12.5456 17.7166 13.3067 17.7974 14.3191C17.8909 15.4909 17.8909 16.6334 17.7974 17.8051C17.7166 18.8175 16.8683 19.5786 15.8534 19.6184C14.0743 19.6883 12.3545 19.7131 10.6177 19.693V23.1531C10.6177 26.0691 0.718195 19.5211 1.00616 16.1156Z" stroke="black" stroke-width="2" stroke-linecap="round" stroke-linejoin="round"/>
</svg>
