<svg width="24" height="24" viewBox="0 0 24 24" fill="none" xmlns="http://www.w3.org/2000/svg">
<path d="M13.435 5.55809C17.3459 1.64719 20.1394 -0.0289141 21.8154 1.64719C23.4917 3.32328 21.8154 6.1168 17.9046 10.0277C19.5807 12.8212 21.8154 19.5256 20.1394 21.2017C17.9046 23.4366 12.3176 14.4973 12.3176 14.4973L10.6415 16.1734C10.8277 17.8496 10.7533 21.4252 8.96541 22.319C7.17756 23.213 5.98567 19.7118 5.61321 17.8496C3.75088 17.477 0.249685 16.2851 1.1436 14.4973C2.03753 12.7095 5.61321 12.635 7.28931 12.8212L8.96541 11.1451C8.96541 11.1451 0.0262052 5.55809 2.26101 3.32328C3.93712 1.64719 10.6415 3.88199 13.435 5.55809Z" stroke="black" stroke-width="2" stroke-linecap="round" stroke-linejoin="round"/>
</svg>
