<svg width="24" height="24" viewBox="0 0 24 24" fill="none" xmlns="http://www.w3.org/2000/svg">
<path d="M18.3506 20.6305C17.9966 19.2976 17.2312 18.1066 16.1584 17.2297C14.9849 16.2705 13.5159 15.7466 12.0003 15.7466C10.4848 15.7466 9.01579 16.2705 7.84231 17.2297C6.76954 18.1066 6.00406 19.2976 5.65015 20.6305" stroke="black" stroke-width="2" stroke-linecap="round" stroke-linejoin="round"/>
<path d="M12 23.1429C19.1315 23.1429 23.1429 19.1315 23.1429 12C23.1429 4.86861 19.1315 0.857178 12 0.857178C4.86861 0.857178 0.857178 4.86861 0.857178 12C0.857178 19.1315 4.86861 23.1429 12 23.1429Z" stroke="black" stroke-width="2" stroke-linecap="round" stroke-linejoin="round"/>
<path d="M11.9984 12.9944C14.3984 12.9944 15.7484 11.6444 15.7484 9.24438C15.7484 6.84438 14.3984 5.49438 11.9984 5.49438C9.59841 5.49438 8.24841 6.84438 8.24841 9.24438C8.24841 11.6444 9.59841 12.9944 11.9984 12.9944Z" stroke="black" stroke-width="2" stroke-linecap="round" stroke-linejoin="round"/>
</svg>
