<svg width="24" height="24" viewBox="0 0 24 24" fill="none" xmlns="http://www.w3.org/2000/svg">
<path d="M11.3314 12.4366C11.3314 11.8606 11.8011 11.5074 12.6274 10.9554C13.3954 10.4411 13.8 9.7777 13.62 8.87256C13.5247 8.42247 13.3009 8.00972 12.9756 7.68442C12.6503 7.35911 12.2375 7.13524 11.7874 7.03999C11.4497 6.97696 11.1023 6.98856 10.7696 7.07397C10.4369 7.15938 10.1269 7.31654 9.86127 7.53443C9.59569 7.75231 9.38098 8.02565 9.2322 8.33529C9.08342 8.64492 9.00417 8.98335 9 9.32684" stroke="black" stroke-width="2" stroke-linecap="round" stroke-linejoin="round"/>
<path d="M11.3311 16.4276V15.999" stroke="black" stroke-width="2" stroke-linecap="round" stroke-linejoin="round"/>
<path d="M11.5 21C17.58 21 21 17.58 21 11.5C21 5.42 17.58 2 11.5 2C5.42 2 2 5.42 2 11.5C2 17.58 5.42 21 11.5 21Z" stroke="black" stroke-width="2" stroke-linecap="round" stroke-linejoin="round"/>
</svg>
