<svg width="24" height="24" viewBox="0 0 24 24" fill="none" xmlns="http://www.w3.org/2000/svg">
<g clip-path="url(#clip0_1_250)">
<path d="M21.9683 10.6642C22.8695 11.3267 22.8695 12.6733 21.9683 13.3358C20.4773 14.4318 19.7187 16.2704 19.9983 18.0998C20.1677 19.2091 19.209 20.1677 18.0997 19.9984C16.2704 19.7188 14.4318 20.4773 13.3358 21.9684C12.6733 22.8696 11.3266 22.8696 10.6641 21.9684C9.56811 20.4773 7.72954 19.7188 5.90019 19.9984C4.79088 20.1677 3.83217 19.2091 4.00166 18.0998C4.28114 16.2704 3.52267 14.4318 2.03157 13.3358C1.13027 12.6733 1.13027 11.3267 2.03157 10.6642C3.52267 9.56817 4.28114 7.7296 4.00166 5.90025C3.83217 4.79094 4.79088 3.83223 5.90019 4.00172C7.72954 4.2812 9.56811 3.52273 10.6641 2.03163C11.3266 1.13033 12.6733 1.13033 13.3358 2.03163C14.4318 3.52273 16.2704 4.2812 18.0997 4.00172C19.209 3.83223 20.1677 4.79094 19.9983 5.90025C19.7187 7.7296 20.4773 9.56817 21.9683 10.6642Z" stroke="black" stroke-width="2" stroke-linecap="round" stroke-linejoin="round"/>
<path d="M11.9995 16.3556C14.7871 16.3556 16.3551 14.7876 16.3551 12C16.3551 9.21243 14.7871 7.64441 11.9995 7.64441C9.21194 7.64441 7.64392 9.21243 7.64392 12C7.64392 14.7876 9.21194 16.3556 11.9995 16.3556Z" stroke="black" stroke-width="2" stroke-linecap="round" stroke-linejoin="round"/>
</g>
<defs>
<clipPath id="clip0_1_250">
<rect width="24" height="24" fill="white"/>
</clipPath>
</defs>
</svg>
