<svg width="24" height="24" viewBox="0 0 24 24" fill="none" xmlns="http://www.w3.org/2000/svg">
<g clip-path="url(#clip0_1_1843)">
<path d="M14.6965 5.81299C10.9525 6.86899 10.692 6.90327 7.50684 8.69642" stroke="black" stroke-width="2" stroke-linecap="round" stroke-linejoin="round"/>
<path d="M14.6965 18.1869C10.9543 17.1309 10.6937 17.0966 7.50854 15.3052" stroke="black" stroke-width="2" stroke-linecap="round" stroke-linejoin="round"/>
<path d="M18.3617 8.61593C20.7085 8.61593 22.0285 7.29593 22.0285 4.95079C22.0285 2.60564 20.7085 1.28564 18.36 1.28564C16.0148 1.28564 14.6948 2.60564 14.6948 4.95079C14.6948 7.29764 16.0148 8.61593 18.36 8.61593H18.3617Z" stroke="black" stroke-width="2" stroke-linecap="round" stroke-linejoin="round"/>
<path d="M18.3617 22.7143C20.7085 22.7143 22.0285 21.3943 22.0285 19.0492C22.0285 16.7023 20.7085 15.384 18.3617 15.384C16.0165 15.384 14.6965 16.704 14.6965 19.0492C14.6965 21.3943 16.0165 22.7143 18.3617 22.7143Z" stroke="black" stroke-width="2" stroke-linecap="round" stroke-linejoin="round"/>
<path d="M5.63829 15.665C7.98344 15.665 9.30344 14.345 9.30344 11.9999C9.30344 9.65472 7.98344 8.33472 5.63829 8.33472C3.29144 8.33472 1.97144 9.65472 1.97144 11.9999C1.97144 14.345 3.29144 15.665 5.63829 15.665Z" stroke="black" stroke-width="2" stroke-linecap="round" stroke-linejoin="round"/>
</g>
<defs>
<clipPath id="clip0_1_1843">
<rect width="24" height="24" fill="white"/>
</clipPath>
</defs>
</svg>
