<svg width="10" height="10" viewBox="0 0 10 10" fill="none" xmlns="http://www.w3.org/2000/svg">
<path d="M4.21601 1.07445C4.25888 0.969293 4.33212 0.879295 4.42636 0.815941C4.52061 0.752586 4.63159 0.71875 4.74516 0.71875C4.85872 0.71875 4.9697 0.752586 5.06395 0.815941C5.15819 0.879295 5.23143 0.969293 5.2743 1.07445L6.07658 3.03217L8.2503 3.22302C8.36329 3.23298 8.47076 3.27634 8.55903 3.34758C8.64729 3.41882 8.71236 3.51472 8.74594 3.62307C8.77953 3.73141 8.7801 3.8473 8.7476 3.95597C8.7151 4.06465 8.65099 4.16119 8.56344 4.23331L7.23658 5.32359C7.15528 5.39018 7.09392 5.4779 7.05924 5.5771C7.02456 5.6763 7.01791 5.78314 7.04001 5.88588L7.4743 7.89845C7.49842 8.00967 7.48878 8.12556 7.44662 8.23127C7.40446 8.33698 7.33169 8.42769 7.23765 8.49178C7.1436 8.55587 7.03256 8.59042 6.91875 8.591C6.80495 8.59157 6.69356 8.55815 6.59887 8.49502L4.74516 7.25502L2.89144 8.49502C2.79675 8.55854 2.68522 8.59228 2.5712 8.59189C2.45718 8.59151 2.34588 8.55703 2.25161 8.49287C2.15735 8.42872 2.08444 8.33783 2.04225 8.2319C2.00006 8.12597 1.99052 8.00984 2.01487 7.89845L2.44916 5.88588C2.47152 5.78335 2.46523 5.67664 2.43095 5.57746C2.39668 5.47827 2.33576 5.39044 2.25487 5.32359L0.926869 4.23331C0.839317 4.16119 0.775209 4.06465 0.742709 3.95597C0.710208 3.8473 0.710785 3.73141 0.744367 3.62307C0.777949 3.51472 0.843016 3.41882 0.931283 3.34758C1.01955 3.27634 1.12702 3.23298 1.24001 3.22302L3.41373 3.03217L4.21601 1.07445Z" stroke="black" stroke-width="1.4375" stroke-linecap="round" stroke-linejoin="round"/>
</svg>
