<svg width="24" height="24" viewBox="0 0 24 24" fill="none" xmlns="http://www.w3.org/2000/svg">
<path d="M3.32739 17.8489C3.56784 20.0964 5.37541 21.9039 7.62175 22.1543C9.29025 22.3403 11.0034 22.5 12.75 22.5C14.4966 22.5 16.2098 22.3403 17.8782 22.1543C20.1246 21.9039 21.9322 20.0964 22.1726 17.8489C22.3501 16.1898 22.5 14.4865 22.5 12.75C22.5 11.0135 22.3501 9.31017 22.1726 7.65109C21.9322 5.40368 20.1246 3.59609 17.8782 3.34571C16.2098 3.15973 14.4966 3 12.75 3C11.0034 3 9.29025 3.15973 7.62175 3.34571C5.37541 3.59609 3.56784 5.40368 3.32739 7.65109C3.14989 9.31017 3 11.0135 3 12.75C3 14.4865 3.14989 16.1898 3.32739 17.8489Z" stroke="#140D0A" stroke-width="2" stroke-linecap="round" stroke-linejoin="round"/>
</svg>
