<svg width="23" height="20" viewBox="0 0 23 20" fill="none" xmlns="http://www.w3.org/2000/svg">
<path d="M3.02125 9.06738C2.94811 9.07004 2.87957 9.07273 2.81458 9.07546C2.01768 9.10894 1.34496 9.69942 1.2366 10.4896C0.921134 12.7901 0.921134 14.976 1.2366 17.2764C1.34496 18.0667 2.01859 18.647 2.81561 18.6778C8.52946 18.8988 13.806 18.8988 19.5198 18.6778C20.3169 18.647 20.9905 18.0667 21.0988 17.2764C21.4143 14.976 21.4143 12.7901 21.0988 10.4896C20.9905 9.69942 20.318 9.10347 19.521 9.07157C19.4859 9.07016 19.4492 9.06877 19.4109 9.06738" stroke="black" stroke-width="2" stroke-linecap="round" stroke-linejoin="round"/>
<path d="M12.4825 1.1401C12.1397 0.911246 11.6823 0.968864 11.4029 1.27186C9.57317 3.25601 7.99759 5.18848 6.42259 7.38028C6.18206 7.71499 6.21773 8.17461 6.51094 8.4643C7.93041 9.86674 9.37408 11.0438 11.0336 12.1517C11.3764 12.3806 11.8338 12.323 12.1133 12.02C13.943 10.0358 15.5185 8.10336 17.0935 5.91156C17.334 5.57685 17.2983 5.11723 17.0052 4.82753C15.5857 3.42509 14.1421 2.24805 12.4825 1.1401Z" stroke="black" stroke-width="2" stroke-linecap="round" stroke-linejoin="round"/>
<path d="M6.56323 13.4324H15.773" stroke="black" stroke-width="2" stroke-linecap="round" stroke-linejoin="round"/>
</svg>
