<svg width="154" height="179" viewBox="0 0 154 179" fill="none" xmlns="http://www.w3.org/2000/svg">
<path d="M79.1469 123.746C71.5238 123.746 65.2334 122.271 60.2846 119.313C55.3358 116.354 51.2933 112.09 48.1659 106.51C45.0385 100.939 42.222 94.169 39.7165 86.1995L20.5966 24.9216C18.7753 19.2354 18.9174 14.2511 21.0231 9.98644C23.1288 5.72178 26.9137 2.78982 32.3777 1.19946C37.3798 -0.275399 41.9377 0.0355654 46.0335 2.14124C50.1294 4.24692 52.9192 7.8008 54.3941 12.8118L70.7064 58.2837C72.6432 64.654 75.1132 68.8921 78.134 70.9977C81.1459 73.1034 84.4155 73.5832 87.9516 72.4459C91.5943 71.4242 93.9221 69.3452 94.9527 66.2178C95.9745 63.0903 95.6902 58.337 94.0998 51.9667C91.4788 40.5943 92.0119 45.241 91.0968 38.7551C90.1817 32.2693 89.7285 27.1517 89.7285 23.3935C89.7285 17.0231 91.4611 11.5324 94.935 6.92121C98.4089 2.31005 103.784 0.00891113 111.061 0.00891113C118.337 0.00891113 123.437 2.31005 126.68 6.92121C129.923 11.5324 131.549 17.0231 131.549 23.3935C131.549 27.1517 131.034 31.0165 130.012 34.9969C128.99 38.9772 127.791 43.082 126.431 47.2844L111.238 93.2006C109.186 99.3488 106.938 104.724 104.495 109.326C102.052 113.938 98.862 117.491 94.935 119.997C91.0079 122.502 85.7482 123.755 79.1469 123.755V123.746Z" fill="#F77646"/>
<path d="M16.3853 67.6037C6.60319 71.8772 -5.52443 82.5922 2.74723 93.858C6.74535 99.2954 13.1779 101.046 19.6104 101.561C27.0736 102.156 34.7588 101.659 42.222 101.179C74.4735 99.1355 106.201 91.548 135.822 78.6207C143.748 75.1646 162.174 64.2008 149.727 54.4987C144.378 50.3318 136.782 57.8216 142.184 62.0419C143.854 63.3479 142.646 62.1041 142.895 61.7131C142.406 62.4594 141.704 63.0636 141.029 63.6322C139.447 64.9561 137.599 66.0133 135.769 66.964C129.443 70.2513 122.584 72.7568 115.894 75.1735C101.554 80.3444 86.7699 84.2803 71.7636 86.9724C56.5974 89.6911 41.1825 91.0327 25.7764 91.0682C22.2936 91.0682 10.9922 91.699 10.6191 86.1283C10.3259 81.7748 18.7308 78.1232 21.7516 76.8082C28.0242 74.0718 22.6046 64.885 16.3675 67.6037H16.3853Z" fill="#F7CE46"/>
<path d="M16.0935 147.732C15.7798 146.822 15.8112 146.1 16.1876 145.567C16.564 145.034 17.2385 144.767 18.2109 144.767H21.3636C22.8693 144.767 23.8261 145.489 24.2339 146.932L27.3865 157.66C27.512 158.068 27.6218 158.507 27.7159 158.977C27.81 159.448 27.9041 159.903 27.9982 160.342C28.0923 160.844 28.1864 161.346 28.2805 161.848H28.3746C28.4374 161.346 28.5315 160.844 28.657 160.342C28.7197 159.903 28.7981 159.448 28.8922 158.977C29.0177 158.507 29.1432 158.068 29.2687 157.66L32.3742 146.932C32.782 145.489 33.7388 144.767 35.2445 144.767H38.4913C39.4323 144.767 40.0911 145.034 40.4675 145.567C40.8753 146.1 40.9224 146.822 40.6087 147.732L34.0682 166.883C33.5976 168.294 32.6252 169 31.1508 169H25.6455C24.1711 169 23.1987 168.294 22.7281 166.883L16.0935 147.732ZM41.9707 156.954C41.9707 155.041 42.3314 153.3 43.0529 151.731C43.7744 150.163 44.7469 148.829 45.9703 147.732C47.2251 146.602 48.6837 145.74 50.3463 145.144C52.0089 144.516 53.7813 144.202 55.6634 144.202C57.577 144.202 59.365 144.516 61.0276 145.144C62.7216 145.74 64.1802 146.602 65.4036 147.732C66.6584 148.829 67.6465 150.163 68.368 151.731C69.0895 153.3 69.4503 155.041 69.4503 156.954C69.4503 158.836 69.0895 160.562 68.368 162.13C67.6465 163.667 66.6584 165 65.4036 166.13C64.1802 167.228 62.7372 168.075 61.0747 168.671C59.4121 169.267 57.624 169.565 55.7105 169.565C53.797 169.565 52.0089 169.267 50.3463 168.671C48.6837 168.075 47.2251 167.228 45.9703 166.13C44.7469 165 43.7744 163.667 43.0529 162.13C42.3314 160.562 41.9707 158.836 41.9707 156.954ZM50.2052 156.954C50.2052 157.864 50.3463 158.679 50.6286 159.401C50.9423 160.122 51.3501 160.734 51.8521 161.236C52.354 161.738 52.9343 162.13 53.5931 162.412C54.2518 162.663 54.9576 162.789 55.7105 162.789C56.4634 162.789 57.1692 162.663 57.8279 162.412C58.4867 162.13 59.067 161.738 59.5689 161.236C60.0708 160.734 60.463 160.122 60.7453 159.401C61.059 158.679 61.2158 157.864 61.2158 156.954C61.2158 156.044 61.059 155.229 60.7453 154.507C60.463 153.754 60.0708 153.127 59.5689 152.625C59.067 152.092 58.4867 151.684 57.8279 151.402C57.1692 151.119 56.4634 150.978 55.7105 150.978C54.9576 150.978 54.2518 151.119 53.5931 151.402C52.9343 151.684 52.354 152.092 51.8521 152.625C51.3501 153.127 50.9423 153.754 50.6286 154.507C50.3463 155.229 50.2052 156.044 50.2052 156.954ZM74.1612 151.543H73.4554C71.7615 151.543 70.9145 150.68 70.9145 148.955V147.779C70.9145 146.053 71.7771 145.191 73.5025 145.191H74.3965V140.815C74.3965 139.089 75.2591 138.227 76.9845 138.227H79.7136C81.4389 138.227 82.3016 139.089 82.3016 140.815V145.191H84.7954C86.5208 145.191 87.3834 146.053 87.3834 147.779V148.955C87.3834 150.68 86.5364 151.543 84.8425 151.543H82.3016V158.883C82.3016 159.919 82.5839 160.671 83.1485 161.142C83.7446 161.581 84.4033 161.848 85.1248 161.942C86.0659 162.067 86.7247 162.303 87.1011 162.648C87.5089 162.993 87.7128 163.62 87.7128 164.53V166.647C87.7128 167.62 87.4305 168.294 86.8658 168.671C86.3012 169.047 85.4699 169.235 84.372 169.235C83.4622 169.235 82.4271 169.11 81.2664 168.859C80.1057 168.608 78.9921 168.153 77.9255 167.494C76.859 166.836 75.965 165.941 75.2435 164.812C74.522 163.652 74.1612 162.177 74.1612 160.389V151.543ZM89.6681 156.86C89.6681 155.072 89.9504 153.409 90.5151 151.872C91.1111 150.335 91.9424 149.002 93.009 147.873C94.1069 146.743 95.4401 145.849 97.0086 145.191C98.577 144.532 100.334 144.202 102.279 144.202C104.067 144.202 105.651 144.5 107.031 145.097C108.443 145.693 109.619 146.508 110.56 147.543C111.533 148.579 112.254 149.802 112.725 151.214C113.227 152.625 113.477 154.147 113.477 155.778C113.477 156.405 113.227 157.017 112.725 157.613C112.223 158.178 111.564 158.46 110.748 158.46H97.9967C98.3104 159.966 99.0005 161.064 100.067 161.754C101.134 162.444 102.326 162.789 103.643 162.789C104.459 162.789 105.243 162.679 105.996 162.459C106.749 162.24 107.439 161.973 108.066 161.66C108.851 161.314 109.525 161.205 110.09 161.33C110.654 161.456 111.14 161.895 111.548 162.648L112.207 163.871C112.583 164.593 112.709 165.267 112.583 165.894C112.458 166.49 112.034 166.992 111.313 167.4C110.435 167.902 109.29 168.388 107.878 168.859C106.498 169.329 104.867 169.565 102.984 169.565C100.82 169.565 98.9064 169.204 97.2438 168.482C95.5812 167.761 94.1853 166.82 93.056 165.659C91.9581 164.467 91.1111 163.103 90.5151 161.565C89.9504 160.028 89.6681 158.46 89.6681 156.86ZM105.431 153.802C105.431 152.798 105.133 151.951 104.537 151.261C103.941 150.539 103.126 150.178 102.09 150.178C100.898 150.178 100.004 150.539 99.4083 151.261C98.8123 151.982 98.4045 152.829 98.1849 153.802H105.431ZM115.639 173.517C115.984 172.796 116.377 172.341 116.816 172.153C117.286 171.964 117.773 171.917 118.274 172.011C118.463 172.074 118.667 172.121 118.886 172.153C119.137 172.215 119.404 172.247 119.686 172.247C120.408 172.247 121.066 171.996 121.662 171.494C122.29 170.992 122.745 170.38 123.027 169.659L123.497 168.529L114.51 147.779C114.102 146.869 114.071 146.147 114.416 145.614C114.792 145.049 115.483 144.767 116.486 144.767H120.157C121.662 144.767 122.65 145.473 123.121 146.885L125.991 155.919C126.085 156.264 126.18 156.656 126.274 157.095C126.399 157.534 126.509 157.942 126.603 158.319C126.728 158.789 126.823 159.244 126.885 159.683H126.979C127.074 159.244 127.168 158.805 127.262 158.366C127.325 157.989 127.403 157.597 127.497 157.189C127.591 156.782 127.685 156.405 127.779 156.06L130.226 146.979C130.634 145.504 131.606 144.767 133.144 144.767H136.578C137.52 144.767 138.178 145.034 138.555 145.567C138.963 146.1 138.994 146.822 138.649 147.732L129.803 171.588C129.301 172.937 128.673 174.066 127.921 174.976C127.168 175.917 126.336 176.67 125.427 177.234C124.548 177.83 123.607 178.254 122.603 178.505C121.631 178.756 120.659 178.881 119.686 178.881C119.059 178.881 118.447 178.819 117.851 178.693C117.286 178.568 116.769 178.427 116.298 178.27C115.514 178.019 115.012 177.58 114.792 176.952C114.604 176.325 114.683 175.635 115.028 174.882L115.639 173.517Z" fill="#F77646"/>
</svg>
