<svg width="181" height="145" viewBox="0 0 181 145" fill="none" xmlns="http://www.w3.org/2000/svg">
<path d="M92.7408 144.99C83.8085 144.99 76.4377 143.261 70.6389 139.795C64.8402 136.328 60.1033 131.331 56.4388 124.793C52.7742 118.265 49.474 110.332 46.5382 100.994L24.1344 29.1916C22.0002 22.5287 22.1668 16.6883 24.6341 11.6912C27.1015 6.69407 31.5364 3.25854 37.939 1.39503C43.8002 -0.333142 49.1409 0.0312323 53.9402 2.49856C58.7395 4.9659 62.0085 9.13017 63.7367 15.0018L82.8507 68.2837C85.1202 75.7481 88.0144 80.714 91.554 83.1814C95.0832 85.6487 98.9144 86.2109 103.058 84.8783C107.326 83.6811 110.054 81.245 111.261 77.5804C112.459 73.9158 112.126 68.3461 110.262 60.8817C107.191 47.556 107.815 53.0008 106.743 45.401C105.671 37.8012 105.14 31.8046 105.14 27.4009C105.14 19.9365 107.17 13.5027 111.241 8.09951C115.311 2.69637 121.61 0 130.136 0C138.662 0 144.638 2.69637 148.438 8.09951C152.238 13.5027 154.143 19.9365 154.143 27.4009C154.143 31.8046 153.539 36.3333 152.342 40.9973C151.145 45.6613 149.739 50.471 148.146 55.3952L130.344 109.198C127.939 116.402 125.305 122.7 122.443 128.093C119.58 133.496 115.842 137.66 111.241 140.596C106.639 143.532 100.476 145 92.7408 145V144.99Z" fill="#F77646"/>
<path d="M19.1995 79.2045C7.73731 84.212 -6.47327 96.7673 3.21907 109.968C7.90388 116.339 15.4412 118.39 22.9786 118.994C31.7235 119.692 40.7288 119.109 49.4737 118.546C87.2645 116.152 124.441 107.261 159.15 92.1137C168.437 88.064 190.028 75.2172 175.443 63.8487C169.176 58.9661 160.275 67.7423 166.604 72.6874C168.562 74.2177 167.146 72.7603 167.437 72.3022C166.865 73.1767 166.042 73.8846 165.251 74.5509C163.398 76.1021 161.232 77.341 159.088 78.4549C151.675 82.3069 143.638 85.2427 135.799 88.0744C118.996 94.1334 101.673 98.7453 84.0893 101.9C66.3182 105.085 48.2557 106.657 30.2036 106.699C26.1226 106.699 12.8802 107.438 12.4429 100.911C12.0994 95.8095 21.9479 91.5307 25.4875 89.9899C32.8375 86.7834 26.487 76.0188 19.1787 79.2045H19.1995Z" fill="#F7CE46"/>
</svg>
